<?xml version="1.0" encoding="utf-8"?>
<!-- Generator: Adobe Illustrator 15.0.0, SVG Export Plug-In . SVG Version: 6.00 Build 0)  -->
<svg version="1.2" baseProfile="tiny" id="Layer_1" xmlns="http://www.w3.org/2000/svg" xmlns:xlink="http://www.w3.org/1999/xlink"
	 x="0px" y="0px" width="302px" height="50px" viewBox="0 0 302 50" overflow="inherit" xml:space="preserve">
<rect x="5.999" y="5.237" fill="none" width="291.416" height="40.323"/>
<text transform="matrix(1 0 0 1 5.999 29.9365)" fill="#59595A" font-family="'Verdana'" font-size="32.5">K</text>
<text transform="matrix(1 0 0 1 27.5654 29.9365)" fill="#59595A" font-family="'Verdana'" font-size="32.5">a</text>
<text transform="matrix(1 0 0 1 47.084 29.9365)" fill="#59595A" font-family="'Verdana'" font-size="32.5">r</text>
<text transform="matrix(1 0 0 1 60.9531 29.9365)" fill="#59595A" font-family="'Verdana'" font-size="32.5">d</text>
<text transform="matrix(1 0 0 1 81.2021 29.9365)" fill="#59595A" font-family="'Verdana'" font-size="32.5">i</text>
<text transform="matrix(1 0 0 1 90.1211 29.9365)" fill="#59595A" font-family="'Verdana'" font-size="32.5">c</text>
<text transform="matrix(1 0 0 1 107.0537 29.9365)" fill="#59595A" font-family="'Verdana'" font-size="32.5">e</text>
<text transform="matrix(1 0 0 1 126.4141 29.9365)" fill="#59595A" font-family="'Verdana'" font-size="32.5">u</text>
<text transform="matrix(1 0 0 1 146.9805 29.9365)" fill="#59595A" font-family="'Verdana'" font-size="32.5">s</text>
<text transform="matrix(1 0 0 1 163.9131 29.9365)" fill="#59595A" font-family="'Verdana'" font-size="32.5"> </text>
<text transform="matrix(1 0 0 1 175.3389 29.9365)" fill="#BD2025" font-family="'Verdana'" font-size="32.5">M</text>
<text transform="matrix(1 0 0 1 202.7285 29.9365)" fill="#BD2025" font-family="'Verdana'" font-size="32.5">e</text>
<text transform="matrix(1 0 0 1 222.0889 29.9365)" fill="#BD2025" font-family="'Verdana'" font-size="32.5">d</text>
<text transform="matrix(1 0 0 1 242.3379 29.9365)" fill="#BD2025" font-family="'Verdana'" font-size="32.5">i</text>
<text transform="matrix(1 0 0 1 251.2559 29.9365)" fill="#BD2025" font-family="'Verdana'" font-size="32.5">c</text>
<text transform="matrix(1 0 0 1 268.1885 29.9365)" fill="#BD2025" font-family="'Verdana'" font-size="32.5">a</text>
<text transform="matrix(1 0 0 1 287.707 29.9365)" fill="#BD2025" font-family="'Verdana'" font-size="32.5">l</text>
<text transform="matrix(1 0 0 1 5.999 44.3364)" fill="#59595A" font-family="'Verdana'" font-size="12">I</text>
<text transform="matrix(1 0 0 1 11.0498 44.3364)" fill="#59595A" font-family="'Verdana'" font-size="12">m</text>
<text transform="matrix(1 0 0 1 22.7217 44.3364)" fill="#59595A" font-family="'Verdana'" font-size="12">a</text>
<text transform="matrix(1 0 0 1 29.9287 44.3364)" fill="#59595A" font-family="'Verdana'" font-size="12">g</text>
<text transform="matrix(1 0 0 1 37.4053 44.3364)" fill="#59595A" font-family="'Verdana'" font-size="12">e</text>
<text transform="matrix(1 0 0 1 44.5537 44.3364)" fill="#59595A" font-family="'Verdana'" font-size="12">-</text>
<text transform="matrix(1 0 0 1 50.0029 44.3364)" fill="#59595A" font-family="'Verdana'" font-size="12">b</text>
<text transform="matrix(1 0 0 1 57.4795 44.3364)" fill="#59595A" font-family="'Verdana'" font-size="12">a</text>
<text transform="matrix(1 0 0 1 64.6865 44.3364)" fill="#59595A" font-family="'Verdana'" font-size="12">s</text>
<text transform="matrix(1 0 0 1 70.9385 44.3364)" fill="#59595A" font-family="'Verdana'" font-size="12">e</text>
<text transform="matrix(1 0 0 1 78.0869 44.3364)" fill="#59595A" font-family="'Verdana'" font-size="12">d</text>
<text transform="matrix(1 0 0 1 85.5635 44.3364)" fill="#59595A" font-family="'Verdana'" font-size="12"> </text>
<text transform="matrix(1 0 0 1 89.7822 44.3364)" fill="#59595A" font-family="'Verdana'" font-size="12">s</text>
<text transform="matrix(1 0 0 1 96.0342 44.3364)" fill="#59595A" font-family="'Verdana'" font-size="12">o</text>
<text transform="matrix(1 0 0 1 103.3174 44.3364)" fill="#59595A" font-family="'Verdana'" font-size="12">l</text>
<text transform="matrix(1 0 0 1 106.6104 44.3364)" fill="#59595A" font-family="'Verdana'" font-size="12">u</text>
<text transform="matrix(1 0 0 1 114.2041 44.3364)" fill="#59595A" font-family="'Verdana'" font-size="12">t</text>
<text transform="matrix(1 0 0 1 118.9326 44.3364)" fill="#59595A" font-family="'Verdana'" font-size="12">i</text>
<text transform="matrix(1 0 0 1 122.2256 44.3364)" fill="#59595A" font-family="'Verdana'" font-size="12">o</text>
<text transform="matrix(1 0 0 1 129.5088 44.3364)" fill="#59595A" font-family="'Verdana'" font-size="12">n</text>
<text transform="matrix(1 0 0 1 137.1025 44.3364)" fill="#59595A" font-family="'Verdana'" font-size="12">s</text>
<text transform="matrix(1 0 0 1 143.3545 44.3364)" fill="#59595A" font-family="'Verdana'" font-size="12"> </text>
<text transform="matrix(1 0 0 1 147.5732 44.3364)" fill="#59595A" font-family="'Verdana'" font-size="12">f</text>
<text transform="matrix(1 0 0 1 151.792 44.3364)" fill="#59595A" font-family="'Verdana'" font-size="12">o</text>
<text transform="matrix(1 0 0 1 159.0752 44.3364)" fill="#59595A" font-family="'Verdana'" font-size="12">r</text>
<text transform="matrix(1 0 0 1 164.1963 44.3364)" fill="#59595A" font-family="'Verdana'" font-size="12"> </text>
<text transform="matrix(1 0 0 1 168.415 44.3364)" fill="#59595A" font-family="'Verdana'" font-size="12">c</text>
<text transform="matrix(1 0 0 1 174.667 44.3364)" fill="#59595A" font-family="'Verdana'" font-size="12">a</text>
<text transform="matrix(1 0 0 1 181.874 44.3364)" fill="#59595A" font-family="'Verdana'" font-size="12">r</text>
<text transform="matrix(1 0 0 1 186.9951 44.3364)" fill="#59595A" font-family="'Verdana'" font-size="12">d</text>
<text transform="matrix(1 0 0 1 194.4717 44.3364)" fill="#59595A" font-family="'Verdana'" font-size="12">i</text>
<text transform="matrix(1 0 0 1 197.7646 44.3364)" fill="#59595A" font-family="'Verdana'" font-size="12">a</text>
<text transform="matrix(1 0 0 1 204.9717 44.3364)" fill="#59595A" font-family="'Verdana'" font-size="12">c</text>
<text transform="matrix(1 0 0 1 211.2236 44.3364)" fill="#59595A" font-family="'Verdana'" font-size="12"> </text>
<text transform="matrix(1 0 0 1 215.4424 44.3364)" fill="#59595A" font-family="'Verdana'" font-size="12">i</text>
<text transform="matrix(1 0 0 1 218.7354 44.3364)" fill="#59595A" font-family="'Verdana'" font-size="12">n</text>
<text transform="matrix(1 0 0 1 226.3291 44.3364)" fill="#59595A" font-family="'Verdana'" font-size="12">t</text>
<text transform="matrix(1 0 0 1 231.0576 44.3364)" fill="#59595A" font-family="'Verdana'" font-size="12">e</text>
<text transform="matrix(1 0 0 1 238.2061 44.3364)" fill="#59595A" font-family="'Verdana'" font-size="12">r</text>
<text transform="matrix(1 0 0 1 243.3271 44.3364)" fill="#59595A" font-family="'Verdana'" font-size="12">v</text>
<text transform="matrix(1 0 0 1 250.3232 44.3364)" fill="#59595A" font-family="'Verdana'" font-size="12">e</text>
<text transform="matrix(1 0 0 1 257.4717 44.3364)" fill="#59595A" font-family="'Verdana'" font-size="12">n</text>
<text transform="matrix(1 0 0 1 265.0654 44.3364)" fill="#59595A" font-family="'Verdana'" font-size="12">t</text>
<text transform="matrix(1 0 0 1 269.7939 44.3364)" fill="#59595A" font-family="'Verdana'" font-size="12">i</text>
<text transform="matrix(1 0 0 1 273.0869 44.3364)" fill="#59595A" font-family="'Verdana'" font-size="12">o</text>
<text transform="matrix(1 0 0 1 280.3701 44.3364)" fill="#59595A" font-family="'Verdana'" font-size="12">n</text>
<text transform="matrix(1 0 0 1 287.9639 44.3364)" fill="#59595A" font-family="'Verdana'" font-size="12">s</text>
</svg>
