<?xml version="1.0" encoding="UTF-8"?>
<svg xmlns="http://www.w3.org/2000/svg" xmlns:xlink="http://www.w3.org/1999/xlink" width="374pt" height="238pt" viewBox="0 0 374 238" version="1.1">
<defs>
<clipPath id="clip1">
  <path d="M 304 53 L 373.957031 53 L 373.957031 141 L 304 141 Z M 304 53 "/>
</clipPath>
<clipPath id="clip2">
  <path d="M 298 47 L 373.957031 47 L 373.957031 147 L 298 147 Z M 298 47 "/>
</clipPath>
<clipPath id="clip3">
  <path d="M 132 0.960938 L 166 0.960938 L 166 34 L 132 34 Z M 132 0.960938 "/>
</clipPath>
</defs>
<g id="surface1">
<path style=" stroke:none;fill-rule:nonzero;fill:rgb(13.729858%,12.159729%,12.548828%);fill-opacity:1;" d="M 69.078125 181.457031 L 81.492188 181.457031 L 81.492188 184.25 L 72.253906 184.25 L 72.253906 190.726562 L 80.667969 190.726562 L 80.667969 193.523438 L 72.253906 193.523438 L 72.253906 200.824219 L 81.492188 200.824219 L 81.492188 203.617188 L 69.078125 203.617188 L 69.078125 181.457031 "/>
<path style=" stroke:none;fill-rule:nonzero;fill:rgb(13.729858%,12.159729%,12.548828%);fill-opacity:1;" d="M 89.90625 195.140625 L 84.636719 187.425781 L 88.351562 187.425781 L 91.875 193.203125 L 95.464844 187.425781 L 98.796875 187.425781 L 93.589844 195.140625 L 99.304688 203.617188 L 95.621094 203.617188 L 91.621094 197.269531 L 87.621094 203.617188 L 84.0625 203.617188 L 89.90625 195.140625 "/>
<path style=" stroke:none;fill-rule:nonzero;fill:rgb(13.729858%,12.159729%,12.548828%);fill-opacity:1;" d="M 102.542969 187.425781 L 105.527344 187.425781 L 105.527344 203.617188 L 102.542969 203.617188 Z M 105.71875 183.804688 L 102.351562 183.804688 L 102.351562 180.4375 L 105.71875 180.4375 L 105.71875 183.804688 "/>
<path style=" stroke:none;fill-rule:nonzero;fill:rgb(13.729858%,12.159729%,12.548828%);fill-opacity:1;" d="M 109.78125 200.441406 C 110.957031 201.207031 112.640625 201.585938 113.496094 201.585938 C 114.859375 201.585938 116.542969 201.015625 116.542969 199.269531 C 116.542969 196.316406 109.527344 196.570312 109.527344 192.027344 C 109.527344 188.664062 112.035156 187.042969 115.242188 187.042969 C 116.640625 187.042969 117.78125 187.328125 118.957031 187.679688 L 118.703125 190.28125 C 118.035156 189.871094 116.257812 189.457031 115.558594 189.457031 C 114.035156 189.457031 112.703125 190.09375 112.703125 191.425781 C 112.703125 194.730469 119.71875 193.773438 119.71875 198.953125 C 119.71875 202.410156 116.957031 204 114.066406 204 C 112.542969 204 110.988281 203.84375 109.621094 203.109375 L 109.78125 200.441406 "/>
<path style=" stroke:none;fill-rule:nonzero;fill:rgb(13.729858%,12.159729%,12.548828%);fill-opacity:1;" d="M 131.941406 189.839844 L 127.65625 189.839844 L 127.65625 198.695312 C 127.65625 200.570312 128.800781 201.585938 130.164062 201.585938 C 131.085938 201.585938 131.753906 201.300781 132.195312 201.015625 L 132.195312 203.554688 C 131.53125 203.746094 130.609375 204 129.65625 204 C 126.578125 204 124.671875 202.539062 124.671875 199.300781 L 124.671875 189.839844 L 121.019531 189.839844 L 121.019531 187.425781 L 124.671875 187.425781 L 124.671875 183.679688 L 127.65625 182.726562 L 127.65625 187.425781 L 131.941406 187.425781 L 131.941406 189.839844 "/>
<path style=" stroke:none;fill-rule:nonzero;fill:rgb(13.729858%,12.159729%,12.548828%);fill-opacity:1;" d="M 146.167969 193.964844 C 146.167969 191.488281 144.707031 189.457031 142.136719 189.457031 C 139.214844 189.457031 138.007812 191.871094 137.785156 193.964844 Z M 148.105469 202.953125 C 146.960938 203.363281 145.660156 204 142.992188 204 C 137.246094 204 134.609375 200.507812 134.609375 195.234375 C 134.609375 190.441406 137.625 187.042969 142.199219 187.042969 C 147.597656 187.042969 149.34375 190.980469 149.34375 196.1875 L 137.785156 196.1875 C 137.785156 199.394531 140.292969 201.585938 143.117188 201.585938 C 145.089844 201.585938 147.375 200.570312 148.105469 199.96875 L 148.105469 202.953125 "/>
<path style=" stroke:none;fill-rule:nonzero;fill:rgb(13.729858%,12.159729%,12.548828%);fill-opacity:1;" d="M 153.339844 187.425781 L 156.230469 187.425781 L 156.230469 189.996094 L 156.292969 189.996094 C 157.183594 188.15625 159.34375 187.042969 161.597656 187.042969 C 165.789062 187.042969 167.664062 189.648438 167.664062 193.996094 L 167.664062 203.617188 L 164.679688 203.617188 L 164.679688 195.234375 C 164.679688 191.457031 163.851562 189.617188 161.246094 189.457031 C 157.851562 189.457031 156.324219 192.1875 156.324219 196.125 L 156.324219 203.617188 L 153.339844 203.617188 L 153.339844 187.425781 "/>
<path style=" stroke:none;fill-rule:nonzero;fill:rgb(13.729858%,12.159729%,12.548828%);fill-opacity:1;" d="M 171.566406 201.015625 L 180.902344 189.839844 L 172.011719 189.839844 L 172.011719 187.425781 L 184.363281 187.425781 L 184.363281 190.027344 L 175.027344 201.207031 L 184.710938 201.207031 L 184.710938 203.617188 L 171.566406 203.617188 L 171.566406 201.015625 "/>
<path style=" stroke:none;fill-rule:nonzero;fill:rgb(13.729858%,12.159729%,12.548828%);fill-opacity:1;" d="M 199.953125 195.714844 C 199.953125 192.347656 198.394531 189.457031 195.21875 189.457031 C 192.203125 189.457031 190.710938 192.726562 190.710938 195.488281 C 190.710938 198.539062 192.425781 201.207031 195.21875 201.207031 C 198.015625 201.207031 199.953125 198.730469 199.953125 195.714844 Z M 202.9375 202.921875 C 202.9375 207.84375 200.394531 210.667969 194.585938 210.667969 C 192.871094 210.667969 191.378906 210.445312 188.773438 209.558594 L 189.09375 206.792969 C 191.378906 207.84375 192.742188 208.253906 194.933594 208.253906 C 198.078125 208.253906 199.953125 206.128906 199.953125 202.699219 L 199.953125 201.109375 L 199.886719 201.109375 C 198.617188 202.792969 196.523438 203.617188 194.457031 203.617188 C 189.820312 203.617188 187.535156 199.839844 187.535156 195.648438 C 187.535156 191.488281 189.886719 187.042969 194.777344 187.042969 C 197.632812 187.042969 199.222656 188.09375 200.109375 189.839844 L 200.175781 189.839844 L 200.175781 187.425781 L 202.9375 187.425781 L 202.9375 202.921875 "/>
<path style=" stroke:none;fill-rule:nonzero;fill:rgb(13.729858%,12.159729%,12.548828%);fill-opacity:1;" d="M 208.015625 187.425781 L 210.808594 187.425781 L 210.808594 189.933594 L 210.871094 189.933594 C 211.664062 188.25 213.382812 187.042969 215.09375 187.042969 C 215.984375 187.042969 216.429688 187.140625 217.0625 187.265625 L 217.0625 189.933594 C 216.523438 189.710938 215.921875 189.648438 215.414062 189.648438 C 212.746094 189.648438 211 192.1875 211 196.253906 L 211 203.617188 L 208.015625 203.617188 L 208.015625 187.425781 "/>
<path style=" stroke:none;fill-rule:nonzero;fill:rgb(13.729858%,12.159729%,12.548828%);fill-opacity:1;" d="M 228.652344 181.773438 L 231.636719 181.773438 L 231.636719 184.949219 L 228.652344 184.949219 Z M 223.445312 181.773438 L 226.429688 181.773438 L 226.429688 184.949219 L 223.445312 184.949219 Z M 234.6875 203.617188 L 231.796875 203.617188 L 231.796875 201.046875 L 231.734375 201.046875 C 230.84375 202.890625 228.683594 204 226.429688 204 C 222.238281 204 220.363281 201.398438 220.363281 197.046875 L 220.363281 187.425781 L 223.351562 187.425781 L 223.351562 195.808594 C 223.351562 199.585938 224.175781 201.429688 226.777344 201.585938 C 230.175781 201.585938 231.699219 198.855469 231.699219 194.917969 L 231.699219 187.425781 L 234.6875 187.425781 L 234.6875 203.617188 "/>
<path style=" stroke:none;fill-rule:nonzero;fill:rgb(13.729858%,12.159729%,12.548828%);fill-opacity:1;" d="M 239.765625 187.425781 L 242.652344 187.425781 L 242.652344 189.996094 L 242.71875 189.996094 C 243.605469 188.15625 245.765625 187.042969 248.019531 187.042969 C 252.210938 187.042969 254.085938 189.648438 254.085938 193.996094 L 254.085938 203.617188 L 251.101562 203.617188 L 251.101562 195.234375 C 251.101562 191.457031 250.273438 189.617188 247.671875 189.457031 C 244.273438 189.457031 242.75 192.1875 242.75 196.125 L 242.75 203.617188 L 239.765625 203.617188 L 239.765625 187.425781 "/>
<path style=" stroke:none;fill-rule:nonzero;fill:rgb(13.729858%,12.159729%,12.548828%);fill-opacity:1;" d="M 265.734375 201.585938 C 269.101562 201.585938 270.5 198.253906 270.5 195.554688 C 270.5 192.535156 268.941406 189.457031 265.703125 189.457031 C 262.464844 189.457031 261.195312 192.507812 261.257812 195.457031 C 261.195312 198 262.527344 201.585938 265.734375 201.585938 Z M 270.625 201.332031 L 270.5625 201.332031 C 269.769531 202.539062 267.925781 204 265.035156 204 C 260.148438 204 258.082031 199.648438 258.082031 195.234375 C 258.082031 190.886719 260.371094 187.042969 265.070312 187.042969 C 267.894531 187.042969 269.515625 188.15625 270.433594 189.648438 L 270.5 189.648438 L 270.5 179.804688 L 273.484375 179.804688 L 273.484375 203.617188 L 270.625 203.617188 L 270.625 201.332031 "/>
<path style=" stroke:none;fill-rule:nonzero;fill:rgb(13.729858%,12.159729%,12.548828%);fill-opacity:1;" d="M 292.882812 203.617188 L 289.992188 203.617188 L 289.992188 201.046875 L 289.929688 201.046875 C 289.039062 202.890625 286.882812 204 284.628906 204 C 280.4375 204 278.5625 201.398438 278.5625 197.046875 L 278.5625 187.425781 L 281.546875 187.425781 L 281.546875 195.808594 C 281.546875 199.585938 282.371094 201.429688 284.976562 201.585938 C 288.375 201.585938 289.898438 198.855469 289.898438 194.917969 L 289.898438 187.425781 L 292.882812 187.425781 L 292.882812 203.617188 "/>
<path style=" stroke:none;fill-rule:nonzero;fill:rgb(13.729858%,12.159729%,12.548828%);fill-opacity:1;" d="M 297.960938 187.425781 L 300.851562 187.425781 L 300.851562 189.996094 L 300.914062 189.996094 C 301.804688 188.15625 303.960938 187.042969 306.214844 187.042969 C 310.40625 187.042969 312.28125 189.648438 312.28125 193.996094 L 312.28125 203.617188 L 309.296875 203.617188 L 309.296875 195.234375 C 309.296875 191.457031 308.472656 189.617188 305.867188 189.457031 C 302.46875 189.457031 300.945312 192.1875 300.945312 196.125 L 300.945312 203.617188 L 297.960938 203.617188 L 297.960938 187.425781 "/>
<path style=" stroke:none;fill-rule:nonzero;fill:rgb(13.729858%,12.159729%,12.548828%);fill-opacity:1;" d="M 328.695312 195.714844 C 328.695312 192.347656 327.140625 189.457031 323.964844 189.457031 C 320.949219 189.457031 319.457031 192.726562 319.457031 195.488281 C 319.457031 198.539062 321.171875 201.207031 323.964844 201.207031 C 326.757812 201.207031 328.695312 198.730469 328.695312 195.714844 Z M 331.679688 202.921875 C 331.679688 207.84375 329.140625 210.667969 323.328125 210.667969 C 321.613281 210.667969 320.121094 210.445312 317.519531 209.558594 L 317.835938 206.792969 C 320.121094 207.84375 321.488281 208.253906 323.679688 208.253906 C 326.824219 208.253906 328.695312 206.128906 328.695312 202.699219 L 328.695312 201.109375 L 328.632812 201.109375 C 327.363281 202.792969 325.265625 203.617188 323.203125 203.617188 C 318.566406 203.617188 316.28125 199.839844 316.28125 195.648438 C 316.28125 191.488281 318.628906 187.042969 323.519531 187.042969 C 326.378906 187.042969 327.964844 188.09375 328.855469 189.839844 L 328.917969 189.839844 L 328.917969 187.425781 L 331.679688 187.425781 L 331.679688 202.921875 "/>
<path style=" stroke:none;fill-rule:nonzero;fill:rgb(13.729858%,12.159729%,12.548828%);fill-opacity:1;" d="M 347.238281 193.964844 C 347.238281 191.488281 345.777344 189.457031 343.203125 189.457031 C 340.28125 189.457031 339.078125 191.871094 338.855469 193.964844 Z M 349.175781 202.953125 C 348.03125 203.363281 346.730469 204 344.0625 204 C 338.316406 204 335.679688 200.507812 335.679688 195.234375 C 335.679688 190.441406 338.695312 187.042969 343.269531 187.042969 C 348.667969 187.042969 350.414062 190.980469 350.414062 196.1875 L 338.855469 196.1875 C 338.855469 199.394531 341.363281 201.585938 344.1875 201.585938 C 346.15625 201.585938 348.445312 200.570312 349.175781 199.96875 L 349.175781 202.953125 "/>
<path style=" stroke:none;fill-rule:nonzero;fill:rgb(13.729858%,12.159729%,12.548828%);fill-opacity:1;" d="M 354.410156 187.425781 L 357.300781 187.425781 L 357.300781 189.996094 L 357.363281 189.996094 C 358.253906 188.15625 360.414062 187.042969 362.667969 187.042969 C 366.859375 187.042969 368.734375 189.648438 368.734375 193.996094 L 368.734375 203.617188 L 365.746094 203.617188 L 365.746094 195.234375 C 365.746094 191.457031 364.921875 189.617188 362.320312 189.457031 C 358.921875 189.457031 357.398438 192.1875 357.398438 196.125 L 357.398438 203.617188 L 354.410156 203.617188 L 354.410156 187.425781 "/>
<path style=" stroke:none;fill-rule:nonzero;fill:rgb(13.729858%,12.159729%,12.548828%);fill-opacity:1;" d="M 78.253906 229.902344 C 77.617188 229.902344 76.984375 229.839844 76.347656 229.839844 C 74.730469 229.839844 70.730469 230.09375 70.730469 232.949219 C 70.730469 234.667969 72.378906 235.585938 73.746094 235.585938 C 76.699219 235.585938 78.253906 233.746094 78.253906 231.332031 Z M 69.394531 222.566406 C 70.886719 221.679688 72.664062 221.042969 74.730469 221.042969 C 79.367188 221.042969 81.238281 223.332031 81.238281 227.742188 L 81.238281 234.441406 C 81.238281 236.285156 81.300781 237.144531 81.367188 237.621094 L 78.570312 237.621094 L 78.570312 235.523438 L 78.507812 235.523438 C 77.808594 236.507812 76.222656 238 73.492188 238 C 70 238 67.554688 236.476562 67.554688 232.949219 C 67.554688 228.886719 72 227.617188 75.078125 227.617188 C 76.253906 227.617188 77.078125 227.617188 78.253906 227.679688 C 78.253906 224.886719 77.238281 223.457031 74.253906 223.457031 C 72.570312 223.457031 70.761719 224.09375 69.554688 225.109375 L 69.394531 222.566406 "/>
<path style=" stroke:none;fill-rule:nonzero;fill:rgb(13.729858%,12.159729%,12.548828%);fill-opacity:1;" d="M 100.605469 237.621094 L 97.71875 237.621094 L 97.71875 235.046875 L 97.652344 235.046875 C 96.765625 236.890625 94.605469 238 92.351562 238 C 88.160156 238 86.285156 235.398438 86.285156 231.046875 L 86.285156 221.425781 L 89.269531 221.425781 L 89.269531 229.808594 C 89.269531 233.585938 90.097656 235.429688 92.699219 235.585938 C 96.097656 235.585938 97.621094 232.855469 97.621094 228.917969 L 97.621094 221.425781 L 100.605469 221.425781 L 100.605469 237.621094 "/>
<path style=" stroke:none;fill-rule:nonzero;fill:rgb(13.729858%,12.159729%,12.548828%);fill-opacity:1;" d="M 104.476562 234.441406 C 105.652344 235.207031 107.335938 235.585938 108.191406 235.585938 C 109.558594 235.585938 111.242188 235.015625 111.242188 233.269531 C 111.242188 230.316406 104.222656 230.570312 104.222656 226.027344 C 104.222656 222.664062 106.734375 221.042969 109.941406 221.042969 C 111.335938 221.042969 112.480469 221.328125 113.65625 221.679688 L 113.402344 224.28125 C 112.734375 223.871094 110.957031 223.457031 110.257812 223.457031 C 108.734375 223.457031 107.398438 224.09375 107.398438 225.425781 C 107.398438 228.730469 114.417969 227.773438 114.417969 232.949219 C 114.417969 236.414062 111.652344 238 108.765625 238 C 107.242188 238 105.683594 237.84375 104.320312 237.109375 L 104.476562 234.441406 "/>
<path style=" stroke:none;fill-rule:nonzero;fill:rgb(13.729858%,12.159729%,12.548828%);fill-opacity:1;" d="M 133.433594 235.585938 C 136.800781 235.585938 138.199219 232.253906 138.199219 229.554688 C 138.199219 226.535156 136.640625 223.457031 133.402344 223.457031 C 130.164062 223.457031 128.894531 226.507812 128.957031 229.457031 C 128.894531 232 130.226562 235.585938 133.433594 235.585938 Z M 138.324219 235.332031 L 138.261719 235.332031 C 137.46875 236.539062 135.625 238 132.734375 238 C 127.847656 238 125.78125 233.648438 125.78125 229.234375 C 125.78125 224.886719 128.070312 221.042969 132.769531 221.042969 C 135.59375 221.042969 137.214844 222.15625 138.136719 223.648438 L 138.199219 223.648438 L 138.199219 213.804688 L 141.183594 213.804688 L 141.183594 237.621094 L 138.324219 237.621094 L 138.324219 235.332031 "/>
<path style=" stroke:none;fill-rule:nonzero;fill:rgb(13.729858%,12.159729%,12.548828%);fill-opacity:1;" d="M 156.738281 227.964844 C 156.738281 225.488281 155.277344 223.457031 152.707031 223.457031 C 149.785156 223.457031 148.578125 225.871094 148.355469 227.964844 Z M 158.675781 236.953125 C 157.535156 237.363281 156.230469 238 153.5625 238 C 147.816406 238 145.179688 234.507812 145.179688 229.234375 C 145.179688 224.441406 148.199219 221.042969 152.769531 221.042969 C 158.167969 221.042969 159.914062 224.980469 159.914062 230.1875 L 148.355469 230.1875 C 148.355469 233.394531 150.863281 235.585938 153.691406 235.585938 C 155.660156 235.585938 157.945312 234.570312 158.675781 233.96875 L 158.675781 236.953125 "/>
<path style=" stroke:none;fill-rule:nonzero;fill:rgb(13.729858%,12.159729%,12.548828%);fill-opacity:1;" d="M 163.914062 221.425781 L 166.707031 221.425781 L 166.707031 223.933594 L 166.769531 223.933594 C 167.566406 222.25 169.28125 221.042969 170.996094 221.042969 C 171.882812 221.042969 172.328125 221.140625 172.964844 221.265625 L 172.964844 223.933594 C 172.425781 223.710938 171.820312 223.648438 171.3125 223.648438 C 168.644531 223.648438 166.898438 226.1875 166.898438 230.25 L 166.898438 237.621094 L 163.914062 237.621094 L 163.914062 221.425781 "/>
<path style=" stroke:none;fill-rule:nonzero;fill:rgb(13.729858%,12.159729%,12.548828%);fill-opacity:1;" d="M 182.613281 215.457031 L 186.105469 215.457031 L 191.410156 234.441406 L 191.472656 234.441406 L 196.203125 215.457031 L 200.714844 215.457031 L 205.507812 234.441406 L 205.570312 234.441406 L 210.875 215.457031 L 214.242188 215.457031 L 207.414062 237.621094 L 203.316406 237.621094 L 198.492188 218.25 L 198.429688 218.25 L 193.570312 237.621094 L 189.3125 237.621094 L 182.613281 215.457031 "/>
<path style=" stroke:none;fill-rule:nonzero;fill:rgb(13.729858%,12.159729%,12.548828%);fill-opacity:1;" d="M 217.222656 221.425781 L 220.207031 221.425781 L 220.207031 237.621094 L 217.222656 237.621094 Z M 220.398438 217.804688 L 217.03125 217.804688 L 217.03125 214.4375 L 220.398438 214.4375 L 220.398438 217.804688 "/>
<path style=" stroke:none;fill-rule:nonzero;fill:rgb(13.729858%,12.159729%,12.548828%);fill-opacity:1;" d="M 224.460938 234.441406 C 225.636719 235.207031 227.320312 235.585938 228.175781 235.585938 C 229.542969 235.585938 231.226562 235.015625 231.226562 233.269531 C 231.226562 230.316406 224.207031 230.570312 224.207031 226.027344 C 224.207031 222.664062 226.714844 221.042969 229.921875 221.042969 C 231.320312 221.042969 232.464844 221.328125 233.636719 221.679688 L 233.382812 224.28125 C 232.71875 223.871094 230.9375 223.457031 230.238281 223.457031 C 228.714844 223.457031 227.382812 224.09375 227.382812 225.425781 C 227.382812 228.730469 234.398438 227.773438 234.398438 232.949219 C 234.398438 236.414062 231.636719 238 228.746094 238 C 227.222656 238 225.667969 237.84375 224.300781 237.109375 L 224.460938 234.441406 "/>
<path style=" stroke:none;fill-rule:nonzero;fill:rgb(13.729858%,12.159729%,12.548828%);fill-opacity:1;" d="M 236.8125 234.441406 C 237.984375 235.207031 239.667969 235.585938 240.527344 235.585938 C 241.890625 235.585938 243.574219 235.015625 243.574219 233.269531 C 243.574219 230.316406 236.558594 230.570312 236.558594 226.027344 C 236.558594 222.664062 239.066406 221.042969 242.273438 221.042969 C 243.671875 221.042969 244.8125 221.328125 245.988281 221.679688 L 245.734375 224.28125 C 245.066406 223.871094 243.289062 223.457031 242.589844 223.457031 C 241.066406 223.457031 239.730469 224.09375 239.730469 225.425781 C 239.730469 228.730469 246.75 227.773438 246.75 232.949219 C 246.75 236.414062 243.988281 238 241.097656 238 C 239.574219 238 238.019531 237.84375 236.652344 237.109375 L 236.8125 234.441406 "/>
<path style=" stroke:none;fill-rule:nonzero;fill:rgb(13.729858%,12.159729%,12.548828%);fill-opacity:1;" d="M 260.847656 227.964844 C 260.847656 225.488281 259.386719 223.457031 256.8125 223.457031 C 253.894531 223.457031 252.6875 225.871094 252.464844 227.964844 Z M 262.785156 236.953125 C 261.640625 237.363281 260.339844 238 257.671875 238 C 251.925781 238 249.289062 234.507812 249.289062 229.234375 C 249.289062 224.441406 252.304688 221.042969 256.878906 221.042969 C 262.277344 221.042969 264.023438 224.980469 264.023438 230.1875 L 252.464844 230.1875 C 252.464844 233.394531 254.972656 235.585938 257.800781 235.585938 C 259.769531 235.585938 262.054688 234.570312 262.785156 233.96875 L 262.785156 236.953125 "/>
<path style=" stroke:none;fill-rule:nonzero;fill:rgb(13.729858%,12.159729%,12.548828%);fill-opacity:1;" d="M 268.019531 221.425781 L 270.910156 221.425781 L 270.910156 223.996094 L 270.972656 223.996094 C 271.863281 222.15625 274.023438 221.042969 276.277344 221.042969 C 280.46875 221.042969 282.34375 223.648438 282.34375 227.996094 L 282.34375 237.621094 L 279.355469 237.621094 L 279.355469 229.234375 C 279.355469 225.457031 278.53125 223.617188 275.929688 223.457031 C 272.53125 223.457031 271.007812 226.1875 271.007812 230.125 L 271.007812 237.621094 L 268.019531 237.621094 L 268.019531 221.425781 "/>
<path style=" stroke:none;fill-rule:nonzero;fill:rgb(13.729858%,12.159729%,12.548828%);fill-opacity:1;" d="M 286.214844 234.441406 C 287.390625 235.207031 289.070312 235.585938 289.929688 235.585938 C 291.292969 235.585938 292.976562 235.015625 292.976562 233.269531 C 292.976562 230.316406 285.960938 230.570312 285.960938 226.027344 C 285.960938 222.664062 288.46875 221.042969 291.675781 221.042969 C 293.074219 221.042969 294.214844 221.328125 295.390625 221.679688 L 295.136719 224.28125 C 294.46875 223.871094 292.691406 223.457031 291.992188 223.457031 C 290.46875 223.457031 289.136719 224.09375 289.136719 225.425781 C 289.136719 228.730469 296.152344 227.773438 296.152344 232.949219 C 296.152344 236.414062 293.390625 238 290.5 238 C 288.976562 238 287.421875 237.84375 286.054688 237.109375 L 286.214844 234.441406 "/>
<path style=" stroke:none;fill-rule:nonzero;fill:rgb(13.729858%,12.159729%,12.548828%);fill-opacity:1;" d="M 310.058594 224.15625 C 308.917969 223.679688 307.773438 223.457031 306.820312 223.457031 C 303.488281 223.457031 301.613281 226.441406 301.613281 229.523438 C 301.613281 232.410156 303.167969 235.585938 307.011719 235.585938 C 308.027344 235.585938 309.296875 235.269531 310.21875 234.667969 L 310.441406 237.332031 C 309.203125 237.90625 307.773438 238 306.695312 238 C 301.804688 238 298.4375 234.15625 298.4375 229.523438 C 298.4375 224.601562 301.738281 221.042969 306.695312 221.042969 C 307.898438 221.042969 309.457031 221.328125 310.3125 221.679688 L 310.058594 224.15625 "/>
<path style=" stroke:none;fill-rule:nonzero;fill:rgb(13.729858%,12.159729%,12.548828%);fill-opacity:1;" d="M 313.867188 213.804688 L 316.851562 213.804688 L 316.851562 223.742188 L 316.917969 223.742188 C 317.996094 222.027344 319.871094 221.042969 322.125 221.042969 C 326.316406 221.042969 328.1875 223.648438 328.1875 227.996094 L 328.1875 237.621094 L 325.203125 237.621094 L 325.203125 229.234375 C 325.203125 225.457031 324.378906 223.617188 321.773438 223.457031 C 318.375 223.457031 316.851562 226.1875 316.851562 230.125 L 316.851562 237.621094 L 313.867188 237.621094 L 313.867188 213.804688 "/>
<path style=" stroke:none;fill-rule:nonzero;fill:rgb(13.729858%,12.159729%,12.548828%);fill-opacity:1;" d="M 342.886719 229.902344 C 342.253906 229.902344 341.617188 229.839844 340.984375 229.839844 C 339.363281 229.839844 335.363281 230.09375 335.363281 232.949219 C 335.363281 234.667969 337.011719 235.585938 338.378906 235.585938 C 341.332031 235.585938 342.886719 233.746094 342.886719 231.332031 Z M 334.027344 222.566406 C 335.519531 221.679688 337.300781 221.042969 339.363281 221.042969 C 344 221.042969 345.871094 223.332031 345.871094 227.742188 L 345.871094 234.441406 C 345.871094 236.285156 345.9375 237.144531 346 237.621094 L 343.207031 237.621094 L 343.207031 235.523438 L 343.140625 235.523438 C 342.441406 236.507812 340.855469 238 338.125 238 C 334.632812 238 332.1875 236.476562 332.1875 232.949219 C 332.1875 228.886719 336.632812 227.617188 339.710938 227.617188 C 340.886719 227.617188 341.710938 227.617188 342.886719 227.679688 C 342.886719 224.886719 341.871094 223.457031 338.886719 223.457031 C 337.203125 223.457031 335.394531 224.09375 334.1875 225.109375 L 334.027344 222.566406 "/>
<path style=" stroke:none;fill-rule:nonzero;fill:rgb(13.729858%,12.159729%,12.548828%);fill-opacity:1;" d="M 352.855469 223.839844 L 349.046875 223.839844 L 349.046875 221.425781 L 352.855469 221.425781 L 352.855469 219.933594 C 352.855469 215.996094 353.871094 213.421875 358.285156 213.421875 C 359.046875 213.421875 359.683594 213.519531 360.285156 213.613281 L 360.160156 216.027344 C 359.8125 215.898438 359.238281 215.835938 358.730469 215.835938 C 356.160156 215.835938 355.839844 217.488281 355.839844 219.679688 L 355.839844 221.425781 L 360.128906 221.425781 L 360.128906 223.839844 L 355.839844 223.839844 L 355.839844 237.621094 L 352.855469 237.621094 L 352.855469 223.839844 "/>
<path style=" stroke:none;fill-rule:nonzero;fill:rgb(13.729858%,12.159729%,12.548828%);fill-opacity:1;" d="M 371.875 223.839844 L 367.589844 223.839844 L 367.589844 232.695312 C 367.589844 234.570312 368.730469 235.585938 370.097656 235.585938 C 371.019531 235.585938 371.683594 235.300781 372.128906 235.015625 L 372.128906 237.554688 C 371.460938 237.746094 370.542969 238 369.589844 238 C 366.507812 238 364.605469 236.539062 364.605469 233.300781 L 364.605469 223.839844 L 360.953125 223.839844 L 360.953125 221.425781 L 364.605469 221.425781 L 364.605469 217.679688 L 367.589844 216.726562 L 367.589844 221.425781 L 371.875 221.425781 L 371.875 223.839844 "/>
<path style=" stroke:none;fill-rule:nonzero;fill:rgb(13.729858%,12.159729%,12.548828%);fill-opacity:1;" d="M 63.578125 89.4375 C 63.917969 86.890625 64.089844 84.847656 64.089844 82.808594 C 64.089844 72.609375 57.800781 65.300781 45.730469 65.300781 C 32.640625 65.300781 22.609375 76.6875 19.210938 89.4375 Z M 65.621094 139.589844 C 57.289062 141.628906 48.621094 143.15625 39.949219 143.15625 C 18.871094 143.15625 0 134.65625 0 104.058594 C 0 80.089844 16.832031 52.378906 47.429688 52.378906 C 68.339844 52.378906 80.070312 64.960938 80.070312 85.527344 C 80.070312 91.308594 79.390625 96.238281 78.539062 101.339844 L 17.511719 101.339844 C 17.167969 103.210938 17 104.90625 17 106.777344 C 17 124.96875 28.21875 130.238281 43.691406 130.238281 C 51.679688 130.238281 60.347656 128.199219 68.167969 124.96875 L 65.621094 139.589844 "/>
<path style=" stroke:none;fill-rule:nonzero;fill:rgb(13.729858%,12.159729%,12.548828%);fill-opacity:1;" d="M 216.917969 53.636719 L 229.496094 53.636719 L 210.816406 140.566406 L 198.234375 140.566406 L 216.917969 53.636719 "/>
<path style="fill:none;stroke-width:10;stroke-linecap:butt;stroke-linejoin:miter;stroke:rgb(13.729858%,12.159729%,12.548828%);stroke-opacity:1;stroke-miterlimit:4;" d="M 2169.179688 1843.632812 L 2294.960938 1843.632812 L 2108.164062 974.335938 L 1982.34375 974.335938 Z M 2169.179688 1843.632812 " transform="matrix(0.1,0,0,-0.1,0,238)"/>
<path style=" stroke:none;fill-rule:nonzero;fill:rgb(13.729858%,12.159729%,12.548828%);fill-opacity:1;" d="M 289.152344 67.335938 C 285.039062 64.84375 279.933594 63.101562 273.335938 63.101562 C 265.113281 63.101562 256.148438 66.339844 256.148438 76.675781 C 256.148438 91.246094 285.789062 91.371094 285.789062 114.164062 C 285.789062 127.238281 276.695312 142.0625 255.773438 142.0625 C 245.6875 142.0625 238.460938 139.820312 231.488281 137.078125 L 235.472656 125.621094 C 240.578125 128.859375 247.679688 131.101562 253.78125 131.101562 C 266.980469 131.101562 272.585938 122.882812 272.585938 115.65625 C 272.585938 97.972656 242.945312 101.085938 242.945312 76.925781 C 242.945312 61.109375 257.394531 52.140625 271.714844 52.140625 C 278.9375 52.140625 286.039062 53.511719 292.636719 56.253906 L 289.152344 67.335938 "/>
<path style="fill:none;stroke-width:10;stroke-linecap:butt;stroke-linejoin:miter;stroke:rgb(13.729858%,12.159729%,12.548828%);stroke-opacity:1;stroke-miterlimit:4;" d="M 2891.523438 1706.640625 C 2850.390625 1731.5625 2799.335938 1748.984375 2733.359375 1748.984375 C 2651.132812 1748.984375 2561.484375 1716.601562 2561.484375 1613.242188 C 2561.484375 1467.539062 2857.890625 1466.289062 2857.890625 1238.359375 C 2857.890625 1107.617188 2766.953125 959.375 2557.734375 959.375 C 2456.875 959.375 2384.609375 981.796875 2314.882812 1009.21875 L 2354.726562 1123.789062 C 2405.78125 1091.40625 2476.796875 1068.984375 2537.8125 1068.984375 C 2669.804688 1068.984375 2725.859375 1151.171875 2725.859375 1223.4375 C 2725.859375 1400.273438 2429.453125 1369.140625 2429.453125 1610.742188 C 2429.453125 1768.90625 2573.945312 1858.59375 2717.148438 1858.59375 C 2789.375 1858.59375 2860.390625 1844.882812 2926.367188 1817.460938 Z M 2891.523438 1706.640625 " transform="matrix(0.1,0,0,-0.1,0,238)"/>
<g clip-path="url(#clip1)" clip-rule="nonzero">
<path style=" stroke:none;fill-rule:nonzero;fill:rgb(13.729858%,12.159729%,12.548828%);fill-opacity:1;" d="M 370.972656 64.597656 L 343.949219 64.597656 L 327.632812 140.566406 L 315.054688 140.566406 L 331.367188 64.597656 L 304.34375 64.597656 L 306.710938 53.636719 L 373.339844 53.636719 L 370.972656 64.597656 "/>
</g>
<g clip-path="url(#clip2)" clip-rule="nonzero">
<path style="fill:none;stroke-width:10;stroke-linecap:butt;stroke-linejoin:miter;stroke:rgb(13.729858%,12.159729%,12.548828%);stroke-opacity:1;stroke-miterlimit:4;" d="M 3709.726562 1734.023438 L 3439.492188 1734.023438 L 3276.328125 974.335938 L 3150.546875 974.335938 L 3313.671875 1734.023438 L 3043.4375 1734.023438 L 3067.109375 1843.632812 L 3733.398438 1843.632812 Z M 3709.726562 1734.023438 " transform="matrix(0.1,0,0,-0.1,0,238)"/>
</g>
<path style=" stroke:none;fill-rule:nonzero;fill:rgb(92.939758%,10.978699%,14.118958%);fill-opacity:1;" d="M 152.214844 97.230469 L 181.796875 155.441406 L 152.214844 155.441406 L 132.652344 113.214844 L 88.753906 162.121094 L 68.476562 149 L 121.199219 94.128906 L 92.808594 36.871094 L 121.199219 36.871094 L 140.285156 78.621094 L 183.46875 30.429688 L 203.269531 43.074219 L 152.214844 97.230469 "/>
<g clip-path="url(#clip3)" clip-rule="nonzero">
<path style=" stroke:none;fill-rule:nonzero;fill:rgb(74.113464%,73.643494%,73.75946%);fill-opacity:1;" d="M 165.179688 17.140625 C 165.179688 26.074219 157.9375 33.316406 149 33.316406 C 140.0625 33.316406 132.820312 26.074219 132.820312 17.140625 C 132.820312 8.207031 140.0625 0.960938 149 0.960938 C 157.9375 0.960938 165.179688 8.207031 165.179688 17.140625 "/>
</g>
</g>
</svg>
