<?xml version="1.0" encoding="UTF-8"?>
<svg xmlns="http://www.w3.org/2000/svg" xmlns:xlink="http://www.w3.org/1999/xlink" width="284pt" height="142pt" viewBox="0 0 284 142" version="1.1">
<defs>
<clipPath id="clip1">
  <path d="M 239 15 L 283.152344 15 L 283.152344 89 L 239 89 Z M 239 15 "/>
</clipPath>
<clipPath id="clip2">
  <path d="M 0 61 L 105 61 L 105 89 L 0 89 Z M 0 61 "/>
</clipPath>
<clipPath id="clip3">
  <path d="M 104.28125 88.183594 L 19.628906 61.675781 L 0 87.503906 Z M 104.28125 88.183594 "/>
</clipPath>
<clipPath id="clip4">
  <path d="M 104.28125 88.183594 L 19.628906 61.675781 L 0 87.503906 L 104.28125 88.183594 "/>
</clipPath>
<linearGradient id="linear0" gradientUnits="userSpaceOnUse" x1="-0.597366" y1="0" x2="1.166332" y2="0" gradientTransform="matrix(-2.10034,20.7893,-20.7893,-2.10034,54.0308,69.146)">
<stop offset="0" style="stop-color:rgb(8.657837%,17.835999%,40.106201%);stop-opacity:1;"/>
<stop offset="0.25" style="stop-color:rgb(8.657837%,17.835999%,40.106201%);stop-opacity:1;"/>
<stop offset="0.375" style="stop-color:rgb(8.657837%,17.835999%,40.106201%);stop-opacity:1;"/>
<stop offset="0.40625" style="stop-color:rgb(8.657837%,17.835999%,40.106201%);stop-opacity:1;"/>
<stop offset="0.414062" style="stop-color:rgb(8.660889%,17.842102%,40.118408%);stop-opacity:1;"/>
<stop offset="0.417969" style="stop-color:rgb(8.747864%,18.008423%,40.486145%);stop-opacity:1;"/>
<stop offset="0.421875" style="stop-color:rgb(8.831787%,18.170166%,40.841675%);stop-opacity:1;"/>
<stop offset="0.425781" style="stop-color:rgb(8.889771%,18.281555%,41.085815%);stop-opacity:1;"/>
<stop offset="0.429688" style="stop-color:rgb(8.947754%,18.391418%,41.32843%);stop-opacity:1;"/>
<stop offset="0.433594" style="stop-color:rgb(9.031677%,18.553162%,41.68396%);stop-opacity:1;"/>
<stop offset="0.4375" style="stop-color:rgb(9.115601%,18.714905%,42.03949%);stop-opacity:1;"/>
<stop offset="0.441406" style="stop-color:rgb(9.172058%,18.826294%,42.28363%);stop-opacity:1;"/>
<stop offset="0.445312" style="stop-color:rgb(9.230042%,18.937683%,42.527771%);stop-opacity:1;"/>
<stop offset="0.449219" style="stop-color:rgb(9.313965%,19.0979%,42.883301%);stop-opacity:1;"/>
<stop offset="0.453125" style="stop-color:rgb(9.397888%,19.259644%,43.238831%);stop-opacity:1;"/>
<stop offset="0.457031" style="stop-color:rgb(9.455872%,19.371033%,43.482971%);stop-opacity:1;"/>
<stop offset="0.460938" style="stop-color:rgb(9.513855%,19.482422%,43.727112%);stop-opacity:1;"/>
<stop offset="0.464844" style="stop-color:rgb(9.597778%,19.642639%,44.082642%);stop-opacity:1;"/>
<stop offset="0.46875" style="stop-color:rgb(9.681702%,19.804382%,44.436646%);stop-opacity:1;"/>
<stop offset="0.472656" style="stop-color:rgb(9.738159%,19.914246%,44.676208%);stop-opacity:1;"/>
<stop offset="0.476562" style="stop-color:rgb(9.794617%,20.022583%,44.915771%);stop-opacity:1;"/>
<stop offset="0.480469" style="stop-color:rgb(9.8526%,20.133972%,45.159912%);stop-opacity:1;"/>
<stop offset="0.484375" style="stop-color:rgb(9.910583%,20.243835%,45.405579%);stop-opacity:1;"/>
<stop offset="0.488281" style="stop-color:rgb(9.994507%,20.405579%,45.759583%);stop-opacity:1;"/>
<stop offset="0.492188" style="stop-color:rgb(10.076904%,20.567322%,46.115112%);stop-opacity:1;"/>
<stop offset="0.496094" style="stop-color:rgb(10.134888%,20.675659%,46.354675%);stop-opacity:1;"/>
<stop offset="0.5" style="stop-color:rgb(10.191345%,20.785522%,46.594238%);stop-opacity:1;"/>
<stop offset="0.503906" style="stop-color:rgb(10.249329%,20.896912%,46.839905%);stop-opacity:1;"/>
<stop offset="0.507812" style="stop-color:rgb(10.305786%,21.008301%,47.084045%);stop-opacity:1;"/>
<stop offset="0.511719" style="stop-color:rgb(10.389709%,21.168518%,47.439575%);stop-opacity:1;"/>
<stop offset="0.515625" style="stop-color:rgb(10.473633%,21.330261%,47.793579%);stop-opacity:1;"/>
<stop offset="0.519531" style="stop-color:rgb(10.53009%,21.438599%,48.033142%);stop-opacity:1;"/>
<stop offset="0.523438" style="stop-color:rgb(10.586548%,21.548462%,48.272705%);stop-opacity:1;"/>
<stop offset="0.527344" style="stop-color:rgb(10.644531%,21.656799%,48.512268%);stop-opacity:1;"/>
<stop offset="0.53125" style="stop-color:rgb(10.700989%,21.765137%,48.751831%);stop-opacity:1;"/>
<stop offset="0.535156" style="stop-color:rgb(10.758972%,21.876526%,48.997498%);stop-opacity:1;"/>
<stop offset="0.539062" style="stop-color:rgb(10.816956%,21.987915%,49.241638%);stop-opacity:1;"/>
<stop offset="0.542969" style="stop-color:rgb(10.899353%,22.149658%,49.597168%);stop-opacity:1;"/>
<stop offset="0.546875" style="stop-color:rgb(10.983276%,22.309875%,49.951172%);stop-opacity:1;"/>
<stop offset="0.550781" style="stop-color:rgb(11.039734%,22.419739%,50.190735%);stop-opacity:1;"/>
<stop offset="0.554688" style="stop-color:rgb(11.096191%,22.528076%,50.430298%);stop-opacity:1;"/>
<stop offset="0.558594" style="stop-color:rgb(11.154175%,22.637939%,50.669861%);stop-opacity:1;"/>
<stop offset="0.5625" style="stop-color:rgb(11.210632%,22.746277%,50.909424%);stop-opacity:1;"/>
<stop offset="0.566406" style="stop-color:rgb(11.26709%,22.85614%,51.148987%);stop-opacity:1;"/>
<stop offset="0.570312" style="stop-color:rgb(11.323547%,22.964478%,51.38855%);stop-opacity:1;"/>
<stop offset="0.574219" style="stop-color:rgb(11.380005%,23.072815%,51.628113%);stop-opacity:1;"/>
<stop offset="0.578125" style="stop-color:rgb(11.436462%,23.182678%,51.869202%);stop-opacity:1;"/>
<stop offset="0.582031" style="stop-color:rgb(11.49292%,23.291016%,52.108765%);stop-opacity:1;"/>
<stop offset="0.585938" style="stop-color:rgb(11.549377%,23.400879%,52.348328%);stop-opacity:1;"/>
<stop offset="0.589844" style="stop-color:rgb(11.605835%,23.509216%,52.587891%);stop-opacity:1;"/>
<stop offset="0.59375" style="stop-color:rgb(11.663818%,23.617554%,52.827454%);stop-opacity:1;"/>
<stop offset="0.597656" style="stop-color:rgb(11.720276%,23.727417%,53.067017%);stop-opacity:1;"/>
<stop offset="0.601562" style="stop-color:rgb(11.776733%,23.835754%,53.30658%);stop-opacity:1;"/>
<stop offset="0.605469" style="stop-color:rgb(11.833191%,23.945618%,53.547668%);stop-opacity:1;"/>
<stop offset="0.609375" style="stop-color:rgb(11.889648%,24.053955%,53.787231%);stop-opacity:1;"/>
<stop offset="0.613281" style="stop-color:rgb(11.946106%,24.163818%,54.026794%);stop-opacity:1;"/>
<stop offset="0.617188" style="stop-color:rgb(12.002563%,24.272156%,54.266357%);stop-opacity:1;"/>
<stop offset="0.621094" style="stop-color:rgb(12.057495%,24.378967%,54.499817%);stop-opacity:1;"/>
<stop offset="0.625" style="stop-color:rgb(12.113953%,24.484253%,54.734802%);stop-opacity:1;"/>
<stop offset="0.628906" style="stop-color:rgb(12.142944%,24.542236%,54.859924%);stop-opacity:1;"/>
<stop offset="0.632812" style="stop-color:rgb(12.173462%,24.598694%,54.986572%);stop-opacity:1;"/>
<stop offset="0.636719" style="stop-color:rgb(12.229919%,24.708557%,55.226135%);stop-opacity:1;"/>
<stop offset="0.640625" style="stop-color:rgb(12.286377%,24.816895%,55.465698%);stop-opacity:1;"/>
<stop offset="0.644531" style="stop-color:rgb(12.342834%,24.925232%,55.705261%);stop-opacity:1;"/>
<stop offset="0.648438" style="stop-color:rgb(12.399292%,25.035095%,55.944824%);stop-opacity:1;"/>
<stop offset="0.652344" style="stop-color:rgb(12.454224%,25.140381%,56.178284%);stop-opacity:1;"/>
<stop offset="0.65625" style="stop-color:rgb(12.509155%,25.247192%,56.411743%);stop-opacity:1;"/>
<stop offset="0.660156" style="stop-color:rgb(12.539673%,25.305176%,56.538391%);stop-opacity:1;"/>
<stop offset="0.664062" style="stop-color:rgb(12.568665%,25.361633%,56.663513%);stop-opacity:1;"/>
<stop offset="0.667969" style="stop-color:rgb(12.626648%,25.469971%,56.903076%);stop-opacity:1;"/>
<stop offset="0.671875" style="stop-color:rgb(12.683105%,25.579834%,57.142639%);stop-opacity:1;"/>
<stop offset="0.675781" style="stop-color:rgb(12.738037%,25.686646%,57.377625%);stop-opacity:1;"/>
<stop offset="0.679688" style="stop-color:rgb(12.792969%,25.791931%,57.611084%);stop-opacity:1;"/>
<stop offset="0.683594" style="stop-color:rgb(12.823486%,25.849915%,57.737732%);stop-opacity:1;"/>
<stop offset="0.6875" style="stop-color:rgb(12.852478%,25.906372%,57.862854%);stop-opacity:1;"/>
<stop offset="0.691406" style="stop-color:rgb(12.90741%,26.013184%,58.096313%);stop-opacity:1;"/>
<stop offset="0.695312" style="stop-color:rgb(12.962341%,26.118469%,58.329773%);stop-opacity:1;"/>
<stop offset="0.699219" style="stop-color:rgb(12.992859%,26.176453%,58.456421%);stop-opacity:1;"/>
<stop offset="0.703125" style="stop-color:rgb(13.021851%,26.234436%,58.583069%);stop-opacity:1;"/>
<stop offset="0.707031" style="stop-color:rgb(13.078308%,26.339722%,58.816528%);stop-opacity:1;"/>
<stop offset="0.710938" style="stop-color:rgb(13.13324%,26.445007%,59.048462%);stop-opacity:1;"/>
<stop offset="0.714844" style="stop-color:rgb(13.162231%,26.502991%,59.17511%);stop-opacity:1;"/>
<stop offset="0.71875" style="stop-color:rgb(13.192749%,26.560974%,59.301758%);stop-opacity:1;"/>
<stop offset="0.722656" style="stop-color:rgb(13.247681%,26.66626%,59.535217%);stop-opacity:1;"/>
<stop offset="0.726562" style="stop-color:rgb(13.302612%,26.771545%,59.767151%);stop-opacity:1;"/>
<stop offset="0.730469" style="stop-color:rgb(13.33313%,26.829529%,59.893799%);stop-opacity:1;"/>
<stop offset="0.734375" style="stop-color:rgb(13.362122%,26.887512%,60.021973%);stop-opacity:1;"/>
<stop offset="0.738281" style="stop-color:rgb(13.417053%,26.992798%,60.253906%);stop-opacity:1;"/>
<stop offset="0.742188" style="stop-color:rgb(13.471985%,27.099609%,60.48584%);stop-opacity:1;"/>
<stop offset="0.746094" style="stop-color:rgb(13.500977%,27.153015%,60.606384%);stop-opacity:1;"/>
<stop offset="0.75" style="stop-color:rgb(13.528442%,27.207947%,60.726929%);stop-opacity:1;"/>
<stop offset="0.753906" style="stop-color:rgb(13.557434%,27.262878%,60.847473%);stop-opacity:1;"/>
<stop offset="0.757812" style="stop-color:rgb(13.5849%,27.31781%,60.966492%);stop-opacity:1;"/>
<stop offset="0.761719" style="stop-color:rgb(13.615417%,27.374268%,61.09314%);stop-opacity:1;"/>
<stop offset="0.765625" style="stop-color:rgb(13.645935%,27.432251%,61.219788%);stop-opacity:1;"/>
<stop offset="0.769531" style="stop-color:rgb(13.700867%,27.539062%,61.453247%);stop-opacity:1;"/>
<stop offset="0.773438" style="stop-color:rgb(13.755798%,27.644348%,61.685181%);stop-opacity:1;"/>
<stop offset="0.777344" style="stop-color:rgb(13.783264%,27.69928%,61.805725%);stop-opacity:1;"/>
<stop offset="0.78125" style="stop-color:rgb(13.812256%,27.752686%,61.924744%);stop-opacity:1;"/>
<stop offset="0.785156" style="stop-color:rgb(13.839722%,27.807617%,62.045288%);stop-opacity:1;"/>
<stop offset="0.789062" style="stop-color:rgb(13.868713%,27.861023%,62.164307%);stop-opacity:1;"/>
<stop offset="0.792969" style="stop-color:rgb(13.897705%,27.915955%,62.284851%);stop-opacity:1;"/>
<stop offset="0.796875" style="stop-color:rgb(13.925171%,27.970886%,62.405396%);stop-opacity:1;"/>
<stop offset="0.800781" style="stop-color:rgb(13.954163%,28.025818%,62.52594%);stop-opacity:1;"/>
<stop offset="0.804688" style="stop-color:rgb(13.981628%,28.079224%,62.644958%);stop-opacity:1;"/>
<stop offset="0.808594" style="stop-color:rgb(14.01062%,28.134155%,62.765503%);stop-opacity:1;"/>
<stop offset="0.8125" style="stop-color:rgb(14.038086%,28.189087%,62.884521%);stop-opacity:1;"/>
<stop offset="0.816406" style="stop-color:rgb(14.067078%,28.244019%,63.005066%);stop-opacity:1;"/>
<stop offset="0.820312" style="stop-color:rgb(14.094543%,28.297424%,63.124084%);stop-opacity:1;"/>
<stop offset="0.824219" style="stop-color:rgb(14.123535%,28.352356%,63.244629%);stop-opacity:1;"/>
<stop offset="0.828125" style="stop-color:rgb(14.152527%,28.407288%,63.363647%);stop-opacity:1;"/>
<stop offset="0.835938" style="stop-color:rgb(14.178467%,28.457642%,63.475037%);stop-opacity:1;"/>
<stop offset="0.84375" style="stop-color:rgb(14.205933%,28.512573%,63.595581%);stop-opacity:1;"/>
<stop offset="0.847656" style="stop-color:rgb(14.23645%,28.570557%,63.723755%);stop-opacity:1;"/>
<stop offset="0.851562" style="stop-color:rgb(14.265442%,28.625488%,63.844299%);stop-opacity:1;"/>
<stop offset="0.859375" style="stop-color:rgb(14.291382%,28.675842%,63.955688%);stop-opacity:1;"/>
<stop offset="0.867188" style="stop-color:rgb(14.320374%,28.729248%,64.074707%);stop-opacity:1;"/>
<stop offset="0.875" style="stop-color:rgb(14.347839%,28.78418%,64.195251%);stop-opacity:1;"/>
<stop offset="0.882812" style="stop-color:rgb(14.376831%,28.839111%,64.31427%);stop-opacity:1;"/>
<stop offset="0.890625" style="stop-color:rgb(14.404297%,28.894043%,64.434814%);stop-opacity:1;"/>
<stop offset="0.90625" style="stop-color:rgb(14.431763%,28.944397%,64.546204%);stop-opacity:1;"/>
<stop offset="0.9375" style="stop-color:rgb(14.431763%,28.944397%,64.546204%);stop-opacity:1;"/>
<stop offset="1" style="stop-color:rgb(14.431763%,28.944397%,64.546204%);stop-opacity:1;"/>
</linearGradient>
<clipPath id="clip5">
  <path d="M 22 14 L 107 14 L 107 86 L 22 86 Z M 22 14 "/>
</clipPath>
<clipPath id="clip6">
  <path d="M 106.882812 85.765625 L 53.496094 14.953125 L 22.636719 24.332031 Z M 106.882812 85.765625 "/>
</clipPath>
<clipPath id="clip7">
  <path d="M 106.882812 85.765625 L 53.496094 14.953125 L 22.636719 24.332031 L 106.882812 85.765625 "/>
</clipPath>
<linearGradient id="linear1" gradientUnits="userSpaceOnUse" x1="-2.655684" y1="0" x2="2.820903" y2="0" gradientTransform="matrix(10.29,-16.1704,16.1704,10.29,66.0342,53.0474)">
<stop offset="0" style="stop-color:rgb(92.939758%,10.978699%,14.118958%);stop-opacity:1;"/>
<stop offset="0.5" style="stop-color:rgb(92.939758%,10.978699%,14.118958%);stop-opacity:1;"/>
<stop offset="0.515625" style="stop-color:rgb(92.939758%,10.978699%,14.118958%);stop-opacity:1;"/>
<stop offset="0.519531" style="stop-color:rgb(92.784119%,10.957336%,14.091492%);stop-opacity:1;"/>
<stop offset="0.523438" style="stop-color:rgb(92.626953%,10.935974%,14.064026%);stop-opacity:1;"/>
<stop offset="0.527344" style="stop-color:rgb(92.396545%,10.903931%,14.022827%);stop-opacity:1;"/>
<stop offset="0.53125" style="stop-color:rgb(92.166138%,10.871887%,13.981628%);stop-opacity:1;"/>
<stop offset="0.535156" style="stop-color:rgb(91.870117%,10.832214%,13.929749%);stop-opacity:1;"/>
<stop offset="0.539062" style="stop-color:rgb(91.574097%,10.791016%,13.876343%);stop-opacity:1;"/>
<stop offset="0.542969" style="stop-color:rgb(91.165161%,10.734558%,13.804626%);stop-opacity:1;"/>
<stop offset="0.546875" style="stop-color:rgb(90.753174%,10.678101%,13.731384%);stop-opacity:1;"/>
<stop offset="0.550781" style="stop-color:rgb(90.41748%,10.630798%,13.671875%);stop-opacity:1;"/>
<stop offset="0.554687" style="stop-color:rgb(90.080261%,10.585022%,13.612366%);stop-opacity:1;"/>
<stop offset="0.558594" style="stop-color:rgb(89.627075%,10.522461%,13.531494%);stop-opacity:1;"/>
<stop offset="0.5625" style="stop-color:rgb(89.175415%,10.4599%,13.452148%);stop-opacity:1;"/>
<stop offset="0.566406" style="stop-color:rgb(88.725281%,10.397339%,13.371277%);stop-opacity:1;"/>
<stop offset="0.570312" style="stop-color:rgb(88.273621%,10.336304%,13.291931%);stop-opacity:1;"/>
<stop offset="0.574219" style="stop-color:rgb(87.666321%,10.25238%,13.183594%);stop-opacity:1;"/>
<stop offset="0.578125" style="stop-color:rgb(87.057495%,10.168457%,13.075256%);stop-opacity:1;"/>
<stop offset="0.582031" style="stop-color:rgb(86.607361%,10.105896%,12.995911%);stop-opacity:1;"/>
<stop offset="0.585937" style="stop-color:rgb(86.154175%,10.043335%,12.916565%);stop-opacity:1;"/>
<stop offset="0.589844" style="stop-color:rgb(85.546875%,9.959412%,12.808228%);stop-opacity:1;"/>
<stop offset="0.59375" style="stop-color:rgb(84.939575%,9.875488%,12.69989%);stop-opacity:1;"/>
<stop offset="0.597656" style="stop-color:rgb(84.33075%,9.791565%,12.593079%);stop-opacity:1;"/>
<stop offset="0.601562" style="stop-color:rgb(83.72345%,9.707642%,12.484741%);stop-opacity:1;"/>
<stop offset="0.605469" style="stop-color:rgb(83.11615%,9.623718%,12.376404%);stop-opacity:1;"/>
<stop offset="0.609375" style="stop-color:rgb(82.50885%,9.541321%,12.269592%);stop-opacity:1;"/>
<stop offset="0.613281" style="stop-color:rgb(81.744385%,9.434509%,12.133789%);stop-opacity:1;"/>
<stop offset="0.617187" style="stop-color:rgb(80.979919%,9.329224%,11.997986%);stop-opacity:1;"/>
<stop offset="0.621094" style="stop-color:rgb(80.340576%,9.242249%,11.885071%);stop-opacity:1;"/>
<stop offset="0.625" style="stop-color:rgb(79.701233%,9.153748%,11.77063%);stop-opacity:1;"/>
<stop offset="0.628906" style="stop-color:rgb(78.970337%,9.05304%,11.64093%);stop-opacity:1;"/>
<stop offset="0.632812" style="stop-color:rgb(78.236389%,8.950806%,11.51123%);stop-opacity:1;"/>
<stop offset="0.636719" style="stop-color:rgb(77.627563%,8.866882%,11.402893%);stop-opacity:1;"/>
<stop offset="0.640625" style="stop-color:rgb(77.017212%,8.782959%,11.294556%);stop-opacity:1;"/>
<stop offset="0.65625" style="stop-color:rgb(77.017212%,8.782959%,11.294556%);stop-opacity:1;"/>
<stop offset="0.6875" style="stop-color:rgb(77.017212%,8.782959%,11.294556%);stop-opacity:1;"/>
<stop offset="0.75" style="stop-color:rgb(77.017212%,8.782959%,11.294556%);stop-opacity:1;"/>
<stop offset="1" style="stop-color:rgb(77.017212%,8.782959%,11.294556%);stop-opacity:1;"/>
</linearGradient>
<clipPath id="clip8">
  <path d="M 46 0.519531 L 109 0.519531 L 109 85 L 46 85 Z M 46 0.519531 "/>
</clipPath>
<clipPath id="clip9">
  <path d="M 6 35 L 106 35 L 106 87 L 6 87 Z M 6 35 "/>
</clipPath>
<clipPath id="clip10">
  <path d="M 105.511719 86.9375 L 33.050781 35.808594 L 6.527344 54.164062 Z M 105.511719 86.9375 "/>
</clipPath>
<clipPath id="clip11">
  <path d="M 105.511719 86.9375 L 33.050781 35.808594 L 6.527344 54.164062 L 105.511719 86.9375 "/>
</clipPath>
<linearGradient id="linear2" gradientUnits="userSpaceOnUse" x1="-1.705978" y1="0" x2="2.791375" y2="0" gradientTransform="matrix(7.77014,-17.6408,17.6408,7.77014,55.189,72.439)">
<stop offset="0" style="stop-color:rgb(94.66095%,80.836487%,1.628113%);stop-opacity:1;"/>
<stop offset="0.25" style="stop-color:rgb(94.66095%,80.836487%,1.628113%);stop-opacity:1;"/>
<stop offset="0.375" style="stop-color:rgb(94.66095%,80.836487%,1.628113%);stop-opacity:1;"/>
<stop offset="0.40625" style="stop-color:rgb(94.66095%,80.836487%,1.628113%);stop-opacity:1;"/>
<stop offset="0.421875" style="stop-color:rgb(94.66095%,80.836487%,1.628113%);stop-opacity:1;"/>
<stop offset="0.429687" style="stop-color:rgb(94.508362%,80.705261%,1.625061%);stop-opacity:1;"/>
<stop offset="0.4375" style="stop-color:rgb(94.335938%,80.555725%,1.622009%);stop-opacity:1;"/>
<stop offset="0.441406" style="stop-color:rgb(94.023132%,80.285645%,1.615906%);stop-opacity:1;"/>
<stop offset="0.445312" style="stop-color:rgb(93.727112%,80.032349%,1.609802%);stop-opacity:1;"/>
<stop offset="0.453125" style="stop-color:rgb(93.571472%,79.896545%,1.60675%);stop-opacity:1;"/>
<stop offset="0.457031" style="stop-color:rgb(93.17627%,79.556274%,1.599121%);stop-opacity:1;"/>
<stop offset="0.460937" style="stop-color:rgb(92.938232%,79.351807%,1.594543%);stop-opacity:1;"/>
<stop offset="0.464844" style="stop-color:rgb(92.689514%,79.136658%,1.589966%);stop-opacity:1;"/>
<stop offset="0.46875" style="stop-color:rgb(92.442322%,78.923035%,1.585388%);stop-opacity:1;"/>
<stop offset="0.472656" style="stop-color:rgb(92.173767%,78.692627%,1.579285%);stop-opacity:1;"/>
<stop offset="0.476562" style="stop-color:rgb(91.903687%,78.460693%,1.574707%);stop-opacity:1;"/>
<stop offset="0.480469" style="stop-color:rgb(91.560364%,78.163147%,1.567078%);stop-opacity:1;"/>
<stop offset="0.484375" style="stop-color:rgb(91.215515%,77.865601%,1.560974%);stop-opacity:1;"/>
<stop offset="0.488281" style="stop-color:rgb(91.014099%,77.693176%,1.556396%);stop-opacity:1;"/>
<stop offset="0.492187" style="stop-color:rgb(90.811157%,77.5177%,1.553345%);stop-opacity:1;"/>
<stop offset="0.496094" style="stop-color:rgb(90.483093%,77.235413%,1.547241%);stop-opacity:1;"/>
<stop offset="0.5" style="stop-color:rgb(90.155029%,76.951599%,1.539612%);stop-opacity:1;"/>
<stop offset="0.503906" style="stop-color:rgb(89.825439%,76.669312%,1.533508%);stop-opacity:1;"/>
<stop offset="0.507812" style="stop-color:rgb(89.49585%,76.383972%,1.527405%);stop-opacity:1;"/>
<stop offset="0.511719" style="stop-color:rgb(89.167786%,76.101685%,1.521301%);stop-opacity:1;"/>
<stop offset="0.515625" style="stop-color:rgb(88.838196%,75.817871%,1.515198%);stop-opacity:1;"/>
<stop offset="0.519531" style="stop-color:rgb(88.508606%,75.534058%,1.507568%);stop-opacity:1;"/>
<stop offset="0.523438" style="stop-color:rgb(88.179016%,75.250244%,1.501465%);stop-opacity:1;"/>
<stop offset="0.527344" style="stop-color:rgb(87.802124%,74.925232%,1.493835%);stop-opacity:1;"/>
<stop offset="0.53125" style="stop-color:rgb(87.423706%,74.598694%,1.486206%);stop-opacity:1;"/>
<stop offset="0.535156" style="stop-color:rgb(86.97052%,74.208069%,1.478577%);stop-opacity:1;"/>
<stop offset="0.539062" style="stop-color:rgb(86.517334%,73.817444%,1.469421%);stop-opacity:1;"/>
<stop offset="0.542969" style="stop-color:rgb(86.18927%,73.535156%,1.463318%);stop-opacity:1;"/>
<stop offset="0.546875" style="stop-color:rgb(85.85968%,73.249817%,1.455688%);stop-opacity:1;"/>
<stop offset="0.550781" style="stop-color:rgb(85.531616%,72.967529%,1.449585%);stop-opacity:1;"/>
<stop offset="0.554687" style="stop-color:rgb(85.2005%,72.683716%,1.443481%);stop-opacity:1;"/>
<stop offset="0.558594" style="stop-color:rgb(84.701538%,72.251892%,1.434326%);stop-opacity:1;"/>
<stop offset="0.5625" style="stop-color:rgb(84.199524%,71.820068%,1.423645%);stop-opacity:1;"/>
<stop offset="0.566406" style="stop-color:rgb(83.87146%,71.536255%,1.417542%);stop-opacity:1;"/>
<stop offset="0.570312" style="stop-color:rgb(83.54187%,71.252441%,1.411438%);stop-opacity:1;"/>
<stop offset="0.574219" style="stop-color:rgb(83.070374%,70.846558%,1.402283%);stop-opacity:1;"/>
<stop offset="0.578125" style="stop-color:rgb(82.600403%,70.440674%,1.393127%);stop-opacity:1;"/>
<stop offset="0.582031" style="stop-color:rgb(82.240295%,70.13092%,1.385498%);stop-opacity:1;"/>
<stop offset="0.585937" style="stop-color:rgb(81.880188%,69.819641%,1.377869%);stop-opacity:1;"/>
<stop offset="0.59375" style="stop-color:rgb(81.723022%,69.685364%,1.374817%);stop-opacity:1;"/>
<stop offset="0.625" style="stop-color:rgb(81.565857%,69.549561%,1.371765%);stop-opacity:1;"/>
<stop offset="0.75" style="stop-color:rgb(81.565857%,69.549561%,1.371765%);stop-opacity:1;"/>
<stop offset="1" style="stop-color:rgb(81.565857%,69.549561%,1.371765%);stop-opacity:1;"/>
</linearGradient>
</defs>
<g id="surface1">
<path style=" stroke:none;fill-rule:nonzero;fill:rgb(14.445496%,28.90625%,64.517212%);fill-opacity:1;" d="M 165.378906 88.171875 L 121.09375 88.171875 C 120.214844 88.171875 119.121094 87.953125 119.121094 86.199219 L 119.121094 17.03125 C 119.121094 15.277344 120.214844 15.058594 121.09375 15.058594 L 163.1875 15.058594 C 164.0625 15.058594 165.15625 15.277344 165.15625 17.03125 L 165.15625 25.910156 C 165.15625 27.664062 164.0625 27.882812 163.1875 27.882812 L 137.753906 27.882812 C 137.316406 27.882812 136.660156 28.105469 136.660156 29.199219 L 136.660156 42.570312 C 136.660156 43.558594 137.316406 43.886719 137.753906 43.886719 L 157.597656 43.886719 C 158.472656 43.886719 159.566406 44.105469 159.566406 45.859375 L 159.566406 54.742188 C 159.566406 56.492188 158.472656 56.710938 157.597656 56.710938 L 137.753906 56.710938 C 137.316406 56.710938 136.660156 56.933594 136.660156 58.027344 L 136.660156 74.035156 C 136.660156 75.015625 137.316406 75.347656 137.753906 75.347656 L 165.378906 75.347656 C 166.253906 75.347656 167.351562 75.566406 167.351562 77.320312 L 167.351562 86.199219 C 167.351562 87.953125 166.253906 88.171875 165.378906 88.171875 "/>
<path style=" stroke:none;fill-rule:nonzero;fill:rgb(14.445496%,28.90625%,64.517212%);fill-opacity:1;" d="M 197.945312 89.261719 C 185.777344 89.261719 179.640625 86.300781 177.992188 85.203125 C 176.898438 84.546875 176.679688 83.78125 176.679688 82.464844 L 176.679688 73.804688 C 176.679688 72.929688 176.898438 72.050781 178.214844 72.050781 C 179.199219 72.050781 179.75 72.492188 180.515625 72.929688 C 182.378906 74.023438 187.421875 76.875 196.082031 76.875 C 202 76.875 207.589844 75.886719 207.589844 69.640625 C 207.589844 65.367188 204.960938 63.613281 201.671875 61.640625 L 189.285156 53.964844 C 185.117188 51.335938 177.992188 46.730469 177.992188 34.34375 C 177.992188 18.121094 192.136719 14.394531 204.519531 14.394531 C 210.769531 14.394531 217.457031 15.601562 221.949219 18.339844 C 223.042969 19 223.265625 19.765625 223.265625 21.082031 L 223.265625 29.960938 C 223.265625 30.835938 223.042969 31.714844 221.730469 31.714844 C 220.636719 31.714844 220.085938 31.164062 219.210938 30.726562 C 214.058594 27.988281 210.769531 26.671875 204.300781 26.671875 C 199.480469 26.671875 194.4375 27.878906 194.4375 33.246094 C 194.4375 37.304688 197.179688 39.167969 200.464844 40.921875 L 210.222656 46.292969 C 218.773438 51.007812 224.25 55.5 224.25 67.558594 C 224.25 83.34375 212.523438 89.261719 197.945312 89.261719 "/>
<g clip-path="url(#clip1)" clip-rule="nonzero">
<path style=" stroke:none;fill-rule:nonzero;fill:rgb(14.445496%,28.90625%,64.517212%);fill-opacity:1;" d="M 281.179688 28.097656 L 257.941406 28.097656 C 257.503906 28.097656 256.847656 28.316406 256.847656 29.410156 L 256.847656 44.976562 C 256.847656 45.964844 257.503906 46.292969 257.941406 46.292969 L 276.90625 46.292969 C 277.78125 46.292969 278.878906 46.511719 278.878906 48.265625 L 278.878906 57.144531 C 278.878906 58.898438 277.78125 59.117188 276.90625 59.117188 L 257.941406 59.117188 C 257.503906 59.117188 256.847656 59.335938 256.847656 60.433594 L 256.847656 86.410156 C 256.847656 88.164062 255.75 88.382812 254.875 88.382812 L 241.28125 88.382812 C 240.402344 88.382812 239.308594 88.164062 239.308594 86.410156 L 239.308594 17.246094 C 239.308594 15.492188 240.402344 15.273438 241.28125 15.273438 L 281.179688 15.273438 C 282.058594 15.273438 283.152344 15.492188 283.152344 17.246094 L 283.152344 26.121094 C 283.152344 27.878906 282.058594 28.097656 281.179688 28.097656 "/>
</g>
<path style=" stroke:none;fill-rule:nonzero;fill:rgb(13.729858%,12.159729%,12.548828%);fill-opacity:1;" d="M 15.3125 115.726562 L 6.972656 115.726562 C 6.808594 115.726562 6.601562 115.683594 6.601562 115.351562 L 6.601562 102.328125 C 6.601562 101.996094 6.808594 101.957031 6.972656 101.957031 L 14.902344 101.957031 C 15.066406 101.957031 15.273438 101.996094 15.273438 102.328125 L 15.273438 103.996094 C 15.273438 104.328125 15.066406 104.371094 14.902344 104.371094 L 10.109375 104.371094 C 10.027344 104.371094 9.90625 104.410156 9.90625 104.617188 L 9.90625 107.136719 C 9.90625 107.320312 10.027344 107.382812 10.109375 107.382812 L 13.847656 107.382812 C 14.011719 107.382812 14.21875 107.425781 14.21875 107.753906 L 14.21875 109.429688 C 14.21875 109.757812 14.011719 109.800781 13.847656 109.800781 L 10.109375 109.800781 C 10.027344 109.800781 9.90625 109.839844 9.90625 110.046875 L 9.90625 113.0625 C 9.90625 113.246094 10.027344 113.308594 10.109375 113.308594 L 15.3125 113.308594 C 15.480469 113.308594 15.683594 113.351562 15.683594 113.679688 L 15.683594 115.351562 C 15.683594 115.683594 15.480469 115.726562 15.3125 115.726562 "/>
<path style=" stroke:none;fill-rule:nonzero;fill:rgb(13.729858%,12.159729%,12.548828%);fill-opacity:1;" d="M 28.464844 115.726562 L 26.132812 115.726562 C 25.886719 115.726562 25.84375 115.601562 25.84375 115.457031 C 25.84375 115.375 25.84375 115.3125 25.636719 115.3125 C 25.390625 115.3125 25.058594 115.414062 24.875 115.496094 C 24.273438 115.746094 23.425781 115.890625 22.789062 115.890625 C 21.609375 115.890625 20.558594 115.601562 19.898438 114.878906 C 19.21875 114.136719 19.132812 113.230469 19.132812 111.535156 L 19.132812 105.609375 C 19.132812 105.277344 19.339844 105.234375 19.503906 105.234375 L 21.859375 105.234375 C 22.023438 105.234375 22.230469 105.277344 22.230469 105.609375 L 22.230469 111.367188 C 22.230469 112.195312 22.292969 112.730469 22.5625 113.082031 C 22.871094 113.472656 23.367188 113.640625 24.027344 113.640625 C 24.378906 113.640625 24.808594 113.578125 25.121094 113.433594 C 25.535156 113.246094 25.738281 112.960938 25.738281 112.441406 L 25.738281 105.609375 C 25.738281 105.277344 25.945312 105.234375 26.109375 105.234375 L 28.464844 105.234375 C 28.628906 105.234375 28.835938 105.277344 28.835938 105.609375 L 28.835938 115.351562 C 28.835938 115.683594 28.628906 115.726562 28.464844 115.726562 "/>
<path style=" stroke:none;fill-rule:nonzero;fill:rgb(13.729858%,12.159729%,12.548828%);fill-opacity:1;" d="M 39.632812 107.777344 C 39.324219 107.777344 39.160156 107.613281 38.0625 107.613281 C 36.414062 107.613281 36.207031 108.480469 36.207031 109.242188 L 36.207031 115.351562 C 36.207031 115.683594 36 115.726562 35.835938 115.726562 L 33.480469 115.726562 C 33.316406 115.726562 33.109375 115.683594 33.109375 115.351562 L 33.109375 105.609375 C 33.109375 105.277344 33.316406 105.234375 33.480469 105.234375 L 35.773438 105.234375 C 36.019531 105.234375 36.0625 105.359375 36.0625 105.507812 L 36.0625 105.671875 C 36.0625 105.773438 36.164062 105.855469 36.289062 105.855469 C 36.886719 105.855469 37.34375 105.070312 38.890625 105.070312 C 39.796875 105.070312 39.921875 105.402344 39.921875 105.75 L 39.921875 107.464844 C 39.921875 107.652344 39.839844 107.777344 39.632812 107.777344 "/>
<path style=" stroke:none;fill-rule:nonzero;fill:rgb(13.729858%,12.159729%,12.548828%);fill-opacity:1;" d="M 47.644531 107.136719 C 45.785156 107.136719 45.433594 108.746094 45.433594 110.5625 C 45.433594 112.339844 45.804688 113.828125 47.664062 113.828125 C 49.523438 113.828125 49.871094 112.214844 49.871094 110.398438 C 49.871094 108.625 49.503906 107.136719 47.644531 107.136719 Z M 47.644531 115.914062 C 44.070312 115.914062 42.191406 113.785156 42.191406 110.523438 C 42.191406 107.363281 43.96875 105.050781 47.664062 105.050781 C 51.234375 105.050781 53.113281 107.175781 53.113281 110.4375 C 53.113281 113.597656 51.339844 115.914062 47.644531 115.914062 "/>
<path style=" stroke:none;fill-rule:nonzero;fill:rgb(13.729858%,12.159729%,12.548828%);fill-opacity:1;" d="M 61.496094 107.261719 C 61.164062 107.261719 60.835938 107.300781 60.546875 107.425781 C 60.09375 107.632812 59.824219 107.820312 59.824219 108.585938 L 59.824219 112.605469 C 59.824219 113.167969 60.09375 113.367188 60.546875 113.558594 C 60.835938 113.679688 61.164062 113.722656 61.496094 113.722656 C 62.425781 113.722656 64.078125 113.390625 64.078125 110.398438 C 64.078125 108.480469 63.375 107.261719 61.496094 107.261719 Z M 62.363281 115.914062 C 60.898438 115.914062 60.21875 115.351562 60.011719 115.351562 C 59.886719 115.351562 59.824219 115.457031 59.824219 115.621094 L 59.824219 119.5625 C 59.824219 119.894531 59.617188 119.9375 59.453125 119.9375 L 57.097656 119.9375 C 56.933594 119.9375 56.726562 119.894531 56.726562 119.5625 L 56.726562 105.609375 C 56.726562 105.277344 56.933594 105.234375 57.097656 105.234375 L 59.390625 105.234375 C 59.636719 105.234375 59.679688 105.359375 59.679688 105.507812 C 59.679688 105.589844 59.699219 105.648438 59.90625 105.648438 C 60.359375 105.648438 60.980469 105.050781 62.550781 105.050781 C 65.585938 105.050781 67.320312 107.097656 67.320312 110.359375 C 67.320312 113.972656 65.335938 115.914062 62.363281 115.914062 "/>
<path style=" stroke:none;fill-rule:nonzero;fill:rgb(13.729858%,12.159729%,12.548828%);fill-opacity:1;" d="M 77.164062 103.960938 C 76.359375 103.960938 75.886719 103.609375 75.886719 102.738281 C 75.886719 101.890625 76.382812 101.542969 77.207031 101.542969 C 78.011719 101.542969 78.488281 101.890625 78.488281 102.757812 C 78.488281 103.609375 77.992188 103.960938 77.164062 103.960938 Z M 76.589844 110.628906 C 76.589844 110.480469 76.546875 110.417969 76.421875 110.417969 C 76.277344 110.417969 76.277344 110.4375 76.09375 110.5 L 74.914062 110.933594 C 74.253906 111.183594 73.46875 111.472656 73.46875 112.503906 C 73.46875 113.433594 73.945312 113.828125 75.019531 113.828125 C 75.410156 113.828125 75.96875 113.679688 76.175781 113.515625 C 76.382812 113.351562 76.589844 113.167969 76.589844 112.628906 Z M 73.492188 103.960938 C 72.683594 103.960938 72.210938 103.609375 72.210938 102.738281 C 72.210938 101.890625 72.707031 101.542969 73.53125 101.542969 C 74.335938 101.542969 74.8125 101.890625 74.8125 102.757812 C 74.8125 103.609375 74.316406 103.960938 73.492188 103.960938 Z M 79.230469 115.726562 L 77.023438 115.726562 C 76.773438 115.726562 76.730469 115.601562 76.730469 115.457031 C 76.730469 115.375 76.730469 115.3125 76.527344 115.3125 C 76.074219 115.3125 75.328125 115.890625 73.761719 115.890625 C 70.953125 115.890625 70.3125 114.238281 70.3125 112.8125 C 70.3125 110.851562 71.34375 110.007812 73.574219 109.324219 L 75.90625 108.625 C 76.257812 108.519531 76.589844 108.460938 76.589844 108.042969 L 76.589844 107.960938 C 76.589844 107.382812 76.132812 107.117188 74.667969 107.117188 C 72.914062 107.117188 71.859375 107.753906 71.632812 107.878906 C 71.507812 107.941406 71.449219 107.984375 71.300781 107.984375 C 71.117188 107.984375 71.035156 107.839844 71.035156 107.652344 L 71.035156 106.3125 C 71.035156 106.066406 71.054688 105.898438 71.261719 105.773438 C 72.066406 105.257812 73.925781 105.050781 75.164062 105.050781 C 77.742188 105.050781 78.550781 105.855469 78.796875 106.105469 C 79.355469 106.664062 79.601562 107.363281 79.601562 108.789062 L 79.601562 115.351562 C 79.601562 115.683594 79.394531 115.726562 79.230469 115.726562 "/>
<path style=" stroke:none;fill-rule:nonzero;fill:rgb(13.729858%,12.159729%,12.548828%);fill-opacity:1;" d="M 86.496094 115.726562 L 84.144531 115.726562 C 83.976562 115.726562 83.773438 115.683594 83.773438 115.351562 L 83.773438 105.609375 C 83.773438 105.277344 83.976562 105.234375 84.144531 105.234375 L 86.496094 105.234375 C 86.660156 105.234375 86.867188 105.296875 86.867188 105.628906 L 86.867188 115.351562 C 86.867188 115.683594 86.660156 115.726562 86.496094 115.726562 Z M 85.320312 103.855469 C 84.207031 103.855469 83.585938 103.355469 83.585938 102.472656 C 83.585938 101.601562 84.226562 101.105469 85.320312 101.105469 C 86.433594 101.105469 87.054688 101.601562 87.054688 102.492188 C 87.054688 103.355469 86.414062 103.855469 85.320312 103.855469 "/>
<path style=" stroke:none;fill-rule:nonzero;fill:rgb(13.729858%,12.159729%,12.548828%);fill-opacity:1;" d="M 93.90625 115.890625 C 91.90625 115.890625 90.957031 115.4375 90.75 115.273438 C 90.542969 115.125 90.523438 115 90.523438 114.734375 L 90.523438 113.472656 C 90.523438 113.308594 90.566406 113.144531 90.8125 113.144531 C 90.957031 113.144531 90.996094 113.1875 91.121094 113.246094 C 91.84375 113.640625 92.773438 113.84375 93.785156 113.84375 C 94.425781 113.84375 95.0625 113.722656 95.0625 113.0625 C 95.0625 112.480469 94.507812 112.253906 94.136719 112.050781 L 92.792969 111.265625 C 91.554688 110.542969 90.730469 109.921875 90.730469 108.355469 C 90.730469 106.003906 92.523438 105.050781 94.695312 105.050781 C 95.929688 105.050781 97.128906 105.339844 97.542969 105.648438 C 97.746094 105.792969 97.746094 105.917969 97.746094 106.164062 L 97.746094 107.464844 C 97.746094 107.632812 97.707031 107.796875 97.460938 107.796875 C 97.316406 107.796875 97.253906 107.753906 97.128906 107.691406 C 96.53125 107.363281 95.929688 107.097656 94.980469 107.097656 C 94.320312 107.097656 93.617188 107.199219 93.617188 107.878906 C 93.617188 108.394531 94.136719 108.625 94.507812 108.828125 L 95.808594 109.574219 C 96.984375 110.234375 97.953125 110.976562 97.953125 112.585938 C 97.953125 114.464844 96.59375 115.890625 93.90625 115.890625 "/>
<path style=" stroke:none;fill-rule:nonzero;fill:rgb(13.729858%,12.159729%,12.548828%);fill-opacity:1;" d="M 109.703125 115.273438 C 109.1875 115.664062 107.574219 115.890625 106.398438 115.890625 C 101.566406 115.890625 100.945312 112.441406 100.945312 110.585938 C 100.945312 108.625 101.648438 105.050781 106.667969 105.050781 C 107.78125 105.050781 109.308594 105.339844 109.722656 105.648438 C 109.929688 105.792969 109.929688 105.917969 109.929688 106.164062 L 109.929688 107.632812 C 109.929688 107.796875 109.886719 107.960938 109.640625 107.960938 C 109.496094 107.960938 109.433594 107.921875 109.308594 107.859375 C 108.546875 107.445312 108.050781 107.261719 107.058594 107.261719 C 104.746094 107.261719 104.1875 108.914062 104.1875 110.585938 C 104.1875 112.253906 104.894531 113.679688 106.9375 113.679688 C 107.925781 113.679688 108.605469 113.472656 109.328125 113.082031 C 109.453125 113.019531 109.496094 112.980469 109.640625 112.980469 C 109.867188 112.980469 109.929688 113.144531 109.929688 113.308594 L 109.929688 114.734375 C 109.929688 115 109.90625 115.125 109.703125 115.273438 "/>
<path style=" stroke:none;fill-rule:nonzero;fill:rgb(13.729858%,12.159729%,12.548828%);fill-opacity:1;" d="M 123.019531 115.726562 L 120.664062 115.726562 C 120.496094 115.726562 120.292969 115.683594 120.292969 115.351562 L 120.292969 109.59375 C 120.292969 108.769531 120.210938 108.253906 119.941406 107.902344 C 119.632812 107.507812 119.15625 107.320312 118.496094 107.320312 C 118.144531 107.320312 117.710938 107.382812 117.402344 107.527344 C 116.988281 107.714844 116.78125 108.003906 116.78125 108.519531 L 116.78125 115.351562 C 116.78125 115.726562 116.515625 115.726562 116.410156 115.726562 L 114.058594 115.726562 C 113.953125 115.726562 113.6875 115.726562 113.6875 115.351562 L 113.6875 101.460938 C 113.6875 101.085938 113.953125 101.085938 114.058594 101.085938 L 116.410156 101.085938 C 116.515625 101.085938 116.78125 101.085938 116.78125 101.460938 L 116.78125 105.488281 C 116.78125 105.648438 116.84375 105.75 116.96875 105.75 C 117.195312 105.75 118.125 105.050781 119.714844 105.050781 C 120.890625 105.050781 121.941406 105.359375 122.605469 106.082031 C 123.285156 106.828125 123.390625 107.734375 123.390625 109.429688 L 123.390625 115.351562 C 123.390625 115.683594 123.183594 115.726562 123.019531 115.726562 "/>
<path style=" stroke:none;fill-rule:nonzero;fill:rgb(13.729858%,12.159729%,12.548828%);fill-opacity:1;" d="M 131.894531 106.953125 C 130.675781 106.953125 129.953125 107.753906 129.953125 108.972656 C 129.953125 109.097656 129.996094 109.179688 130.199219 109.179688 L 133.671875 109.179688 C 133.875 109.179688 133.917969 109.140625 133.917969 108.914062 C 133.917969 107.320312 132.78125 106.953125 131.894531 106.953125 Z M 136.644531 111.082031 L 130.324219 111.082031 C 130.140625 111.082031 130.015625 111.164062 130.015625 111.367188 C 130.015625 113.125 131.214844 113.84375 133.027344 113.84375 C 134.394531 113.84375 135.382812 113.410156 135.773438 113.207031 C 135.898438 113.144531 135.941406 113.101562 136.085938 113.101562 C 136.3125 113.101562 136.375 113.269531 136.375 113.433594 L 136.375 114.734375 C 136.375 115 136.351562 115.125 136.148438 115.273438 C 135.632812 115.664062 134.164062 115.914062 132.636719 115.914062 C 129.621094 115.914062 126.773438 114.753906 126.773438 110.585938 C 126.773438 106.640625 129.023438 105.03125 131.976562 105.03125 C 136.394531 105.03125 137.015625 108.042969 137.015625 110.210938 L 137.015625 110.710938 C 137.015625 111.039062 136.808594 111.082031 136.644531 111.082031 "/>
<path style=" stroke:none;fill-rule:nonzero;fill:rgb(13.729858%,12.159729%,12.548828%);fill-opacity:1;" d="M 147.152344 107.777344 C 146.84375 107.777344 146.679688 107.613281 145.585938 107.613281 C 143.933594 107.613281 143.726562 108.480469 143.726562 109.242188 L 143.726562 115.351562 C 143.726562 115.683594 143.519531 115.726562 143.355469 115.726562 L 140.996094 115.726562 C 140.832031 115.726562 140.628906 115.683594 140.628906 115.351562 L 140.628906 105.609375 C 140.628906 105.277344 140.832031 105.234375 140.996094 105.234375 L 143.289062 105.234375 C 143.539062 105.234375 143.578125 105.359375 143.578125 105.507812 L 143.578125 105.671875 C 143.578125 105.773438 143.683594 105.855469 143.808594 105.855469 C 144.40625 105.855469 144.859375 105.070312 146.40625 105.070312 C 147.316406 105.070312 147.441406 105.402344 147.441406 105.75 L 147.441406 107.464844 C 147.441406 107.652344 147.355469 107.777344 147.152344 107.777344 "/>
<path style=" stroke:none;fill-rule:nonzero;fill:rgb(13.729858%,12.159729%,12.548828%);fill-opacity:1;" d="M 160.527344 115.890625 C 158.238281 115.890625 157.082031 115.332031 156.769531 115.125 C 156.566406 115 156.523438 114.859375 156.523438 114.613281 L 156.523438 112.980469 C 156.523438 112.8125 156.566406 112.648438 156.8125 112.648438 C 157 112.648438 157.101562 112.730469 157.246094 112.8125 C 157.597656 113.019531 158.546875 113.558594 160.179688 113.558594 C 161.292969 113.558594 162.347656 113.367188 162.347656 112.195312 C 162.347656 111.386719 161.851562 111.058594 161.230469 110.6875 L 158.898438 109.242188 C 158.113281 108.746094 156.769531 107.878906 156.769531 105.546875 C 156.769531 102.492188 159.4375 101.789062 161.769531 101.789062 C 162.945312 101.789062 164.203125 102.019531 165.050781 102.53125 C 165.257812 102.65625 165.300781 102.800781 165.300781 103.046875 L 165.300781 104.722656 C 165.300781 104.886719 165.257812 105.050781 165.011719 105.050781 C 164.804688 105.050781 164.699219 104.949219 164.535156 104.867188 C 163.5625 104.347656 162.945312 104.101562 161.726562 104.101562 C 160.816406 104.101562 159.867188 104.328125 159.867188 105.339844 C 159.867188 106.105469 160.386719 106.457031 161.003906 106.785156 L 162.839844 107.796875 C 164.453125 108.683594 165.484375 109.53125 165.484375 111.800781 C 165.484375 114.777344 163.273438 115.890625 160.527344 115.890625 "/>
<path style=" stroke:none;fill-rule:nonzero;fill:rgb(13.729858%,12.159729%,12.548828%);fill-opacity:1;" d="M 173.988281 107.136719 C 172.132812 107.136719 171.78125 108.746094 171.78125 110.5625 C 171.78125 112.339844 172.152344 113.828125 174.007812 113.828125 C 175.867188 113.828125 176.21875 112.214844 176.21875 110.398438 C 176.21875 108.625 175.847656 107.136719 173.988281 107.136719 Z M 173.988281 115.914062 C 170.414062 115.914062 168.535156 113.785156 168.535156 110.523438 C 168.535156 107.363281 170.3125 105.050781 174.007812 105.050781 C 177.582031 105.050781 179.460938 107.175781 179.460938 110.4375 C 179.460938 113.597656 177.683594 115.914062 173.988281 115.914062 "/>
<path style=" stroke:none;fill-rule:nonzero;fill:rgb(13.729858%,12.159729%,12.548828%);fill-opacity:1;" d="M 190.628906 115.726562 L 182.722656 115.726562 C 182.558594 115.726562 182.351562 115.683594 182.351562 115.351562 L 182.351562 114.074219 C 182.351562 113.804688 182.390625 113.597656 182.578125 113.351562 L 186.828125 107.671875 C 186.890625 107.59375 186.933594 107.550781 186.933594 107.445312 C 186.933594 107.320312 186.851562 107.300781 186.664062 107.300781 L 182.929688 107.300781 C 182.761719 107.300781 182.558594 107.261719 182.558594 106.929688 L 182.558594 105.609375 C 182.558594 105.277344 182.761719 105.234375 182.929688 105.234375 L 190.441406 105.234375 C 190.609375 105.234375 190.8125 105.277344 190.8125 105.609375 L 190.8125 106.707031 C 190.8125 107.011719 190.773438 107.175781 190.589844 107.425781 L 186.210938 113.269531 C 186.148438 113.351562 186.109375 113.390625 186.109375 113.496094 C 186.109375 113.621094 186.1875 113.640625 186.375 113.640625 L 190.628906 113.640625 C 190.792969 113.640625 191 113.679688 191 114.011719 L 191 115.351562 C 191 115.683594 190.792969 115.726562 190.628906 115.726562 "/>
<path style=" stroke:none;fill-rule:nonzero;fill:rgb(13.729858%,12.159729%,12.548828%);fill-opacity:1;" d="M 197.277344 115.726562 L 194.921875 115.726562 C 194.757812 115.726562 194.550781 115.683594 194.550781 115.351562 L 194.550781 105.609375 C 194.550781 105.277344 194.757812 105.234375 194.921875 105.234375 L 197.277344 105.234375 C 197.441406 105.234375 197.648438 105.296875 197.648438 105.628906 L 197.648438 115.351562 C 197.648438 115.683594 197.441406 115.726562 197.277344 115.726562 Z M 196.101562 103.855469 C 194.984375 103.855469 194.363281 103.355469 194.363281 102.472656 C 194.363281 101.601562 195.007812 101.105469 196.101562 101.105469 C 197.214844 101.105469 197.835938 101.601562 197.835938 102.492188 C 197.835938 103.355469 197.191406 103.855469 196.101562 103.855469 "/>
<path style=" stroke:none;fill-rule:nonzero;fill:rgb(13.729858%,12.159729%,12.548828%);fill-opacity:1;" d="M 207.578125 110.628906 C 207.578125 110.480469 207.539062 110.417969 207.410156 110.417969 C 207.269531 110.417969 207.269531 110.4375 207.082031 110.5 L 205.90625 110.933594 C 205.246094 111.183594 204.460938 111.472656 204.460938 112.503906 C 204.460938 113.433594 204.9375 113.828125 206.011719 113.828125 C 206.402344 113.828125 206.957031 113.679688 207.164062 113.515625 C 207.371094 113.351562 207.578125 113.167969 207.578125 112.628906 Z M 210.222656 115.726562 L 208.011719 115.726562 C 207.765625 115.726562 207.722656 115.601562 207.722656 115.457031 C 207.722656 115.375 207.722656 115.3125 207.519531 115.3125 C 207.0625 115.3125 206.316406 115.890625 204.75 115.890625 C 201.941406 115.890625 201.300781 114.238281 201.300781 112.8125 C 201.300781 110.851562 202.335938 110.007812 204.5625 109.324219 L 206.898438 108.625 C 207.246094 108.519531 207.578125 108.460938 207.578125 108.042969 L 207.578125 107.960938 C 207.578125 107.382812 207.121094 107.117188 205.660156 107.117188 C 203.902344 107.117188 202.851562 107.753906 202.625 107.878906 C 202.5 107.941406 202.4375 107.984375 202.292969 107.984375 C 202.105469 107.984375 202.023438 107.839844 202.023438 107.652344 L 202.023438 106.3125 C 202.023438 106.066406 202.046875 105.898438 202.253906 105.773438 C 203.058594 105.257812 204.914062 105.050781 206.152344 105.050781 C 208.734375 105.050781 209.539062 105.855469 209.789062 106.105469 C 210.34375 106.664062 210.59375 107.363281 210.59375 108.789062 L 210.59375 115.351562 C 210.59375 115.683594 210.386719 115.726562 210.222656 115.726562 "/>
<path style=" stroke:none;fill-rule:nonzero;fill:rgb(13.729858%,12.159729%,12.548828%);fill-opacity:1;" d="M 217.488281 115.726562 L 215.132812 115.726562 C 214.96875 115.726562 214.765625 115.683594 214.765625 115.351562 L 214.765625 101.460938 C 214.765625 101.128906 214.96875 101.085938 215.132812 101.085938 L 217.488281 101.085938 C 217.652344 101.085938 217.859375 101.148438 217.859375 101.480469 L 217.859375 115.351562 C 217.859375 115.683594 217.652344 115.726562 217.488281 115.726562 "/>
<path style=" stroke:none;fill-rule:nonzero;fill:rgb(13.729858%,12.159729%,12.548828%);fill-opacity:1;" d="M 227.335938 107.300781 L 225.828125 107.300781 C 225.746094 107.300781 225.644531 107.363281 225.644531 107.550781 L 225.644531 115.351562 C 225.644531 115.683594 225.4375 115.726562 225.269531 115.726562 L 222.917969 115.726562 C 222.753906 115.726562 222.546875 115.683594 222.546875 115.351562 L 222.546875 107.550781 C 222.546875 107.363281 222.441406 107.300781 222.359375 107.300781 L 221.472656 107.300781 C 221.308594 107.300781 221.101562 107.261719 221.101562 106.929688 L 221.101562 105.609375 C 221.101562 105.277344 221.308594 105.234375 221.472656 105.234375 L 222.359375 105.234375 C 222.441406 105.234375 222.546875 105.175781 222.546875 104.988281 L 222.546875 104.472656 C 222.546875 103.503906 222.605469 103.089844 222.753906 102.714844 C 223.328125 101.191406 224.753906 100.984375 225.621094 100.984375 C 226.714844 100.984375 227.707031 101.230469 227.707031 101.726562 L 227.707031 102.988281 C 227.707031 103.234375 227.585938 103.316406 227.4375 103.316406 C 227.1875 103.316406 227.023438 103.109375 226.570312 103.109375 C 226.097656 103.109375 225.828125 103.253906 225.703125 103.707031 C 225.664062 103.855469 225.644531 104.433594 225.644531 104.722656 L 225.644531 104.988281 C 225.644531 105.175781 225.746094 105.234375 225.828125 105.234375 L 227.335938 105.234375 C 227.5 105.234375 227.707031 105.277344 227.707031 105.609375 L 227.707031 106.929688 C 227.707031 107.261719 227.5 107.300781 227.335938 107.300781 "/>
<path style=" stroke:none;fill-rule:nonzero;fill:rgb(13.729858%,12.159729%,12.548828%);fill-opacity:1;" d="M 235.53125 107.136719 C 233.671875 107.136719 233.324219 108.746094 233.324219 110.5625 C 233.324219 112.339844 233.695312 113.828125 235.550781 113.828125 C 237.410156 113.828125 237.761719 112.214844 237.761719 110.398438 C 237.761719 108.625 237.390625 107.136719 235.53125 107.136719 Z M 235.53125 115.914062 C 231.960938 115.914062 230.078125 113.785156 230.078125 110.523438 C 230.078125 107.363281 231.855469 105.050781 235.550781 105.050781 C 239.125 105.050781 241.003906 107.175781 241.003906 110.4375 C 241.003906 113.597656 239.226562 115.914062 235.53125 115.914062 "/>
<path style=" stroke:none;fill-rule:nonzero;fill:rgb(13.729858%,12.159729%,12.548828%);fill-opacity:1;" d="M 253.945312 115.726562 L 251.59375 115.726562 C 251.429688 115.726562 251.222656 115.683594 251.222656 115.351562 L 251.222656 109.59375 C 251.222656 108.769531 251.140625 108.253906 250.867188 107.902344 C 250.5625 107.507812 250.085938 107.320312 249.425781 107.320312 C 249.074219 107.320312 248.640625 107.382812 248.328125 107.527344 C 247.921875 107.714844 247.710938 108.003906 247.710938 108.519531 L 247.710938 115.351562 C 247.710938 115.683594 247.503906 115.726562 247.339844 115.726562 L 244.984375 115.726562 C 244.820312 115.726562 244.613281 115.683594 244.613281 115.351562 L 244.613281 105.609375 C 244.613281 105.277344 244.820312 105.234375 244.984375 105.234375 L 247.320312 105.234375 C 247.566406 105.234375 247.605469 105.359375 247.605469 105.507812 C 247.605469 105.589844 247.628906 105.648438 247.835938 105.648438 C 248.085938 105.648438 248.394531 105.546875 248.578125 105.464844 C 249.179688 105.21875 250.003906 105.050781 250.644531 105.050781 C 251.816406 105.050781 252.871094 105.359375 253.53125 106.082031 C 254.214844 106.828125 254.320312 107.734375 254.320312 109.429688 L 254.320312 115.351562 C 254.320312 115.683594 254.109375 115.726562 253.945312 115.726562 "/>
<path style=" stroke:none;fill-rule:nonzero;fill:rgb(13.729858%,12.159729%,12.548828%);fill-opacity:1;" d="M 265.320312 108.355469 C 265.320312 107.796875 265.054688 107.59375 264.597656 107.402344 C 264.3125 107.28125 263.980469 107.238281 263.648438 107.238281 C 262.71875 107.238281 261.066406 107.570312 261.066406 110.5625 C 261.066406 112.480469 261.769531 113.703125 263.648438 113.703125 C 263.980469 113.703125 264.3125 113.660156 264.597656 113.535156 C 265.054688 113.332031 265.320312 113.144531 265.320312 112.378906 Z M 268.046875 115.726562 L 265.753906 115.726562 C 265.507812 115.726562 265.464844 115.601562 265.464844 115.457031 C 265.464844 115.375 265.464844 115.3125 265.261719 115.3125 C 264.804688 115.3125 264.164062 115.890625 262.597656 115.890625 C 259.5625 115.890625 257.824219 113.867188 257.824219 110.605469 C 257.824219 106.992188 259.808594 105.050781 262.78125 105.050781 C 264.246094 105.050781 264.929688 105.609375 265.136719 105.609375 C 265.261719 105.609375 265.320312 105.507812 265.320312 105.339844 L 265.320312 101.375 C 265.320312 101.042969 265.527344 101.003906 265.691406 101.003906 L 268.046875 101.003906 C 268.210938 101.003906 268.417969 101.042969 268.417969 101.375 L 268.417969 115.351562 C 268.417969 115.683594 268.210938 115.726562 268.046875 115.726562 "/>
<path style=" stroke:none;fill-rule:nonzero;fill:rgb(13.729858%,12.159729%,12.548828%);fill-opacity:1;" d="M 275.460938 115.890625 C 273.453125 115.890625 272.503906 115.4375 272.300781 115.273438 C 272.09375 115.125 272.070312 115 272.070312 114.734375 L 272.070312 113.472656 C 272.070312 113.308594 272.113281 113.144531 272.359375 113.144531 C 272.503906 113.144531 272.546875 113.1875 272.671875 113.246094 C 273.394531 113.640625 274.320312 113.84375 275.332031 113.84375 C 275.976562 113.84375 276.613281 113.722656 276.613281 113.0625 C 276.613281 112.480469 276.054688 112.253906 275.6875 112.050781 L 274.34375 111.265625 C 273.105469 110.542969 272.277344 109.921875 272.277344 108.355469 C 272.277344 106.003906 274.074219 105.050781 276.242188 105.050781 C 277.480469 105.050781 278.679688 105.339844 279.089844 105.648438 C 279.296875 105.792969 279.296875 105.917969 279.296875 106.164062 L 279.296875 107.464844 C 279.296875 107.632812 279.257812 107.796875 279.007812 107.796875 C 278.863281 107.796875 278.800781 107.753906 278.679688 107.691406 C 278.082031 107.363281 277.480469 107.097656 276.53125 107.097656 C 275.871094 107.097656 275.167969 107.199219 275.167969 107.878906 C 275.167969 108.394531 275.6875 108.625 276.054688 108.828125 L 277.355469 109.574219 C 278.53125 110.234375 279.503906 110.976562 279.503906 112.585938 C 279.503906 114.464844 278.140625 115.890625 275.460938 115.890625 "/>
<path style=" stroke:none;fill-rule:nonzero;fill:rgb(13.729858%,12.159729%,12.548828%);fill-opacity:1;" d="M 61.214844 133.390625 L 59.710938 133.390625 C 59.628906 133.390625 59.523438 133.453125 59.523438 133.636719 L 59.523438 141.441406 C 59.523438 141.773438 59.316406 141.8125 59.152344 141.8125 L 56.796875 141.8125 C 56.632812 141.8125 56.425781 141.773438 56.425781 141.441406 L 56.425781 133.636719 C 56.425781 133.453125 56.324219 133.390625 56.242188 133.390625 L 55.351562 133.390625 C 55.1875 133.390625 54.980469 133.347656 54.980469 133.019531 L 54.980469 131.695312 C 54.980469 131.367188 55.1875 131.328125 55.351562 131.328125 L 56.242188 131.328125 C 56.324219 131.328125 56.425781 131.265625 56.425781 131.082031 L 56.425781 130.5625 C 56.425781 129.589844 56.488281 129.179688 56.632812 128.808594 C 57.210938 127.28125 58.636719 127.074219 59.503906 127.074219 C 60.597656 127.074219 61.589844 127.320312 61.589844 127.816406 L 61.589844 129.078125 C 61.589844 129.320312 61.464844 129.40625 61.320312 129.40625 C 61.074219 129.40625 60.90625 129.203125 60.453125 129.203125 C 59.976562 129.203125 59.710938 129.34375 59.585938 129.796875 C 59.542969 129.941406 59.523438 130.519531 59.523438 130.808594 L 59.523438 131.082031 C 59.523438 131.265625 59.628906 131.328125 59.710938 131.328125 L 61.214844 131.328125 C 61.382812 131.328125 61.589844 131.367188 61.589844 131.695312 L 61.589844 133.019531 C 61.589844 133.347656 61.382812 133.390625 61.214844 133.390625 "/>
<path style=" stroke:none;fill-rule:nonzero;fill:rgb(13.729858%,12.159729%,12.548828%);fill-opacity:1;" d="M 71.085938 130.046875 C 70.28125 130.046875 69.804688 129.695312 69.804688 128.828125 C 69.804688 127.984375 70.300781 127.632812 71.125 127.632812 C 71.929688 127.632812 72.40625 127.984375 72.40625 128.847656 C 72.40625 129.695312 71.910156 130.046875 71.085938 130.046875 Z M 67.410156 130.046875 C 66.605469 130.046875 66.132812 129.695312 66.132812 128.828125 C 66.132812 127.984375 66.625 127.632812 67.453125 127.632812 C 68.257812 127.632812 68.730469 127.984375 68.730469 128.847656 C 68.730469 129.695312 68.234375 130.046875 67.410156 130.046875 Z M 73.851562 141.8125 L 71.519531 141.8125 C 71.273438 141.8125 71.230469 141.691406 71.230469 141.546875 C 71.230469 141.460938 71.230469 141.402344 71.023438 141.402344 C 70.777344 141.402344 70.445312 141.5 70.261719 141.585938 C 69.660156 141.832031 68.8125 141.980469 68.171875 141.980469 C 66.996094 141.980469 65.945312 141.691406 65.28125 140.96875 C 64.601562 140.226562 64.519531 139.316406 64.519531 137.625 L 64.519531 131.695312 C 64.519531 131.367188 64.726562 131.328125 64.890625 131.328125 L 67.242188 131.328125 C 67.410156 131.328125 67.617188 131.367188 67.617188 131.695312 L 67.617188 137.457031 C 67.617188 138.285156 67.679688 138.820312 67.949219 139.171875 C 68.257812 139.5625 68.753906 139.726562 69.414062 139.726562 C 69.765625 139.726562 70.199219 139.667969 70.507812 139.519531 C 70.917969 139.335938 71.125 139.046875 71.125 138.53125 L 71.125 131.695312 C 71.125 131.367188 71.332031 131.328125 71.496094 131.328125 L 73.851562 131.328125 C 74.015625 131.328125 74.222656 131.367188 74.222656 131.695312 L 74.222656 141.441406 C 74.222656 141.773438 74.015625 141.8125 73.851562 141.8125 "/>
<path style=" stroke:none;fill-rule:nonzero;fill:rgb(13.729858%,12.159729%,12.548828%);fill-opacity:1;" d="M 85.019531 133.863281 C 84.710938 133.863281 84.542969 133.703125 83.449219 133.703125 C 81.800781 133.703125 81.59375 134.566406 81.59375 135.332031 L 81.59375 141.441406 C 81.59375 141.773438 81.386719 141.8125 81.21875 141.8125 L 78.867188 141.8125 C 78.703125 141.8125 78.496094 141.773438 78.496094 141.441406 L 78.496094 131.695312 C 78.496094 131.367188 78.703125 131.328125 78.867188 131.328125 L 81.160156 131.328125 C 81.40625 131.328125 81.449219 131.449219 81.449219 131.597656 L 81.449219 131.757812 C 81.449219 131.863281 81.550781 131.945312 81.675781 131.945312 C 82.273438 131.945312 82.726562 131.160156 84.277344 131.160156 C 85.183594 131.160156 85.308594 131.492188 85.308594 131.84375 L 85.308594 133.554688 C 85.308594 133.742188 85.226562 133.863281 85.019531 133.863281 "/>
<path style=" stroke:none;fill-rule:nonzero;fill:rgb(13.729858%,12.159729%,12.548828%);fill-opacity:1;" d="M 102.277344 130.871094 C 101.453125 130.519531 100.730469 130.457031 99.410156 130.457031 L 98.5625 130.457031 C 98.480469 130.457031 98.355469 130.503906 98.355469 130.707031 L 98.355469 139.152344 C 98.355469 139.335938 98.480469 139.398438 98.5625 139.398438 L 99.863281 139.398438 C 101.699219 139.398438 104.34375 138.882812 104.34375 134.875 C 104.34375 132.875 103.660156 131.46875 102.277344 130.871094 Z M 104.675781 140.863281 C 103.578125 141.460938 102.175781 141.8125 100.171875 141.8125 L 95.425781 141.8125 C 95.261719 141.8125 95.050781 141.773438 95.050781 141.441406 L 95.050781 128.414062 C 95.050781 128.085938 95.261719 128.042969 95.425781 128.042969 L 100.441406 128.042969 C 102.070312 128.042969 103.453125 128.269531 104.425781 128.746094 C 106.53125 129.757812 107.769531 132.070312 107.769531 134.855469 C 107.769531 137.601562 106.636719 139.792969 104.675781 140.863281 "/>
<path style=" stroke:none;fill-rule:nonzero;fill:rgb(13.729858%,12.159729%,12.548828%);fill-opacity:1;" d="M 115.78125 133.039062 C 114.5625 133.039062 113.839844 133.84375 113.839844 135.0625 C 113.839844 135.1875 113.882812 135.269531 114.089844 135.269531 L 117.558594 135.269531 C 117.761719 135.269531 117.804688 135.226562 117.804688 135 C 117.804688 133.414062 116.667969 133.039062 115.78125 133.039062 Z M 120.527344 137.167969 L 114.210938 137.167969 C 114.027344 137.167969 113.902344 137.25 113.902344 137.457031 C 113.902344 139.210938 115.097656 139.9375 116.914062 139.9375 C 118.277344 139.9375 119.269531 139.5 119.660156 139.296875 C 119.785156 139.234375 119.828125 139.191406 119.972656 139.191406 C 120.199219 139.191406 120.261719 139.355469 120.261719 139.519531 L 120.261719 140.824219 C 120.261719 141.09375 120.238281 141.21875 120.03125 141.359375 C 119.515625 141.753906 118.050781 142 116.523438 142 C 113.511719 142 110.660156 140.84375 110.660156 136.671875 C 110.660156 132.730469 112.910156 131.121094 115.863281 131.121094 C 120.28125 131.121094 120.898438 134.136719 120.898438 136.300781 L 120.898438 136.796875 C 120.898438 137.128906 120.695312 137.167969 120.527344 137.167969 "/>
<path style=" stroke:none;fill-rule:nonzero;fill:rgb(13.729858%,12.159729%,12.548828%);fill-opacity:1;" d="M 133.742188 141.8125 L 131.410156 141.8125 C 131.160156 141.8125 131.121094 141.691406 131.121094 141.546875 C 131.121094 141.460938 131.121094 141.402344 130.914062 141.402344 C 130.664062 141.402344 130.335938 141.5 130.148438 141.585938 C 129.550781 141.832031 128.703125 141.980469 128.066406 141.980469 C 126.886719 141.980469 125.835938 141.691406 125.175781 140.96875 C 124.492188 140.226562 124.410156 139.316406 124.410156 137.625 L 124.410156 131.695312 C 124.410156 131.367188 124.617188 131.328125 124.78125 131.328125 L 127.136719 131.328125 C 127.300781 131.328125 127.507812 131.367188 127.507812 131.695312 L 127.507812 137.457031 C 127.507812 138.285156 127.570312 138.820312 127.839844 139.171875 C 128.144531 139.5625 128.644531 139.726562 129.304688 139.726562 C 129.65625 139.726562 130.089844 139.667969 130.398438 139.519531 C 130.8125 139.335938 131.015625 139.046875 131.015625 138.53125 L 131.015625 131.695312 C 131.015625 131.367188 131.222656 131.328125 131.386719 131.328125 L 133.742188 131.328125 C 133.90625 131.328125 134.113281 131.367188 134.113281 131.695312 L 134.113281 141.441406 C 134.113281 141.773438 133.90625 141.8125 133.742188 141.8125 "/>
<path style=" stroke:none;fill-rule:nonzero;fill:rgb(13.729858%,12.159729%,12.548828%);fill-opacity:1;" d="M 142.433594 141.980469 C 141.894531 141.980469 140.472656 141.9375 139.644531 141.277344 C 139.046875 140.800781 138.695312 140.039062 138.695312 138.511719 L 138.695312 133.636719 C 138.695312 133.453125 138.59375 133.390625 138.511719 133.390625 L 137.621094 133.390625 C 137.457031 133.390625 137.25 133.347656 137.25 133.019531 L 137.25 131.695312 C 137.25 131.367188 137.457031 131.328125 137.621094 131.328125 L 138.511719 131.328125 C 138.59375 131.328125 138.695312 131.265625 138.695312 131.082031 L 138.695312 129.097656 C 138.695312 128.765625 138.902344 128.726562 139.066406 128.726562 L 141.421875 128.726562 C 141.585938 128.726562 141.792969 128.765625 141.792969 129.097656 L 141.792969 131.082031 C 141.792969 131.265625 141.894531 131.328125 141.980469 131.328125 L 144.539062 131.328125 C 144.703125 131.328125 144.910156 131.367188 144.910156 131.695312 L 144.910156 133.019531 C 144.910156 133.347656 144.703125 133.390625 144.539062 133.390625 L 141.980469 133.390625 C 141.894531 133.390625 141.792969 133.453125 141.792969 133.636719 L 141.792969 137.808594 C 141.792969 138.445312 141.8125 138.695312 141.894531 138.984375 C 142 139.335938 142.308594 139.726562 143.113281 139.726562 C 144.125 139.726562 144.355469 139.335938 144.621094 139.335938 C 144.785156 139.335938 144.910156 139.417969 144.910156 139.667969 L 144.910156 141.238281 C 144.910156 141.792969 143.402344 141.980469 142.433594 141.980469 "/>
<path style=" stroke:none;fill-rule:nonzero;fill:rgb(13.729858%,12.159729%,12.548828%);fill-opacity:1;" d="M 151.742188 141.980469 C 149.742188 141.980469 148.789062 141.523438 148.585938 141.359375 C 148.378906 141.21875 148.355469 141.09375 148.355469 140.824219 L 148.355469 139.5625 C 148.355469 139.398438 148.398438 139.234375 148.644531 139.234375 C 148.789062 139.234375 148.832031 139.277344 148.957031 139.335938 C 149.679688 139.726562 150.605469 139.9375 151.621094 139.9375 C 152.261719 139.9375 152.898438 139.8125 152.898438 139.152344 C 152.898438 138.574219 152.34375 138.347656 151.972656 138.136719 L 150.628906 137.355469 C 149.390625 136.632812 148.5625 136.011719 148.5625 134.441406 C 148.5625 132.089844 150.359375 131.140625 152.527344 131.140625 C 153.765625 131.140625 154.964844 131.429688 155.378906 131.738281 C 155.582031 131.882812 155.582031 132.007812 155.582031 132.257812 L 155.582031 133.554688 C 155.582031 133.722656 155.542969 133.882812 155.296875 133.882812 C 155.148438 133.882812 155.085938 133.84375 154.964844 133.785156 C 154.367188 133.453125 153.765625 133.1875 152.816406 133.1875 C 152.15625 133.1875 151.457031 133.289062 151.457031 133.96875 C 151.457031 134.488281 151.972656 134.710938 152.34375 134.917969 L 153.640625 135.664062 C 154.820312 136.320312 155.789062 137.066406 155.789062 138.675781 C 155.789062 140.554688 154.429688 141.980469 151.742188 141.980469 "/>
<path style=" stroke:none;fill-rule:nonzero;fill:rgb(13.729858%,12.159729%,12.548828%);fill-opacity:1;" d="M 167.535156 141.359375 C 167.019531 141.753906 165.410156 141.980469 164.234375 141.980469 C 159.402344 141.980469 158.78125 138.53125 158.78125 136.671875 C 158.78125 134.710938 159.484375 131.140625 164.503906 131.140625 C 165.617188 131.140625 167.144531 131.429688 167.558594 131.738281 C 167.765625 131.882812 167.765625 132.007812 167.765625 132.257812 L 167.765625 133.722656 C 167.765625 133.882812 167.722656 134.050781 167.476562 134.050781 C 167.332031 134.050781 167.269531 134.011719 167.144531 133.949219 C 166.378906 133.539062 165.886719 133.347656 164.894531 133.347656 C 162.582031 133.347656 162.027344 135 162.027344 136.671875 C 162.027344 138.347656 162.730469 139.769531 164.769531 139.769531 C 165.761719 139.769531 166.441406 139.5625 167.164062 139.171875 C 167.289062 139.109375 167.332031 139.066406 167.476562 139.066406 C 167.699219 139.066406 167.765625 139.234375 167.765625 139.398438 L 167.765625 140.824219 C 167.765625 141.09375 167.742188 141.21875 167.535156 141.359375 "/>
<path style=" stroke:none;fill-rule:nonzero;fill:rgb(13.729858%,12.159729%,12.548828%);fill-opacity:1;" d="M 180.851562 141.8125 L 178.5 141.8125 C 178.332031 141.8125 178.128906 141.773438 178.128906 141.441406 L 178.128906 135.683594 C 178.128906 134.855469 178.046875 134.339844 177.777344 133.988281 C 177.46875 133.597656 176.992188 133.414062 176.332031 133.414062 C 175.980469 133.414062 175.546875 133.472656 175.238281 133.617188 C 174.824219 133.804688 174.617188 134.09375 174.617188 134.609375 L 174.617188 141.441406 C 174.617188 141.8125 174.351562 141.8125 174.246094 141.8125 L 171.894531 141.8125 C 171.789062 141.8125 171.523438 141.8125 171.523438 141.441406 L 171.523438 127.546875 C 171.523438 127.179688 171.789062 127.179688 171.894531 127.179688 L 174.246094 127.179688 C 174.351562 127.179688 174.617188 127.179688 174.617188 127.546875 L 174.617188 131.574219 C 174.617188 131.738281 174.679688 131.84375 174.804688 131.84375 C 175.03125 131.84375 175.960938 131.140625 177.550781 131.140625 C 178.726562 131.140625 179.777344 131.449219 180.4375 132.171875 C 181.121094 132.917969 181.226562 133.824219 181.226562 135.515625 L 181.226562 141.441406 C 181.226562 141.773438 181.019531 141.8125 180.851562 141.8125 "/>
<path style=" stroke:none;fill-rule:nonzero;fill:rgb(13.729858%,12.159729%,12.548828%);fill-opacity:1;" d="M 188.121094 141.8125 L 185.765625 141.8125 C 185.601562 141.8125 185.394531 141.773438 185.394531 141.441406 L 185.394531 127.546875 C 185.394531 127.21875 185.601562 127.179688 185.765625 127.179688 L 188.121094 127.179688 C 188.285156 127.179688 188.492188 127.238281 188.492188 127.570312 L 188.492188 141.441406 C 188.492188 141.773438 188.285156 141.8125 188.121094 141.8125 "/>
<path style=" stroke:none;fill-rule:nonzero;fill:rgb(13.729858%,12.159729%,12.548828%);fill-opacity:1;" d="M 198.421875 136.714844 C 198.421875 136.570312 198.378906 136.507812 198.257812 136.507812 C 198.109375 136.507812 198.109375 136.527344 197.925781 136.59375 L 196.746094 137.023438 C 196.089844 137.273438 195.304688 137.558594 195.304688 138.59375 C 195.304688 139.519531 195.777344 139.917969 196.855469 139.917969 C 197.242188 139.917969 197.804688 139.769531 198.007812 139.605469 C 198.214844 139.441406 198.421875 139.253906 198.421875 138.714844 Z M 201.0625 141.8125 L 198.855469 141.8125 C 198.605469 141.8125 198.566406 141.691406 198.566406 141.546875 C 198.566406 141.460938 198.566406 141.402344 198.359375 141.402344 C 197.90625 141.402344 197.160156 141.980469 195.59375 141.980469 C 192.785156 141.980469 192.144531 140.328125 192.144531 138.902344 C 192.144531 136.941406 193.175781 136.097656 195.40625 135.414062 L 197.738281 134.710938 C 198.09375 134.609375 198.421875 134.546875 198.421875 134.136719 L 198.421875 134.050781 C 198.421875 133.472656 197.96875 133.207031 196.5 133.207031 C 194.746094 133.207031 193.691406 133.84375 193.46875 133.96875 C 193.34375 134.03125 193.28125 134.070312 193.136719 134.070312 C 192.949219 134.070312 192.867188 133.925781 192.867188 133.742188 L 192.867188 132.398438 C 192.867188 132.152344 192.886719 131.984375 193.09375 131.863281 C 193.898438 131.347656 195.757812 131.140625 196.996094 131.140625 C 199.578125 131.140625 200.382812 131.945312 200.628906 132.195312 C 201.1875 132.75 201.4375 133.453125 201.4375 134.875 L 201.4375 141.441406 C 201.4375 141.773438 201.230469 141.8125 201.0625 141.8125 "/>
<path style=" stroke:none;fill-rule:nonzero;fill:rgb(13.729858%,12.159729%,12.548828%);fill-opacity:1;" d="M 214.9375 141.8125 L 212.582031 141.8125 C 212.417969 141.8125 212.214844 141.773438 212.214844 141.441406 L 212.214844 135.683594 C 212.214844 134.855469 212.128906 134.339844 211.863281 133.988281 C 211.554688 133.597656 211.078125 133.414062 210.417969 133.414062 C 210.066406 133.414062 209.632812 133.472656 209.320312 133.617188 C 208.910156 133.804688 208.703125 134.09375 208.703125 134.609375 L 208.703125 141.441406 C 208.703125 141.773438 208.496094 141.8125 208.332031 141.8125 L 205.976562 141.8125 C 205.8125 141.8125 205.605469 141.773438 205.605469 141.441406 L 205.605469 131.695312 C 205.605469 131.367188 205.8125 131.328125 205.976562 131.328125 L 208.3125 131.328125 C 208.558594 131.328125 208.597656 131.449219 208.597656 131.597656 C 208.597656 131.679688 208.621094 131.738281 208.828125 131.738281 C 209.074219 131.738281 209.386719 131.636719 209.570312 131.554688 C 210.167969 131.308594 210.996094 131.140625 211.632812 131.140625 C 212.8125 131.140625 213.863281 131.449219 214.523438 132.171875 C 215.207031 132.917969 215.3125 133.824219 215.3125 135.515625 L 215.3125 141.441406 C 215.3125 141.773438 215.101562 141.8125 214.9375 141.8125 "/>
<path style=" stroke:none;fill-rule:nonzero;fill:rgb(13.729858%,12.159729%,12.548828%);fill-opacity:1;" d="M 226.3125 134.441406 C 226.3125 133.882812 226.042969 133.679688 225.589844 133.496094 C 225.304688 133.371094 224.972656 133.328125 224.640625 133.328125 C 223.710938 133.328125 222.058594 133.660156 222.058594 136.652344 C 222.058594 138.574219 222.761719 139.792969 224.640625 139.792969 C 224.972656 139.792969 225.304688 139.75 225.589844 139.625 C 226.042969 139.417969 226.3125 139.234375 226.3125 138.46875 Z M 229.035156 141.8125 L 226.746094 141.8125 C 226.496094 141.8125 226.457031 141.691406 226.457031 141.546875 C 226.457031 141.460938 226.457031 141.402344 226.25 141.402344 C 225.796875 141.402344 225.15625 141.980469 223.589844 141.980469 C 220.554688 141.980469 218.816406 139.957031 218.816406 136.695312 C 218.816406 133.082031 220.800781 131.140625 223.773438 131.140625 C 225.238281 131.140625 225.921875 131.695312 226.128906 131.695312 C 226.25 131.695312 226.3125 131.597656 226.3125 131.429688 L 226.3125 127.464844 C 226.3125 127.136719 226.519531 127.09375 226.683594 127.09375 L 229.035156 127.09375 C 229.203125 127.09375 229.410156 127.136719 229.410156 127.464844 L 229.410156 141.441406 C 229.410156 141.773438 229.203125 141.8125 229.035156 141.8125 "/>
<g clip-path="url(#clip2)" clip-rule="nonzero">
<g clip-path="url(#clip3)" clip-rule="nonzero">
<g clip-path="url(#clip4)" clip-rule="nonzero">
<path style=" stroke:none;fill-rule:nonzero;fill:url(#linear0);" d="M 106.933594 61.945312 L 1.054688 51.25 L -2.652344 87.914062 L 103.226562 98.609375 Z M 106.933594 61.945312 "/>
</g>
</g>
</g>
<g clip-path="url(#clip5)" clip-rule="nonzero">
<g clip-path="url(#clip6)" clip-rule="nonzero">
<g clip-path="url(#clip7)" clip-rule="nonzero">
<path style=" stroke:none;fill-rule:nonzero;fill:url(#linear1);" d="M -9.433594 65.355469 L 82.601562 123.921875 L 138.957031 35.363281 L 46.917969 -23.203125 Z M -9.433594 65.355469 "/>
</g>
</g>
</g>
<g clip-path="url(#clip8)" clip-rule="nonzero">
<path style=" stroke:none;fill-rule:nonzero;fill:rgb(13.729858%,12.159729%,12.548828%);fill-opacity:1;" d="M 108.128906 84.839844 L 79.042969 1.070312 L 46.792969 0.519531 L 108.128906 84.839844 "/>
</g>
<g clip-path="url(#clip9)" clip-rule="nonzero">
<g clip-path="url(#clip10)" clip-rule="nonzero">
<g clip-path="url(#clip11)" clip-rule="nonzero">
<path style=" stroke:none;fill-rule:nonzero;fill:url(#linear2);" d="M -12.332031 78.632812 L 89.429688 123.453125 L 124.375 44.117188 L 22.613281 -0.707031 Z M -12.332031 78.632812 "/>
</g>
</g>
</g>
</g>
</svg>
