<?xml version="1.0" encoding="utf-8"?>
<!-- Generator: Adobe Illustrator 15.0.0, SVG Export Plug-In . SVG Version: 6.00 Build 0)  -->
<!DOCTYPE svg PUBLIC "-//W3C//DTD SVG 1.1//EN" "http://www.w3.org/Graphics/SVG/1.1/DTD/svg11.dtd">
<svg version="1.1" id="Layer_1" xmlns="http://www.w3.org/2000/svg" xmlns:xlink="http://www.w3.org/1999/xlink" x="0px" y="0px"
	 width="302px" height="50px" viewBox="0 0 302 50" enable-background="new 0 0 302 50" xml:space="preserve">
<rect x="5.999" y="5.237" fill="none" width="291.416" height="40.324"/>
<text transform="matrix(1 0 0 1 5.9993 29.9355)" fill="#FCFCFC" font-family="'Verdana'" font-size="32.5">K</text>
<text transform="matrix(1 0 0 1 27.5657 29.9355)" fill="#FCFCFC" font-family="'Verdana'" font-size="32.5">a</text>
<text transform="matrix(1 0 0 1 47.0842 29.9355)" fill="#FCFCFC" font-family="'Verdana'" font-size="32.5">r</text>
<text transform="matrix(1 0 0 1 60.9534 29.9355)" fill="#FCFCFC" font-family="'Verdana'" font-size="32.5">d</text>
<text transform="matrix(1 0 0 1 81.2024 29.9355)" fill="#FCFCFC" font-family="'Verdana'" font-size="32.5">i</text>
<text transform="matrix(1 0 0 1 90.1213 29.9355)" fill="#FCFCFC" font-family="'Verdana'" font-size="32.5">c</text>
<text transform="matrix(1 0 0 1 107.054 29.9355)" fill="#FCFCFC" font-family="'Verdana'" font-size="32.5">e</text>
<text transform="matrix(1 0 0 1 126.4143 29.9355)" fill="#FCFCFC" font-family="'Verdana'" font-size="32.5">u</text>
<text transform="matrix(1 0 0 1 146.9807 29.9355)" fill="#FCFCFC" font-family="'Verdana'" font-size="32.5">s</text>
<text transform="matrix(1 0 0 1 163.9138 29.9355)" fill="#59595A" font-family="'Verdana'" font-size="32.5"> </text>
<text transform="matrix(1 0 0 1 175.3396 29.9355)" fill="#BD2025" font-family="'Verdana'" font-size="32.5">M</text>
<text transform="matrix(1 0 0 1 202.7283 29.9355)" fill="#BD2025" font-family="'Verdana'" font-size="32.5">e</text>
<text transform="matrix(1 0 0 1 222.0896 29.9355)" fill="#BD2025" font-family="'Verdana'" font-size="32.5">d</text>
<text transform="matrix(1 0 0 1 242.3376 29.9355)" fill="#BD2025" font-family="'Verdana'" font-size="32.5">i</text>
<text transform="matrix(1 0 0 1 251.2556 29.9355)" fill="#BD2025" font-family="'Verdana'" font-size="32.5">c</text>
<text transform="matrix(1 0 0 1 268.1892 29.9355)" fill="#BD2025" font-family="'Verdana'" font-size="32.5">a</text>
<text transform="matrix(1 0 0 1 287.7068 29.9355)" fill="#BD2025" font-family="'Verdana'" font-size="32.5">l</text>
<text transform="matrix(1 0 0 1 5.9993 44.3359)" fill="#FAFAFC" font-family="'Verdana'" font-size="12">I</text>
<text transform="matrix(1 0 0 1 11.05 44.3359)" fill="#FAFAFC" font-family="'Verdana'" font-size="12">m</text>
<text transform="matrix(1 0 0 1 22.7219 44.3359)" fill="#FAFAFC" font-family="'Verdana'" font-size="12">a</text>
<text transform="matrix(1 0 0 1 29.929 44.3359)" fill="#FAFAFC" font-family="'Verdana'" font-size="12">g</text>
<text transform="matrix(1 0 0 1 37.4055 44.3359)" fill="#FAFAFC" font-family="'Verdana'" font-size="12">e</text>
<text transform="matrix(1 0 0 1 44.554 44.3359)" fill="#FAFAFC" font-family="'Verdana'" font-size="12">-</text>
<text transform="matrix(1 0 0 1 50.0032 44.3359)" fill="#FAFAFC" font-family="'Verdana'" font-size="12">b</text>
<text transform="matrix(1 0 0 1 57.4797 44.3359)" fill="#FAFAFC" font-family="'Verdana'" font-size="12">a</text>
<text transform="matrix(1 0 0 1 64.6868 44.3359)" fill="#FAFAFC" font-family="'Verdana'" font-size="12">s</text>
<text transform="matrix(1 0 0 1 70.9387 44.3359)" fill="#FAFAFC" font-family="'Verdana'" font-size="12">e</text>
<text transform="matrix(1 0 0 1 78.0872 44.3359)" fill="#FAFAFC" font-family="'Verdana'" font-size="12">d</text>
<text transform="matrix(1 0 0 1 85.5637 44.3359)" fill="#FAFAFC" font-family="'Verdana'" font-size="12"> </text>
<text transform="matrix(1 0 0 1 89.7825 44.3359)" fill="#FAFAFC" font-family="'Verdana'" font-size="12">s</text>
<text transform="matrix(1 0 0 1 96.0344 44.3359)" fill="#FAFAFC" font-family="'Verdana'" font-size="12">o</text>
<text transform="matrix(1 0 0 1 103.3176 44.3359)" fill="#FAFAFC" font-family="'Verdana'" font-size="12">l</text>
<text transform="matrix(1 0 0 1 106.6106 44.3359)" fill="#FAFAFC" font-family="'Verdana'" font-size="12">u</text>
<text transform="matrix(1 0 0 1 114.2043 44.3359)" fill="#FAFAFC" font-family="'Verdana'" font-size="12">t</text>
<text transform="matrix(1 0 0 1 118.9329 44.3359)" fill="#FAFAFC" font-family="'Verdana'" font-size="12">i</text>
<text transform="matrix(1 0 0 1 122.2258 44.3359)" fill="#FAFAFC" font-family="'Verdana'" font-size="12">o</text>
<text transform="matrix(1 0 0 1 129.509 44.3359)" fill="#FAFAFC" font-family="'Verdana'" font-size="12">n</text>
<text transform="matrix(1 0 0 1 137.1028 44.3359)" fill="#FAFAFC" font-family="'Verdana'" font-size="12">s</text>
<text transform="matrix(1 0 0 1 143.3547 44.3359)" fill="#FAFAFC" font-family="'Verdana'" font-size="12"> </text>
<text transform="matrix(1 0 0 1 147.5735 44.3359)" fill="#FAFAFC" font-family="'Verdana'" font-size="12">f</text>
<text transform="matrix(1 0 0 1 151.7927 44.3359)" fill="#FAFAFC" font-family="'Verdana'" font-size="12">o</text>
<text transform="matrix(1 0 0 1 159.0759 44.3359)" fill="#FAFAFC" font-family="'Verdana'" font-size="12">r</text>
<text transform="matrix(1 0 0 1 164.197 44.3359)" fill="#FAFAFC" font-family="'Verdana'" font-size="12"> </text>
<text transform="matrix(1 0 0 1 168.4158 44.3359)" fill="#FAFAFC" font-family="'Verdana'" font-size="12">c</text>
<text transform="matrix(1 0 0 1 174.6677 44.3359)" fill="#FAFAFC" font-family="'Verdana'" font-size="12">a</text>
<text transform="matrix(1 0 0 1 181.8748 44.3359)" fill="#FAFAFC" font-family="'Verdana'" font-size="12">r</text>
<text transform="matrix(1 0 0 1 186.9958 44.3359)" fill="#FAFAFC" font-family="'Verdana'" font-size="12">d</text>
<text transform="matrix(1 0 0 1 194.4724 44.3359)" fill="#FAFAFC" font-family="'Verdana'" font-size="12">i</text>
<text transform="matrix(1 0 0 1 197.7654 44.3359)" fill="#FAFAFC" font-family="'Verdana'" font-size="12">a</text>
<text transform="matrix(1 0 0 1 204.9724 44.3359)" fill="#FAFAFC" font-family="'Verdana'" font-size="12">c</text>
<text transform="matrix(1 0 0 1 211.2244 44.3359)" fill="#FAFAFC" font-family="'Verdana'" font-size="12"> </text>
<text transform="matrix(1 0 0 1 215.4431 44.3359)" fill="#FAFAFC" font-family="'Verdana'" font-size="12">i</text>
<text transform="matrix(1 0 0 1 218.7361 44.3359)" fill="#FAFAFC" font-family="'Verdana'" font-size="12">n</text>
<text transform="matrix(1 0 0 1 226.3298 44.3359)" fill="#FAFAFC" font-family="'Verdana'" font-size="12">t</text>
<text transform="matrix(1 0 0 1 231.0583 44.3359)" fill="#FAFAFC" font-family="'Verdana'" font-size="12">e</text>
<text transform="matrix(1 0 0 1 238.2068 44.3359)" fill="#FAFAFC" font-family="'Verdana'" font-size="12">r</text>
<text transform="matrix(1 0 0 1 243.3279 44.3359)" fill="#FAFAFC" font-family="'Verdana'" font-size="12">v</text>
<text transform="matrix(1 0 0 1 250.324 44.3359)" fill="#FAFAFC" font-family="'Verdana'" font-size="12">e</text>
<text transform="matrix(1 0 0 1 257.4724 44.3359)" fill="#FAFAFC" font-family="'Verdana'" font-size="12">n</text>
<text transform="matrix(1 0 0 1 265.0662 44.3359)" fill="#FAFAFC" font-family="'Verdana'" font-size="12">t</text>
<text transform="matrix(1 0 0 1 269.7947 44.3359)" fill="#FAFAFC" font-family="'Verdana'" font-size="12">i</text>
<text transform="matrix(1 0 0 1 273.0876 44.3359)" fill="#FAFAFC" font-family="'Verdana'" font-size="12">o</text>
<text transform="matrix(1 0 0 1 280.3708 44.3359)" fill="#FAFAFC" font-family="'Verdana'" font-size="12">n</text>
<text transform="matrix(1 0 0 1 287.9646 44.3359)" fill="#FAFAFC" font-family="'Verdana'" font-size="12">s</text>
</svg>
