<?xml version="1.0" encoding="UTF-8"?>
<svg xmlns="http://www.w3.org/2000/svg" xmlns:xlink="http://www.w3.org/1999/xlink" width="178pt" height="74pt" viewBox="0 0 178 74" version="1.1">
<defs>
<clipPath id="clip1">
  <path d="M 99 0.566406 L 126 0.566406 L 126 27 L 99 27 Z M 99 0.566406 "/>
</clipPath>
<clipPath id="clip2">
  <path d="M 151 48 L 177.675781 48 L 177.675781 74 L 151 74 Z M 151 48 "/>
</clipPath>
</defs>
<g id="surface1">
<g clip-path="url(#clip1)" clip-rule="nonzero">
<path style=" stroke:none;fill-rule:nonzero;fill:rgb(100%,94.898987%,0%);fill-opacity:1;" d="M 112.1875 0.566406 L 109.015625 10.167969 L 99.347656 10.375 L 107.058594 16.515625 L 104.253906 26.246094 L 112.1875 20.441406 L 120.132812 26.246094 L 117.332031 16.515625 L 125.027344 10.375 L 115.363281 10.167969 L 112.1875 0.566406 "/>
</g>
<g clip-path="url(#clip2)" clip-rule="nonzero">
<path style=" stroke:none;fill-rule:nonzero;fill:rgb(100%,94.898987%,0%);fill-opacity:1;" d="M 161.660156 57.675781 L 151.992188 57.886719 L 159.699219 64.027344 L 156.898438 73.757812 L 164.828125 67.949219 L 172.769531 73.757812 L 169.96875 64.027344 L 177.675781 57.886719 L 168.011719 57.675781 L 164.828125 48.074219 L 161.660156 57.675781 "/>
</g>
<path style=" stroke:none;fill-rule:nonzero;fill:rgb(100%,94.898987%,0%);fill-opacity:1;" d="M 144.285156 19.828125 L 147.46875 29.425781 L 157.128906 29.636719 L 149.425781 35.777344 L 152.226562 45.507812 L 144.285156 39.703125 L 136.355469 45.507812 L 139.152344 35.777344 L 131.449219 29.636719 L 141.113281 29.425781 L 144.285156 19.828125 "/>
<path style=" stroke:none;fill-rule:nonzero;fill:rgb(14.445496%,28.90625%,64.517212%);fill-opacity:1;" d="M 11.324219 13.378906 L 3.820312 23.578125 L 3.820312 23.617188 L 10.144531 23.617188 L 9.640625 25.761719 L 0 25.761719 L 0.238281 24.261719 L 7.863281 14.097656 L 7.863281 14.058594 L 2.242188 14.058594 L 2.5625 11.957031 L 11.542969 11.957031 L 11.324219 13.378906 "/>
<path style=" stroke:none;fill-rule:nonzero;fill:rgb(14.445496%,28.90625%,64.517212%);fill-opacity:1;" d="M 19.480469 25.761719 L 17.203125 25.761719 L 17.402344 24.480469 L 17.363281 24.480469 C 16.902344 25.019531 16.121094 26 14.300781 26 C 12.742188 26 11.921875 25 11.921875 23.140625 C 11.921875 22.640625 12.019531 21.839844 12.160156 21.097656 L 12.960938 16.019531 L 15.460938 16.019531 L 14.640625 21.097656 C 14.542969 21.699219 14.480469 22.257812 14.480469 22.617188 C 14.480469 23.480469 14.820312 23.898438 15.519531 23.898438 C 16.339844 23.898438 17.023438 23.417969 17.421875 23.058594 L 18.523438 16.019531 L 21.023438 16.019531 L 19.480469 25.761719 "/>
<path style=" stroke:none;fill-rule:nonzero;fill:rgb(14.445496%,28.90625%,64.517212%);fill-opacity:1;" d="M 28.101562 18.378906 C 27.839844 18.199219 27.160156 17.777344 26.160156 17.777344 C 25.402344 17.777344 25.039062 18.078125 25.039062 18.539062 C 25.039062 18.996094 25.320312 19.320312 26.042969 19.820312 L 26.519531 20.15625 C 27.582031 20.898438 28.28125 21.738281 28.28125 22.980469 C 28.28125 24.679688 26.980469 26 24.660156 26 C 23.019531 26 22.121094 25.339844 21.699219 25.019531 L 22.539062 23.019531 C 22.820312 23.28125 23.601562 23.941406 24.621094 23.941406 C 25.402344 23.941406 25.859375 23.699219 25.859375 23.199219 C 25.859375 22.71875 25.5625 22.378906 24.800781 21.78125 L 24.320312 21.417969 C 23.320312 20.617188 22.71875 19.917969 22.71875 18.699219 C 22.71875 16.878906 24.28125 15.777344 26.359375 15.777344 C 27.703125 15.777344 28.480469 16.257812 28.78125 16.457031 L 28.101562 18.378906 "/>
<path style=" stroke:none;fill-rule:nonzero;fill:rgb(14.445496%,28.90625%,64.517212%);fill-opacity:1;" d="M 33.882812 23.898438 C 34.820312 23.898438 35.382812 23.378906 35.660156 23.117188 L 36.460938 18.097656 C 36.242188 17.957031 35.902344 17.777344 35.363281 17.777344 C 33.839844 17.777344 32.542969 19.078125 32.542969 22.019531 C 32.542969 23.28125 33.0625 23.898438 33.882812 23.898438 Z M 37.742188 25.761719 L 35.441406 25.761719 L 35.621094 24.597656 L 35.582031 24.597656 C 35.28125 25.019531 34.5 26 32.902344 26 C 31.28125 26 30.019531 24.839844 30.019531 21.976562 C 30.019531 17.996094 32.542969 15.777344 35.261719 15.777344 C 36.542969 15.777344 37.160156 16.296875 37.460938 16.558594 L 38.042969 16.019531 L 39.28125 16.019531 L 37.742188 25.761719 "/>
<path style=" stroke:none;fill-rule:nonzero;fill:rgb(14.445496%,28.90625%,64.517212%);fill-opacity:1;" d="M 54.542969 20.65625 L 53.722656 25.761719 L 51.222656 25.761719 L 52.042969 20.65625 C 52.121094 20.199219 52.203125 19.539062 52.203125 19.15625 C 52.203125 18.320312 51.863281 17.878906 51.183594 17.878906 C 50.320312 17.878906 49.683594 18.359375 49.300781 18.699219 C 49.28125 19.320312 49.160156 20.078125 49.082031 20.65625 L 48.261719 25.761719 L 45.761719 25.761719 L 46.582031 20.65625 C 46.660156 20.179688 46.742188 19.578125 46.742188 19.15625 C 46.742188 18.320312 46.402344 17.878906 45.742188 17.878906 C 44.921875 17.878906 44.28125 18.359375 43.902344 18.71875 L 42.800781 25.761719 L 40.300781 25.761719 L 41.839844 16.019531 L 44.121094 16.019531 L 43.921875 17.296875 L 43.960938 17.296875 C 44.460938 16.71875 45.382812 15.777344 46.960938 15.777344 C 48.042969 15.777344 48.761719 16.257812 49.101562 17.199219 C 49.621094 16.617188 50.703125 15.777344 52.324219 15.777344 C 53.902344 15.777344 54.761719 16.796875 54.761719 18.65625 C 54.761719 19.277344 54.625 20.058594 54.542969 20.65625 "/>
<path style=" stroke:none;fill-rule:nonzero;fill:rgb(14.445496%,28.90625%,64.517212%);fill-opacity:1;" d="M 70.445312 20.65625 L 69.625 25.761719 L 67.121094 25.761719 L 67.941406 20.65625 C 68.023438 20.199219 68.101562 19.539062 68.101562 19.15625 C 68.101562 18.320312 67.761719 17.878906 67.082031 17.878906 C 66.222656 17.878906 65.582031 18.359375 65.203125 18.699219 C 65.183594 19.320312 65.0625 20.078125 64.980469 20.65625 L 64.160156 25.761719 L 61.660156 25.761719 L 62.480469 20.65625 C 62.5625 20.179688 62.640625 19.578125 62.640625 19.15625 C 62.640625 18.320312 62.300781 17.878906 61.640625 17.878906 C 60.820312 17.878906 60.179688 18.359375 59.800781 18.71875 L 58.699219 25.761719 L 56.199219 25.761719 L 57.742188 16.019531 L 60.019531 16.019531 L 59.820312 17.296875 L 59.859375 17.296875 C 60.359375 16.71875 61.28125 15.777344 62.863281 15.777344 C 63.941406 15.777344 64.664062 16.257812 65.003906 17.199219 C 65.523438 16.617188 66.601562 15.777344 68.222656 15.777344 C 69.804688 15.777344 70.664062 16.796875 70.664062 18.65625 C 70.664062 19.277344 70.523438 20.058594 70.445312 20.65625 "/>
<path style=" stroke:none;fill-rule:nonzero;fill:rgb(14.445496%,28.90625%,64.517212%);fill-opacity:1;" d="M 74.980469 19.9375 L 75.320312 19.9375 C 77.183594 19.9375 77.78125 19.339844 77.78125 18.4375 C 77.78125 17.898438 77.441406 17.636719 77 17.636719 C 76.140625 17.636719 75.363281 18.4375 74.980469 19.9375 Z M 75.5625 21.578125 L 74.78125 21.578125 L 74.78125 21.878906 C 74.78125 23.320312 75.402344 23.941406 76.523438 23.941406 C 77.722656 23.941406 78.480469 23.359375 78.742188 23.117188 L 79.261719 24.898438 C 78.921875 25.21875 78.023438 26 76.101562 26 C 73.800781 26 72.339844 24.761719 72.339844 21.917969 C 72.339844 17.898438 74.882812 15.777344 77.5 15.777344 C 79.003906 15.777344 80.003906 16.597656 80.003906 18.175781 C 80.003906 20.476562 78.140625 21.578125 75.5625 21.578125 "/>
<path style=" stroke:none;fill-rule:nonzero;fill:rgb(14.445496%,28.90625%,64.517212%);fill-opacity:1;" d="M 89.984375 20.65625 L 89.164062 25.761719 L 86.660156 25.761719 L 87.480469 20.65625 C 87.582031 20.019531 87.640625 19.519531 87.640625 19.15625 C 87.640625 18.277344 87.320312 17.878906 86.582031 17.878906 C 85.722656 17.878906 85.023438 18.378906 84.621094 18.71875 L 83.519531 25.761719 L 81.019531 25.761719 L 82.5625 16.019531 L 84.839844 16.019531 L 84.640625 17.296875 L 84.679688 17.296875 C 85.140625 16.777344 86.140625 15.777344 87.84375 15.777344 C 89.363281 15.777344 90.203125 16.757812 90.203125 18.597656 C 90.203125 19.058594 90.144531 19.738281 89.984375 20.65625 "/>
<path style=" stroke:none;fill-rule:nonzero;fill:rgb(14.445496%,28.90625%,64.517212%);fill-opacity:1;" d="M 92.960938 26 C 92.039062 26 91.460938 25.417969 91.460938 24.480469 C 91.460938 23.539062 92.039062 22.960938 92.960938 22.960938 C 93.859375 22.960938 94.460938 23.539062 94.460938 24.480469 C 94.460938 25.417969 93.859375 26 92.960938 26 "/>
<path style=" stroke:none;fill-rule:nonzero;fill:rgb(14.445496%,28.90625%,64.517212%);fill-opacity:1;" d="M 11.324219 37.378906 L 3.820312 47.578125 L 3.820312 47.617188 L 10.144531 47.617188 L 9.640625 49.761719 L 0 49.761719 L 0.238281 48.261719 L 7.863281 38.097656 L 7.863281 38.058594 L 2.242188 38.058594 L 2.5625 35.957031 L 11.542969 35.957031 L 11.324219 37.378906 "/>
<path style=" stroke:none;fill-rule:nonzero;fill:rgb(14.445496%,28.90625%,64.517212%);fill-opacity:1;" d="M 19.480469 49.761719 L 17.203125 49.761719 L 17.402344 48.480469 L 17.363281 48.480469 C 16.902344 49.019531 16.121094 50 14.300781 50 C 12.742188 50 11.921875 49 11.921875 47.140625 C 11.921875 46.640625 12.019531 45.839844 12.160156 45.097656 L 12.960938 40.019531 L 15.460938 40.019531 L 14.640625 45.097656 C 14.542969 45.699219 14.480469 46.257812 14.480469 46.617188 C 14.480469 47.480469 14.820312 47.898438 15.519531 47.898438 C 16.339844 47.898438 17.023438 47.417969 17.421875 47.058594 L 18.523438 40.019531 L 21.023438 40.019531 L 19.480469 49.761719 "/>
<path style=" stroke:none;fill-rule:nonzero;fill:rgb(14.445496%,28.90625%,64.517212%);fill-opacity:1;" d="M 30.722656 40.019531 C 30.761719 40.21875 30.820312 40.617188 30.820312 40.976562 C 30.820312 43.199219 29.78125 44.558594 28.242188 45.21875 L 30.320312 49.761719 L 27.582031 49.761719 L 26 45.71875 C 25.820312 45.738281 25.621094 45.738281 25.421875 45.738281 L 25.160156 45.738281 L 24.519531 49.761719 L 22.039062 49.761719 L 24.261719 35.65625 L 26.800781 35.4375 L 25.460938 43.796875 L 25.679688 43.796875 C 27.460938 43.796875 28.339844 42.996094 28.339844 41.039062 C 28.339844 40.578125 28.300781 40.277344 28.261719 40.019531 L 30.722656 40.019531 "/>
<path style=" stroke:none;fill-rule:nonzero;fill:rgb(14.445496%,28.90625%,64.517212%);fill-opacity:1;" d="M 39.839844 49.761719 L 37.5625 49.761719 L 37.761719 48.480469 L 37.722656 48.480469 C 37.261719 49.019531 36.480469 50 34.660156 50 C 33.101562 50 32.28125 49 32.28125 47.140625 C 32.28125 46.640625 32.378906 45.839844 32.519531 45.097656 L 33.320312 40.019531 L 35.820312 40.019531 L 35 45.097656 C 34.902344 45.699219 34.839844 46.257812 34.839844 46.617188 C 34.839844 47.480469 35.179688 47.898438 35.882812 47.898438 C 36.699219 47.898438 37.382812 47.417969 37.78125 47.058594 L 38.882812 40.019531 L 41.382812 40.019531 L 39.839844 49.761719 "/>
<path style=" stroke:none;fill-rule:nonzero;fill:rgb(14.445496%,28.90625%,64.517212%);fill-opacity:1;" d="M 51.363281 44.65625 L 50.542969 49.761719 L 48.039062 49.761719 L 48.859375 44.65625 C 48.960938 44.019531 49.019531 43.519531 49.019531 43.15625 C 49.019531 42.277344 48.699219 41.878906 47.960938 41.878906 C 47.101562 41.878906 46.402344 42.378906 46 42.71875 L 44.898438 49.761719 L 42.398438 49.761719 L 43.941406 40.019531 L 46.21875 40.019531 L 46.019531 41.296875 L 46.058594 41.296875 C 46.519531 40.777344 47.519531 39.777344 49.222656 39.777344 C 50.742188 39.777344 51.582031 40.757812 51.582031 42.597656 C 51.582031 43.058594 51.523438 43.738281 51.363281 44.65625 "/>
<path style=" stroke:none;fill-rule:nonzero;fill:rgb(14.445496%,28.90625%,64.517212%);fill-opacity:1;" d="M 60.203125 37.578125 C 60.0625 37.519531 59.742188 37.378906 59.339844 37.378906 C 58.480469 37.378906 57.902344 37.777344 57.699219 39.078125 L 57.539062 40.019531 L 59.78125 40.019531 L 59.421875 41.996094 L 57.242188 41.996094 L 56.082031 49.320312 C 55.558594 52.640625 54.039062 53.859375 51.199219 54 L 50.898438 51.960938 C 52.621094 51.800781 53.28125 51.179688 53.601562 49.179688 L 54.738281 41.996094 L 53.441406 41.996094 L 53.738281 40.277344 L 55.058594 40.058594 L 55.199219 39.15625 C 55.601562 36.597656 57 35.316406 59.222656 35.316406 C 60.042969 35.316406 60.582031 35.578125 60.742188 35.65625 L 60.203125 37.578125 "/>
<path style=" stroke:none;fill-rule:nonzero;fill:rgb(14.445496%,28.90625%,64.517212%);fill-opacity:1;" d="M 66.382812 41.996094 L 64.140625 41.996094 L 63.601562 45.378906 C 63.5 46.019531 63.421875 46.558594 63.421875 46.878906 C 63.421875 47.640625 63.761719 47.898438 64.320312 47.898438 C 64.839844 47.898438 65.121094 47.761719 65.28125 47.679688 L 65.460938 49.519531 C 65.179688 49.660156 64.601562 49.960938 63.5 49.960938 C 61.859375 49.960938 60.878906 49.160156 60.878906 47.257812 C 60.878906 46.796875 61 46.097656 61.101562 45.378906 L 61.640625 41.996094 L 60.339844 41.996094 L 60.640625 40.277344 L 61.941406 40.039062 L 62.660156 37.355469 L 64.878906 37.355469 L 64.441406 40.019531 L 66.722656 40.019531 L 66.382812 41.996094 "/>
<path style=" stroke:none;fill-rule:nonzero;fill:rgb(14.445496%,28.90625%,64.517212%);fill-opacity:1;" d="M 68.359375 50 C 67.4375 50 66.859375 49.417969 66.859375 48.480469 C 66.859375 47.539062 67.4375 46.960938 68.359375 46.960938 C 69.257812 46.960938 69.859375 47.539062 69.859375 48.480469 C 69.859375 49.417969 69.257812 50 68.359375 50 "/>
<path style=" stroke:none;fill-rule:nonzero;fill:rgb(14.445496%,28.90625%,64.517212%);fill-opacity:1;" d="M 11.824219 62.757812 C 11.460938 62.496094 10.683594 61.917969 9.140625 61.917969 C 6.28125 61.917969 4.0625 63.917969 4.0625 68.15625 C 4.0625 70.558594 5.160156 71.800781 7.242188 71.800781 C 7.742188 71.800781 8.222656 71.71875 8.582031 71.640625 L 9.101562 68.5 L 6.84375 68.5 L 7.160156 66.398438 L 11.921875 66.398438 L 10.921875 72.660156 C 10.503906 73 9.183594 74 6.683594 74 C 3.660156 74 1.300781 72.339844 1.300781 68.339844 C 1.300781 62.378906 5.140625 59.71875 9.28125 59.71875 C 11.222656 59.71875 12.242188 60.398438 12.644531 60.65625 L 11.824219 62.757812 "/>
<path style=" stroke:none;fill-rule:nonzero;fill:rgb(14.445496%,28.90625%,64.517212%);fill-opacity:1;" d="M 16.101562 67.9375 L 16.441406 67.9375 C 18.300781 67.9375 18.902344 67.339844 18.902344 66.4375 C 18.902344 65.898438 18.5625 65.636719 18.121094 65.636719 C 17.261719 65.636719 16.480469 66.4375 16.101562 67.9375 Z M 16.679688 69.578125 L 15.902344 69.578125 L 15.902344 69.878906 C 15.902344 71.320312 16.519531 71.9375 17.640625 71.9375 C 18.84375 71.9375 19.601562 71.359375 19.863281 71.117188 L 20.382812 72.898438 C 20.042969 73.21875 19.140625 74 17.222656 74 C 14.921875 74 13.460938 72.761719 13.460938 69.917969 C 13.460938 65.898438 16 63.777344 18.621094 63.777344 C 20.121094 63.777344 21.121094 64.597656 21.121094 66.175781 C 21.121094 68.480469 19.261719 69.578125 16.679688 69.578125 "/>
<path style=" stroke:none;fill-rule:nonzero;fill:rgb(14.445496%,28.90625%,64.517212%);fill-opacity:1;" d="M 28.203125 66.378906 C 27.941406 66.199219 27.261719 65.777344 26.261719 65.777344 C 25.5 65.777344 25.140625 66.078125 25.140625 66.539062 C 25.140625 67 25.421875 67.320312 26.140625 67.820312 L 26.621094 68.15625 C 27.683594 68.898438 28.382812 69.738281 28.382812 70.980469 C 28.382812 72.679688 27.082031 74 24.761719 74 C 23.121094 74 22.222656 73.339844 21.800781 73.019531 L 22.640625 71.019531 C 22.921875 71.28125 23.699219 71.9375 24.722656 71.9375 C 25.5 71.9375 25.960938 71.699219 25.960938 71.199219 C 25.960938 70.71875 25.660156 70.378906 24.902344 69.78125 L 24.421875 69.417969 C 23.421875 68.617188 22.820312 67.917969 22.820312 66.699219 C 22.820312 64.878906 24.382812 63.777344 26.460938 63.777344 C 27.800781 63.777344 28.582031 64.257812 28.882812 64.457031 L 28.203125 66.378906 "/>
<path style=" stroke:none;fill-rule:nonzero;fill:rgb(14.445496%,28.90625%,64.517212%);fill-opacity:1;" d="M 36.324219 66 L 34.082031 66 L 33.542969 69.378906 C 33.441406 70.019531 33.363281 70.558594 33.363281 70.878906 C 33.363281 71.640625 33.703125 71.898438 34.261719 71.898438 C 34.78125 71.898438 35.0625 71.761719 35.222656 71.679688 L 35.402344 73.519531 C 35.121094 73.660156 34.542969 73.960938 33.441406 73.960938 C 31.800781 73.960938 30.820312 73.160156 30.820312 71.257812 C 30.820312 70.800781 30.941406 70.097656 31.042969 69.378906 L 31.582031 66 L 30.28125 66 L 30.582031 64.277344 L 31.882812 64.039062 L 32.601562 61.355469 L 34.820312 61.355469 L 34.382812 64.019531 L 36.664062 64.019531 L 36.324219 66 "/>
<path style=" stroke:none;fill-rule:nonzero;fill:rgb(14.445496%,28.90625%,64.517212%);fill-opacity:1;" d="M 41.082031 71.898438 C 42.023438 71.898438 42.582031 71.378906 42.863281 71.117188 L 43.660156 66.097656 C 43.441406 65.957031 43.101562 65.777344 42.5625 65.777344 C 41.042969 65.777344 39.742188 67.078125 39.742188 70.019531 C 39.742188 71.28125 40.261719 71.898438 41.082031 71.898438 Z M 44.941406 73.761719 L 42.640625 73.761719 L 42.820312 72.601562 L 42.78125 72.601562 C 42.480469 73.019531 41.703125 74 40.101562 74 C 38.480469 74 37.222656 72.839844 37.222656 69.980469 C 37.222656 66 39.742188 63.777344 42.460938 63.777344 C 43.742188 63.777344 44.363281 64.296875 44.664062 64.558594 L 45.242188 64.019531 L 46.484375 64.019531 L 44.941406 73.761719 "/>
<path style=" stroke:none;fill-rule:nonzero;fill:rgb(14.445496%,28.90625%,64.517212%);fill-opacity:1;" d="M 51.761719 73.539062 C 51.519531 73.679688 50.941406 73.9375 50.082031 73.9375 C 48.71875 73.9375 47.839844 73.398438 47.839844 71.699219 C 47.839844 71.28125 47.960938 70.457031 48.160156 69.21875 L 49.660156 59.65625 L 52.203125 59.4375 L 50.640625 69.21875 C 50.441406 70.417969 50.359375 71.039062 50.359375 71.28125 C 50.359375 71.839844 50.5625 72 50.980469 72 C 51.339844 72 51.5625 71.898438 51.699219 71.859375 L 51.761719 73.539062 "/>
<path style=" stroke:none;fill-rule:nonzero;fill:rgb(14.445496%,28.90625%,64.517212%);fill-opacity:1;" d="M 59.542969 66 L 57.300781 66 L 56.761719 69.378906 C 56.660156 70.019531 56.582031 70.558594 56.582031 70.878906 C 56.582031 71.640625 56.921875 71.898438 57.480469 71.898438 C 58 71.898438 58.28125 71.761719 58.441406 71.679688 L 58.621094 73.519531 C 58.339844 73.660156 57.761719 73.960938 56.660156 73.960938 C 55.019531 73.960938 54.039062 73.160156 54.039062 71.257812 C 54.039062 70.800781 54.160156 70.097656 54.261719 69.378906 L 54.800781 66 L 53.5 66 L 53.800781 64.277344 L 55.101562 64.039062 L 55.820312 61.355469 L 58.039062 61.355469 L 57.601562 64.019531 L 59.882812 64.019531 L 59.542969 66 "/>
<path style=" stroke:none;fill-rule:nonzero;fill:rgb(14.445496%,28.90625%,64.517212%);fill-opacity:1;" d="M 63.078125 67.9375 L 63.421875 67.9375 C 65.28125 67.9375 65.878906 67.339844 65.878906 66.4375 C 65.878906 65.898438 65.539062 65.636719 65.101562 65.636719 C 64.242188 65.636719 63.460938 66.4375 63.078125 67.9375 Z M 63.660156 69.578125 L 62.878906 69.578125 L 62.878906 69.878906 C 62.878906 71.320312 63.5 71.9375 64.621094 71.9375 C 65.820312 71.9375 66.582031 71.359375 66.839844 71.117188 L 67.359375 72.898438 C 67.019531 73.21875 66.121094 74 64.199219 74 C 61.898438 74 60.441406 72.761719 60.441406 69.917969 C 60.441406 65.898438 62.980469 63.777344 65.601562 63.777344 C 67.101562 63.777344 68.101562 64.597656 68.101562 66.175781 C 68.101562 68.480469 66.242188 69.578125 63.660156 69.578125 "/>
<path style=" stroke:none;fill-rule:nonzero;fill:rgb(14.445496%,28.90625%,64.517212%);fill-opacity:1;" d="M 78.082031 68.65625 L 77.261719 73.761719 L 74.761719 73.761719 L 75.582031 68.65625 C 75.679688 68.019531 75.742188 67.519531 75.742188 67.15625 C 75.742188 66.277344 75.421875 65.878906 74.679688 65.878906 C 73.820312 65.878906 73.121094 66.378906 72.71875 66.71875 L 71.621094 73.761719 L 69.121094 73.761719 L 70.660156 64.019531 L 72.941406 64.019531 L 72.738281 65.296875 L 72.78125 65.296875 C 73.238281 64.777344 74.242188 63.777344 75.941406 63.777344 C 77.460938 63.777344 78.300781 64.757812 78.300781 66.597656 C 78.300781 67.058594 78.242188 67.738281 78.082031 68.65625 "/>
<path style=" stroke:none;fill-rule:nonzero;fill:rgb(14.445496%,28.90625%,64.517212%);fill-opacity:1;" d="M 81.058594 74 C 80.140625 74 79.558594 73.421875 79.558594 72.480469 C 79.558594 71.539062 80.140625 70.957031 81.058594 70.957031 C 81.960938 70.957031 82.558594 71.539062 82.558594 72.480469 C 82.558594 73.421875 81.960938 74 81.058594 74 "/>
</g>
</svg>
