<?xml version="1.0" encoding="UTF-8"?>
<svg xmlns="http://www.w3.org/2000/svg" xmlns:xlink="http://www.w3.org/1999/xlink" width="50pt" height="56pt" viewBox="0 0 50 56" version="1.1">
<defs>
<clipPath id="clip1">
  <path d="M 45 40 L 49.671875 40 L 49.671875 46 L 45 46 Z M 45 40 "/>
</clipPath>
<clipPath id="clip2">
  <path d="M 0 0.578125 L 49.671875 0.578125 L 49.671875 34 L 0 34 Z M 0 0.578125 "/>
</clipPath>
</defs>
<g id="surface1">
<path style=" stroke:none;fill-rule:nonzero;fill:rgb(13.729858%,12.159729%,12.548828%);fill-opacity:1;" d="M 0.148438 45.492188 L 0.148438 38.660156 L 4.46875 38.660156 L 4.46875 39.46875 L 1.066406 39.46875 L 1.066406 41.339844 L 4.234375 41.339844 L 4.234375 42.148438 L 1.066406 42.148438 L 1.066406 44.683594 L 4.46875 44.683594 L 4.46875 45.492188 L 0.148438 45.492188 "/>
<path style=" stroke:none;fill-rule:nonzero;fill:rgb(13.729858%,12.159729%,12.548828%);fill-opacity:1;" d="M 9.441406 45.492188 L 8.570312 45.492188 L 8.570312 44.921875 C 8.300781 45.15625 8.046875 45.332031 7.804688 45.453125 C 7.5625 45.574219 7.292969 45.632812 6.996094 45.632812 C 6.769531 45.632812 6.558594 45.59375 6.359375 45.523438 C 6.160156 45.449219 5.988281 45.332031 5.835938 45.175781 C 5.6875 45.015625 5.574219 44.816406 5.492188 44.574219 C 5.410156 44.332031 5.371094 44.039062 5.371094 43.691406 L 5.371094 40.367188 L 6.242188 40.367188 L 6.242188 43.285156 C 6.242188 43.554688 6.25 43.78125 6.269531 43.960938 C 6.292969 44.140625 6.335938 44.296875 6.410156 44.429688 C 6.480469 44.5625 6.578125 44.65625 6.699219 44.71875 C 6.820312 44.78125 6.996094 44.8125 7.226562 44.8125 C 7.4375 44.8125 7.664062 44.753906 7.90625 44.632812 C 8.148438 44.515625 8.367188 44.367188 8.570312 44.191406 L 8.570312 40.367188 L 9.441406 40.367188 L 9.441406 45.492188 "/>
<path style=" stroke:none;fill-rule:nonzero;fill:rgb(13.729858%,12.159729%,12.548828%);fill-opacity:1;" d="M 13.449219 41.292969 L 13.402344 41.292969 C 13.335938 41.273438 13.269531 41.261719 13.195312 41.257812 C 13.121094 41.253906 13.035156 41.25 12.933594 41.25 C 12.699219 41.25 12.464844 41.300781 12.230469 41.402344 C 12 41.503906 11.78125 41.652344 11.574219 41.851562 L 11.574219 45.492188 L 10.703125 45.492188 L 10.703125 40.367188 L 11.574219 40.367188 L 11.574219 41.128906 C 11.894531 40.847656 12.167969 40.652344 12.40625 40.539062 C 12.644531 40.421875 12.871094 40.367188 13.09375 40.367188 C 13.183594 40.367188 13.253906 40.367188 13.296875 40.371094 C 13.34375 40.378906 13.390625 40.382812 13.449219 40.394531 L 13.449219 41.292969 "/>
<path style=" stroke:none;fill-rule:nonzero;fill:rgb(13.729858%,12.159729%,12.548828%);fill-opacity:1;" d="M 17.441406 42.929688 C 17.441406 42.269531 17.316406 41.773438 17.074219 41.453125 C 16.828125 41.128906 16.480469 40.96875 16.03125 40.96875 C 15.574219 40.96875 15.226562 41.128906 14.980469 41.453125 C 14.734375 41.773438 14.609375 42.269531 14.609375 42.929688 C 14.609375 43.574219 14.734375 44.058594 14.980469 44.394531 C 15.226562 44.722656 15.574219 44.890625 16.03125 44.890625 C 16.476562 44.890625 16.824219 44.726562 17.070312 44.402344 C 17.316406 44.074219 17.441406 43.585938 17.441406 42.929688 Z M 18.339844 42.929688 C 18.339844 43.792969 18.128906 44.460938 17.710938 44.929688 C 17.289062 45.398438 16.726562 45.632812 16.03125 45.632812 C 15.308594 45.632812 14.742188 45.390625 14.332031 44.90625 C 13.917969 44.421875 13.710938 43.761719 13.710938 42.929688 C 13.710938 42.074219 13.921875 41.410156 14.347656 40.933594 C 14.773438 40.460938 15.335938 40.222656 16.03125 40.222656 C 16.726562 40.222656 17.289062 40.460938 17.710938 40.933594 C 18.128906 41.40625 18.339844 42.074219 18.339844 42.929688 "/>
<path style=" stroke:none;fill-rule:nonzero;fill:rgb(13.729858%,12.159729%,12.548828%);fill-opacity:1;" d="M 22.679688 42.890625 C 22.679688 42.304688 22.585938 41.851562 22.398438 41.53125 C 22.207031 41.207031 21.902344 41.046875 21.476562 41.046875 C 21.230469 41.046875 20.992188 41.097656 20.761719 41.210938 C 20.53125 41.316406 20.3125 41.457031 20.105469 41.628906 L 20.105469 44.53125 C 20.335938 44.640625 20.53125 44.714844 20.695312 44.757812 C 20.855469 44.796875 21.039062 44.816406 21.25 44.816406 C 21.703125 44.816406 22.054688 44.652344 22.304688 44.324219 C 22.554688 43.996094 22.679688 43.519531 22.679688 42.890625 Z M 23.578125 42.792969 C 23.578125 43.648438 23.371094 44.328125 22.960938 44.832031 C 22.546875 45.339844 22.027344 45.59375 21.394531 45.59375 C 21.140625 45.59375 20.910156 45.5625 20.714844 45.503906 C 20.515625 45.445312 20.3125 45.355469 20.105469 45.234375 L 20.105469 47.378906 L 19.234375 47.378906 L 19.234375 40.367188 L 20.105469 40.367188 L 20.105469 40.90625 C 20.320312 40.710938 20.5625 40.550781 20.828125 40.417969 C 21.09375 40.289062 21.378906 40.222656 21.691406 40.222656 C 22.285156 40.222656 22.746094 40.457031 23.082031 40.921875 C 23.414062 41.386719 23.578125 42.011719 23.578125 42.792969 "/>
<path style=" stroke:none;fill-rule:nonzero;fill:rgb(13.729858%,12.159729%,12.548828%);fill-opacity:1;" d="M 27.722656 39.507812 L 26.792969 39.507812 L 26.792969 38.613281 L 27.722656 38.613281 Z M 27.378906 44.230469 L 27.378906 42.804688 C 27.167969 42.824219 26.90625 42.851562 26.589844 42.882812 C 26.273438 42.914062 26.019531 42.960938 25.824219 43.019531 C 25.59375 43.089844 25.398438 43.199219 25.25 43.34375 C 25.097656 43.484375 25.023438 43.6875 25.023438 43.949219 C 25.023438 44.242188 25.105469 44.464844 25.273438 44.613281 C 25.4375 44.765625 25.683594 44.839844 26.003906 44.839844 C 26.28125 44.839844 26.527344 44.78125 26.75 44.660156 C 26.972656 44.542969 27.183594 44.402344 27.378906 44.230469 Z M 25.808594 39.507812 L 24.878906 39.507812 L 24.878906 38.613281 L 25.808594 38.613281 Z M 27.378906 44.945312 C 27.304688 44.996094 27.210938 45.070312 27.089844 45.164062 C 26.972656 45.253906 26.855469 45.332031 26.746094 45.386719 C 26.59375 45.464844 26.441406 45.527344 26.296875 45.570312 C 26.15625 45.609375 25.953125 45.632812 25.695312 45.632812 C 25.480469 45.632812 25.277344 45.59375 25.085938 45.515625 C 24.894531 45.433594 24.726562 45.324219 24.582031 45.179688 C 24.441406 45.039062 24.332031 44.863281 24.246094 44.65625 C 24.164062 44.453125 24.121094 44.234375 24.121094 44.003906 C 24.121094 43.648438 24.199219 43.347656 24.347656 43.097656 C 24.5 42.847656 24.738281 42.652344 25.070312 42.503906 C 25.359375 42.371094 25.703125 42.28125 26.097656 42.230469 C 26.492188 42.179688 26.917969 42.144531 27.378906 42.117188 L 27.378906 41.953125 C 27.378906 41.75 27.34375 41.589844 27.28125 41.464844 C 27.222656 41.34375 27.136719 41.242188 27.023438 41.179688 C 26.914062 41.109375 26.777344 41.0625 26.617188 41.039062 C 26.457031 41.015625 26.289062 41.003906 26.121094 41.003906 C 25.917969 41.003906 25.683594 41.035156 25.410156 41.09375 C 25.140625 41.152344 24.863281 41.238281 24.59375 41.351562 L 24.542969 41.351562 L 24.542969 40.476562 C 24.703125 40.429688 24.933594 40.382812 25.234375 40.328125 C 25.535156 40.273438 25.832031 40.242188 26.125 40.242188 C 26.480469 40.242188 26.78125 40.273438 27.023438 40.328125 C 27.269531 40.382812 27.488281 40.480469 27.683594 40.625 C 27.871094 40.765625 28.011719 40.945312 28.105469 41.167969 C 28.199219 41.394531 28.242188 41.664062 28.242188 41.984375 L 28.242188 45.492188 L 27.378906 45.492188 L 27.378906 44.945312 "/>
<path style=" stroke:none;fill-rule:nonzero;fill:rgb(13.729858%,12.159729%,12.548828%);fill-opacity:1;" d="M 30.355469 45.492188 L 29.484375 45.492188 L 29.484375 40.367188 L 30.355469 40.367188 Z M 30.417969 39.507812 L 29.425781 39.507812 L 29.425781 38.613281 L 30.417969 38.613281 L 30.417969 39.507812 "/>
<path style=" stroke:none;fill-rule:nonzero;fill:rgb(13.729858%,12.159729%,12.548828%);fill-opacity:1;" d="M 33.039062 45.613281 C 32.691406 45.613281 32.367188 45.570312 32.066406 45.476562 C 31.765625 45.386719 31.515625 45.285156 31.316406 45.183594 L 31.316406 44.214844 L 31.363281 44.214844 C 31.441406 44.273438 31.527344 44.339844 31.628906 44.40625 C 31.726562 44.476562 31.859375 44.550781 32.027344 44.628906 C 32.175781 44.695312 32.339844 44.757812 32.515625 44.808594 C 32.695312 44.859375 32.878906 44.886719 33.070312 44.886719 C 33.210938 44.886719 33.359375 44.871094 33.515625 44.835938 C 33.671875 44.804688 33.792969 44.765625 33.867188 44.714844 C 33.976562 44.644531 34.054688 44.570312 34.101562 44.492188 C 34.152344 44.410156 34.175781 44.289062 34.175781 44.132812 C 34.175781 43.925781 34.117188 43.773438 34.007812 43.671875 C 33.894531 43.566406 33.691406 43.476562 33.40625 43.40625 C 33.292969 43.378906 33.148438 43.347656 32.96875 43.3125 C 32.789062 43.277344 32.625 43.234375 32.472656 43.195312 C 32.078125 43.078125 31.789062 42.90625 31.609375 42.667969 C 31.429688 42.429688 31.34375 42.144531 31.34375 41.808594 C 31.34375 41.34375 31.519531 40.96875 31.871094 40.675781 C 32.222656 40.386719 32.691406 40.242188 33.277344 40.242188 C 33.5625 40.242188 33.851562 40.28125 34.144531 40.347656 C 34.433594 40.417969 34.675781 40.507812 34.875 40.613281 L 34.875 41.535156 L 34.828125 41.535156 C 34.605469 41.359375 34.359375 41.226562 34.085938 41.125 C 33.808594 41.023438 33.535156 40.972656 33.257812 40.972656 C 32.96875 40.972656 32.726562 41.03125 32.527344 41.152344 C 32.332031 41.269531 32.230469 41.453125 32.230469 41.691406 C 32.230469 41.90625 32.289062 42.066406 32.40625 42.171875 C 32.527344 42.277344 32.714844 42.363281 32.972656 42.429688 C 33.101562 42.464844 33.246094 42.496094 33.40625 42.53125 C 33.566406 42.558594 33.734375 42.597656 33.910156 42.644531 C 34.292969 42.738281 34.582031 42.894531 34.777344 43.113281 C 34.96875 43.335938 35.066406 43.636719 35.066406 44.015625 C 35.066406 44.234375 35.019531 44.441406 34.933594 44.640625 C 34.84375 44.835938 34.714844 45.007812 34.546875 45.148438 C 34.359375 45.300781 34.152344 45.417969 33.917969 45.496094 C 33.683594 45.574219 33.390625 45.613281 33.039062 45.613281 "/>
<path style=" stroke:none;fill-rule:nonzero;fill:rgb(13.729858%,12.159729%,12.548828%);fill-opacity:1;" d="M 37.933594 45.605469 C 37.582031 45.605469 37.253906 45.550781 36.957031 45.445312 C 36.660156 45.335938 36.40625 45.167969 36.191406 44.949219 C 35.976562 44.730469 35.8125 44.453125 35.695312 44.117188 C 35.578125 43.78125 35.519531 43.386719 35.519531 42.9375 C 35.519531 42.484375 35.582031 42.097656 35.703125 41.769531 C 35.824219 41.445312 35.988281 41.167969 36.191406 40.945312 C 36.394531 40.71875 36.652344 40.550781 36.957031 40.429688 C 37.261719 40.308594 37.585938 40.246094 37.933594 40.246094 C 38.21875 40.246094 38.492188 40.285156 38.757812 40.367188 C 39.023438 40.445312 39.257812 40.539062 39.464844 40.640625 L 39.464844 41.609375 L 39.414062 41.609375 C 39.351562 41.558594 39.273438 41.496094 39.175781 41.429688 C 39.078125 41.363281 38.960938 41.292969 38.820312 41.226562 C 38.699219 41.164062 38.558594 41.109375 38.394531 41.066406 C 38.230469 41.015625 38.074219 40.996094 37.921875 40.996094 C 37.46875 40.996094 37.105469 41.164062 36.835938 41.503906 C 36.558594 41.839844 36.421875 42.316406 36.421875 42.9375 C 36.421875 43.539062 36.554688 44.011719 36.820312 44.351562 C 37.085938 44.6875 37.453125 44.859375 37.921875 44.859375 C 38.207031 44.859375 38.476562 44.800781 38.734375 44.683594 C 38.988281 44.566406 39.214844 44.417969 39.414062 44.234375 L 39.464844 44.234375 L 39.464844 45.199219 C 39.378906 45.242188 39.269531 45.289062 39.140625 45.347656 C 39.011719 45.402344 38.894531 45.445312 38.789062 45.472656 C 38.640625 45.515625 38.507812 45.546875 38.390625 45.570312 C 38.273438 45.59375 38.121094 45.605469 37.933594 45.605469 "/>
<path style=" stroke:none;fill-rule:nonzero;fill:rgb(13.729858%,12.159729%,12.548828%);fill-opacity:1;" d="M 44.328125 45.492188 L 43.457031 45.492188 L 43.457031 42.574219 C 43.457031 42.335938 43.445312 42.117188 43.421875 41.914062 C 43.398438 41.710938 43.355469 41.546875 43.289062 41.425781 C 43.21875 41.296875 43.121094 41.203125 42.992188 41.140625 C 42.867188 41.078125 42.695312 41.046875 42.476562 41.046875 C 42.257812 41.046875 42.035156 41.101562 41.804688 41.21875 C 41.574219 41.332031 41.347656 41.480469 41.128906 41.664062 L 41.128906 45.492188 L 40.257812 45.492188 L 40.257812 38.351562 L 41.128906 38.351562 L 41.128906 40.933594 C 41.390625 40.707031 41.644531 40.53125 41.898438 40.40625 C 42.15625 40.285156 42.421875 40.222656 42.703125 40.222656 C 43.210938 40.222656 43.609375 40.390625 43.898438 40.722656 C 44.183594 41.054688 44.328125 41.535156 44.328125 42.164062 L 44.328125 45.492188 "/>
<g clip-path="url(#clip1)" clip-rule="nonzero">
<path style=" stroke:none;fill-rule:nonzero;fill:rgb(13.729858%,12.159729%,12.548828%);fill-opacity:1;" d="M 48.824219 42.359375 C 48.816406 42.125 48.789062 41.925781 48.738281 41.757812 C 48.691406 41.589844 48.617188 41.449219 48.527344 41.332031 C 48.421875 41.203125 48.292969 41.101562 48.132812 41.035156 C 47.972656 40.96875 47.777344 40.933594 47.542969 40.933594 C 47.3125 40.933594 47.113281 40.96875 46.953125 41.039062 C 46.789062 41.105469 46.640625 41.207031 46.507812 41.339844 C 46.378906 41.472656 46.28125 41.621094 46.210938 41.785156 C 46.144531 41.949219 46.101562 42.140625 46.082031 42.359375 Z M 47.800781 45.609375 C 46.976562 45.609375 46.335938 45.378906 45.878906 44.917969 C 45.425781 44.460938 45.195312 43.804688 45.195312 42.960938 C 45.195312 42.125 45.417969 41.460938 45.859375 40.964844 C 46.300781 40.46875 46.878906 40.222656 47.59375 40.222656 C 47.914062 40.222656 48.199219 40.273438 48.449219 40.363281 C 48.695312 40.453125 48.910156 40.597656 49.097656 40.792969 C 49.28125 40.988281 49.421875 41.230469 49.523438 41.511719 C 49.621094 41.792969 49.671875 42.140625 49.671875 42.550781 L 49.671875 43.019531 L 46.082031 43.019531 C 46.082031 43.613281 46.230469 44.070312 46.535156 44.386719 C 46.839844 44.699219 47.257812 44.859375 47.792969 44.859375 C 47.984375 44.859375 48.171875 44.835938 48.355469 44.792969 C 48.539062 44.75 48.707031 44.695312 48.855469 44.628906 C 49.011719 44.558594 49.144531 44.488281 49.253906 44.421875 C 49.363281 44.355469 49.453125 44.296875 49.523438 44.238281 L 49.574219 44.238281 L 49.574219 45.179688 C 49.472656 45.21875 49.34375 45.269531 49.195312 45.328125 C 49.042969 45.386719 48.90625 45.433594 48.785156 45.46875 C 48.613281 45.515625 48.460938 45.546875 48.324219 45.574219 C 48.1875 45.597656 48.011719 45.609375 47.800781 45.609375 "/>
</g>
<path style=" stroke:none;fill-rule:nonzero;fill:rgb(13.729858%,12.159729%,12.548828%);fill-opacity:1;" d="M 2.558594 56 C 2.15625 56 1.800781 55.945312 1.496094 55.839844 C 1.195312 55.734375 0.9375 55.578125 0.722656 55.371094 C 0.484375 55.132812 0.3125 54.847656 0.214844 54.515625 C 0.113281 54.183594 0.0625 53.773438 0.0625 53.289062 L 0.0625 49.027344 L 0.984375 49.027344 L 0.984375 53.289062 C 0.984375 53.605469 1.003906 53.867188 1.042969 54.082031 C 1.082031 54.300781 1.164062 54.492188 1.28125 54.664062 C 1.40625 54.847656 1.570312 54.988281 1.78125 55.082031 C 1.996094 55.175781 2.253906 55.226562 2.558594 55.226562 C 2.847656 55.226562 3.101562 55.175781 3.324219 55.082031 C 3.546875 54.988281 3.71875 54.847656 3.84375 54.664062 C 3.957031 54.492188 4.035156 54.296875 4.078125 54.085938 C 4.121094 53.875 4.140625 53.617188 4.140625 53.3125 L 4.140625 49.027344 L 5.058594 49.027344 L 5.058594 53.289062 C 5.058594 53.761719 5.011719 54.167969 4.914062 54.507812 C 4.816406 54.847656 4.644531 55.136719 4.398438 55.371094 C 4.179688 55.582031 3.925781 55.738281 3.632812 55.84375 C 3.339844 55.945312 2.980469 56 2.558594 56 "/>
<path style=" stroke:none;fill-rule:nonzero;fill:rgb(13.729858%,12.159729%,12.548828%);fill-opacity:1;" d="M 10.378906 55.859375 L 9.503906 55.859375 L 9.503906 52.9375 C 9.503906 52.703125 9.492188 52.488281 9.46875 52.28125 C 9.449219 52.078125 9.402344 51.914062 9.339844 51.792969 C 9.269531 51.664062 9.167969 51.570312 9.042969 51.507812 C 8.914062 51.445312 8.742188 51.414062 8.523438 51.414062 C 8.304688 51.414062 8.082031 51.46875 7.851562 51.582031 C 7.621094 51.699219 7.398438 51.851562 7.179688 52.03125 L 7.179688 55.859375 L 6.304688 55.859375 L 6.304688 50.734375 L 7.179688 50.734375 L 7.179688 51.300781 C 7.4375 51.074219 7.695312 50.898438 7.949219 50.773438 C 8.199219 50.652344 8.46875 50.589844 8.75 50.589844 C 9.261719 50.589844 9.65625 50.757812 9.945312 51.089844 C 10.234375 51.421875 10.378906 51.902344 10.378906 52.53125 L 10.378906 55.859375 "/>
<path style=" stroke:none;fill-rule:nonzero;fill:rgb(13.729858%,12.159729%,12.548828%);fill-opacity:1;" d="M 12.492188 55.859375 L 11.621094 55.859375 L 11.621094 50.734375 L 12.492188 50.734375 Z M 12.550781 49.875 L 11.558594 49.875 L 11.558594 48.980469 L 12.550781 48.980469 L 12.550781 49.875 "/>
<path style=" stroke:none;fill-rule:nonzero;fill:rgb(13.729858%,12.159729%,12.548828%);fill-opacity:1;" d="M 17.132812 53.296875 C 17.132812 52.632812 17.011719 52.140625 16.765625 51.820312 C 16.523438 51.496094 16.175781 51.335938 15.722656 51.335938 C 15.269531 51.335938 14.917969 51.496094 14.671875 51.820312 C 14.429688 52.140625 14.304688 52.632812 14.304688 53.296875 C 14.304688 53.941406 14.429688 54.425781 14.671875 54.761719 C 14.917969 55.089844 15.269531 55.253906 15.722656 55.253906 C 16.171875 55.253906 16.519531 55.09375 16.765625 54.769531 C 17.011719 54.441406 17.132812 53.953125 17.132812 53.296875 Z M 18.035156 53.296875 C 18.035156 54.160156 17.824219 54.824219 17.402344 55.296875 C 16.980469 55.765625 16.421875 56 15.722656 56 C 15.003906 56 14.4375 55.757812 14.023438 55.273438 C 13.609375 54.789062 13.40625 54.128906 13.40625 53.296875 C 13.40625 52.441406 13.617188 51.777344 14.042969 51.300781 C 14.46875 50.828125 15.027344 50.589844 15.722656 50.589844 C 16.421875 50.589844 16.980469 50.828125 17.402344 51.300781 C 17.824219 51.773438 18.035156 52.4375 18.035156 53.296875 "/>
<path style=" stroke:none;fill-rule:nonzero;fill:rgb(13.729858%,12.159729%,12.548828%);fill-opacity:1;" d="M 23 55.859375 L 22.128906 55.859375 L 22.128906 52.9375 C 22.128906 52.703125 22.113281 52.488281 22.09375 52.28125 C 22.070312 52.078125 22.027344 51.914062 21.960938 51.792969 C 21.890625 51.664062 21.789062 51.570312 21.664062 51.507812 C 21.535156 51.445312 21.363281 51.414062 21.144531 51.414062 C 20.925781 51.414062 20.707031 51.46875 20.472656 51.582031 C 20.242188 51.699219 20.019531 51.851562 19.800781 52.03125 L 19.800781 55.859375 L 18.925781 55.859375 L 18.925781 50.734375 L 19.800781 50.734375 L 19.800781 51.300781 C 20.058594 51.074219 20.316406 50.898438 20.570312 50.773438 C 20.824219 50.652344 21.089844 50.589844 21.371094 50.589844 C 21.882812 50.589844 22.28125 50.757812 22.570312 51.089844 C 22.855469 51.421875 23 51.902344 23 52.53125 L 23 55.859375 "/>
<g clip-path="url(#clip2)" clip-rule="nonzero">
<path style=" stroke:none;fill-rule:nonzero;fill:rgb(14.445496%,28.90625%,64.517212%);fill-opacity:1;" d="M 0 0.578125 L 49.605469 0.578125 L 49.605469 33.648438 L 0 33.648438 L 0 0.578125 "/>
</g>
<path style=" stroke:none;fill-rule:nonzero;fill:rgb(100%,94.898987%,0%);fill-opacity:1;" d="M 15.179688 9.410156 L 15.589844 10.582031 L 16.839844 10.609375 L 15.84375 11.359375 L 16.207031 12.546875 L 15.179688 11.835938 L 14.15625 12.546875 L 14.519531 11.359375 L 13.523438 10.609375 L 14.769531 10.582031 L 15.179688 9.410156 "/>
<path style=" stroke:none;fill-rule:nonzero;fill:rgb(100%,94.898987%,0%);fill-opacity:1;" d="M 15.179688 9.410156 L 15.589844 10.582031 L 16.839844 10.609375 L 15.84375 11.359375 L 16.207031 12.546875 L 15.179688 11.835938 L 14.15625 12.546875 L 14.519531 11.359375 L 13.523438 10.609375 L 14.769531 10.582031 L 15.179688 9.410156 "/>
<path style=" stroke:none;fill-rule:nonzero;fill:rgb(100%,94.898987%,0%);fill-opacity:1;" d="M 19.238281 5.375 L 19.648438 6.546875 L 20.898438 6.574219 L 19.902344 7.324219 L 20.261719 8.511719 L 19.238281 7.800781 L 18.214844 8.511719 L 18.578125 7.324219 L 17.582031 6.574219 L 18.828125 6.546875 L 19.238281 5.375 "/>
<path style=" stroke:none;fill-rule:nonzero;fill:rgb(100%,94.898987%,0%);fill-opacity:1;" d="M 19.238281 5.375 L 19.648438 6.546875 L 20.898438 6.574219 L 19.902344 7.324219 L 20.261719 8.511719 L 19.238281 7.800781 L 18.214844 8.511719 L 18.578125 7.324219 L 17.582031 6.574219 L 18.828125 6.546875 L 19.238281 5.375 "/>
<path style=" stroke:none;fill-rule:nonzero;fill:rgb(100%,94.898987%,0%);fill-opacity:1;" d="M 24.828125 3.90625 L 25.238281 5.082031 L 26.484375 5.105469 L 25.492188 5.855469 L 25.851562 7.042969 L 24.828125 6.335938 L 23.804688 7.042969 L 24.164062 5.855469 L 23.171875 5.105469 L 24.417969 5.082031 L 24.828125 3.90625 "/>
<path style=" stroke:none;fill-rule:nonzero;fill:rgb(100%,94.898987%,0%);fill-opacity:1;" d="M 24.828125 3.90625 L 25.238281 5.082031 L 26.484375 5.105469 L 25.492188 5.855469 L 25.851562 7.042969 L 24.828125 6.335938 L 23.804688 7.042969 L 24.164062 5.855469 L 23.171875 5.105469 L 24.417969 5.082031 L 24.828125 3.90625 "/>
<path style=" stroke:none;fill-rule:nonzero;fill:rgb(100%,94.898987%,0%);fill-opacity:1;" d="M 30.367188 5.375 L 30.777344 6.546875 L 32.023438 6.574219 L 31.03125 7.324219 L 31.394531 8.511719 L 30.367188 7.800781 L 29.34375 8.511719 L 29.703125 7.324219 L 28.710938 6.574219 L 29.957031 6.546875 L 30.367188 5.375 "/>
<path style=" stroke:none;fill-rule:nonzero;fill:rgb(100%,94.898987%,0%);fill-opacity:1;" d="M 30.367188 5.375 L 30.777344 6.546875 L 32.023438 6.574219 L 31.03125 7.324219 L 31.394531 8.511719 L 30.367188 7.800781 L 29.34375 8.511719 L 29.703125 7.324219 L 28.710938 6.574219 L 29.957031 6.546875 L 30.367188 5.375 "/>
<path style=" stroke:none;fill-rule:nonzero;fill:rgb(100%,94.898987%,0%);fill-opacity:1;" d="M 34.425781 9.410156 L 34.835938 10.582031 L 36.082031 10.609375 L 35.089844 11.359375 L 35.449219 12.546875 L 34.425781 11.835938 L 33.402344 12.546875 L 33.761719 11.359375 L 32.769531 10.609375 L 34.015625 10.582031 L 34.425781 9.410156 "/>
<path style=" stroke:none;fill-rule:nonzero;fill:rgb(100%,94.898987%,0%);fill-opacity:1;" d="M 34.425781 9.410156 L 34.835938 10.582031 L 36.082031 10.609375 L 35.089844 11.359375 L 35.449219 12.546875 L 34.425781 11.835938 L 33.402344 12.546875 L 33.761719 11.359375 L 32.769531 10.609375 L 34.015625 10.582031 L 34.425781 9.410156 "/>
<path style=" stroke:none;fill-rule:nonzero;fill:rgb(100%,94.898987%,0%);fill-opacity:1;" d="M 35.902344 15.125 L 36.308594 16.300781 L 37.558594 16.324219 L 36.5625 17.074219 L 36.925781 18.261719 L 35.902344 17.554688 L 34.875 18.261719 L 35.238281 17.074219 L 34.242188 16.324219 L 35.488281 16.300781 L 35.902344 15.125 "/>
<path style=" stroke:none;fill-rule:nonzero;fill:rgb(100%,94.898987%,0%);fill-opacity:1;" d="M 35.902344 15.125 L 36.308594 16.300781 L 37.558594 16.324219 L 36.5625 17.074219 L 36.925781 18.261719 L 35.902344 17.554688 L 34.875 18.261719 L 35.238281 17.074219 L 34.242188 16.324219 L 35.488281 16.300781 L 35.902344 15.125 "/>
<path style=" stroke:none;fill-rule:nonzero;fill:rgb(100%,94.898987%,0%);fill-opacity:1;" d="M 34.425781 20.601562 L 34.835938 21.769531 L 36.082031 21.796875 L 35.089844 22.546875 L 35.449219 23.734375 L 34.425781 23.027344 L 33.402344 23.734375 L 33.761719 22.546875 L 32.769531 21.796875 L 34.015625 21.769531 L 34.425781 20.601562 "/>
<path style=" stroke:none;fill-rule:nonzero;fill:rgb(100%,94.898987%,0%);fill-opacity:1;" d="M 34.425781 20.601562 L 34.835938 21.769531 L 36.082031 21.796875 L 35.089844 22.546875 L 35.449219 23.734375 L 34.425781 23.027344 L 33.402344 23.734375 L 33.761719 22.546875 L 32.769531 21.796875 L 34.015625 21.769531 L 34.425781 20.601562 "/>
<path style=" stroke:none;fill-rule:nonzero;fill:rgb(100%,94.898987%,0%);fill-opacity:1;" d="M 30.367188 24.785156 L 30.777344 25.960938 L 32.023438 25.984375 L 31.03125 26.734375 L 31.394531 27.921875 L 30.367188 27.214844 L 29.34375 27.921875 L 29.703125 26.734375 L 28.710938 25.984375 L 29.957031 25.960938 L 30.367188 24.785156 "/>
<path style=" stroke:none;fill-rule:nonzero;fill:rgb(100%,94.898987%,0%);fill-opacity:1;" d="M 30.367188 24.785156 L 30.777344 25.960938 L 32.023438 25.984375 L 31.03125 26.734375 L 31.394531 27.921875 L 30.367188 27.214844 L 29.34375 27.921875 L 29.703125 26.734375 L 28.710938 25.984375 L 29.957031 25.960938 L 30.367188 24.785156 "/>
<path style=" stroke:none;fill-rule:nonzero;fill:rgb(100%,94.898987%,0%);fill-opacity:1;" d="M 24.828125 26.285156 L 25.238281 27.457031 L 26.484375 27.480469 L 25.492188 28.230469 L 25.851562 29.417969 L 24.828125 28.710938 L 23.804688 29.417969 L 24.164062 28.230469 L 23.171875 27.480469 L 24.417969 27.457031 L 24.828125 26.285156 "/>
<path style=" stroke:none;fill-rule:nonzero;fill:rgb(100%,94.898987%,0%);fill-opacity:1;" d="M 24.828125 26.285156 L 25.238281 27.457031 L 26.484375 27.480469 L 25.492188 28.230469 L 25.851562 29.417969 L 24.828125 28.710938 L 23.804688 29.417969 L 24.164062 28.230469 L 23.171875 27.480469 L 24.417969 27.457031 L 24.828125 26.285156 "/>
<path style=" stroke:none;fill-rule:nonzero;fill:rgb(100%,94.898987%,0%);fill-opacity:1;" d="M 19.238281 24.785156 L 19.648438 25.960938 L 20.898438 25.984375 L 19.902344 26.734375 L 20.261719 27.921875 L 19.238281 27.214844 L 18.214844 27.921875 L 18.578125 26.734375 L 17.582031 25.984375 L 18.828125 25.960938 L 19.238281 24.785156 "/>
<path style=" stroke:none;fill-rule:nonzero;fill:rgb(100%,94.898987%,0%);fill-opacity:1;" d="M 19.238281 24.785156 L 19.648438 25.960938 L 20.898438 25.984375 L 19.902344 26.734375 L 20.261719 27.921875 L 19.238281 27.214844 L 18.214844 27.921875 L 18.578125 26.734375 L 17.582031 25.984375 L 18.828125 25.960938 L 19.238281 24.785156 "/>
<path style=" stroke:none;fill-rule:nonzero;fill:rgb(100%,94.898987%,0%);fill-opacity:1;" d="M 15.179688 20.601562 L 15.589844 21.769531 L 16.839844 21.796875 L 15.84375 22.546875 L 16.207031 23.734375 L 15.179688 23.027344 L 14.15625 23.734375 L 14.519531 22.546875 L 13.523438 21.796875 L 14.769531 21.769531 L 15.179688 20.601562 "/>
<path style=" stroke:none;fill-rule:nonzero;fill:rgb(100%,94.898987%,0%);fill-opacity:1;" d="M 15.179688 20.601562 L 15.589844 21.769531 L 16.839844 21.796875 L 15.84375 22.546875 L 16.207031 23.734375 L 15.179688 23.027344 L 14.15625 23.734375 L 14.519531 22.546875 L 13.523438 21.796875 L 14.769531 21.769531 L 15.179688 20.601562 "/>
<path style=" stroke:none;fill-rule:nonzero;fill:rgb(100%,94.898987%,0%);fill-opacity:1;" d="M 13.707031 15.125 L 14.113281 16.300781 L 15.363281 16.324219 L 14.367188 17.074219 L 14.726562 18.261719 L 13.707031 17.554688 L 12.679688 18.261719 L 13.039062 17.074219 L 12.046875 16.324219 L 13.292969 16.300781 L 13.707031 15.125 "/>
<path style=" stroke:none;fill-rule:nonzero;fill:rgb(100%,94.898987%,0%);fill-opacity:1;" d="M 13.707031 15.125 L 14.113281 16.300781 L 15.363281 16.324219 L 14.367188 17.074219 L 14.726562 18.261719 L 13.707031 17.554688 L 12.679688 18.261719 L 13.039062 17.074219 L 12.046875 16.324219 L 13.292969 16.300781 L 13.707031 15.125 "/>
</g>
</svg>
